<?xml version="1.0" encoding="UTF-8"?>
<!-- Generator: visioncortex VTracer 0.6.12 -->
<svg version="1.1" xmlns="http://www.w3.org/2000/svg" width="480" height="480">
<path d="M0 0 C0.66 0.33 1.32 0.66 2 1 C-0.5 7.75 -0.5 7.75 -5 10 C-8.75 7.62 -8.75 7.62 -12 5 C-11.01 6.32 -10.02 7.64 -9 9 C-9 9.99 -9 10.98 -9 12 C-8.18 12.33 -8.18 12.33 -4 14 C-2.68 14.99 -1.36 15.98 0 17 C0.66 17 1.32 17 2 17 C2.66 18.65 3.32 20.3 4 22 C6.66 22.41 9.32 22.75 12 23 C12.17 23.5 12.17 23.5 13 26 C13.82 26.66 13.82 26.66 18 30 C18.17 30.5 18.17 30.5 19 33 C20.32 33.66 21.64 34.32 23 35 C23.5 35.33 23.5 35.33 26 37 C24 41 24 41 19 42 C18.01 41.84 18.01 41.84 13 41 C13 41.33 13 41.66 13 42 C14.98 42.66 16.96 43.32 19 44 C15 48 15 48 10.06 47.56 C3.42 45.85 -2.63 43.55 -9 41 C-9.66 41 -10.32 41 -11 41 C-11 40.34 -11 39.68 -11 39 C-11.5 39.16 -11.5 39.16 -14 40 C-14.66 39.34 -15.32 38.68 -16 38 C-16.66 38.16 -16.66 38.16 -20 39 C-24.88 27.62 -24.88 27.62 -26 22 C-22.62 19.31 -22.62 19.31 -19 17 C-18.67 16.34 -18.34 15.68 -18 15 C-12.67 16.33 -7.33 17.67 -2 19 C-6.01 17.4 -9.86 16.17 -14 15 C-14.66 14.67 -15.32 14.34 -16 14 C-17.98 14 -19.96 14 -22 14 C-40.13 10.17 -40.13 10.17 -44 5 C-43.34 5.33 -43.34 5.33 -40 7 C-31.43 9.34 -22.87 11.25 -14 12 C-12.68 12.33 -11.36 12.66 -10 13 C-11.32 10.36 -12.64 7.72 -14 5 C-9 4 -9 4 -5 7 C-2 6 -2 6 0 0 Z M-17 17 C-17.33 17.66 -17.66 18.32 -18 19 C-17.01 18.67 -16.02 18.34 -15 18 C-15.66 17.67 -16.32 17.34 -17 17 Z M-11 19 C-10 21 -10 21 -8 24 C-3.88 24.19 -3.88 24.19 0 24 C0 23.67 0 23.34 0 23 C-1.98 23 -3.96 23 -6 23 C-5.67 22.01 -5.34 21.02 -5 20 C-6 19 -6 19 -11 19 Z M-14 18 C-15 20 -15 20 -15 21 C-15.99 20.84 -15.99 20.84 -21 20 C-22.32 21.32 -23.64 22.64 -25 24 C-24.32 27.2 -24.32 27.2 -22.69 30.69 C-22.18 31.85 -21.66 33.01 -21.14 34.2 C-18.35 37.85 -16.47 37.86 -12 38 C-11.59 36.6 -11.18 35.19 -10.75 33.75 C-9 29 -9 29 -5 25 C-6.32 25 -7.64 25 -9 25 C-9.33 24.34 -9.66 23.68 -10 23 C-10.66 25.97 -11.32 28.94 -12 32 C-12.33 31.67 -12.66 31.34 -13 31 C-12.63 29.39 -12.26 27.78 -11.88 26.12 C-11 21 -11 21 -14 18 Z M1 23 C0.67 23.66 0.34 24.32 0 25 C2.31 25.33 4.62 25.66 7 26 C4 23 4 23 1 23 Z M-1 26 C-1 28.31 -1 30.62 -1 33 C-3.5 35.75 -3.5 35.75 -6 38 C-6 38.99 -6 39.98 -6 41 C1.35 43.9 8.12 45.54 16 46 C14.68 45.01 13.36 44.02 12 43 C11.07 42.24 10.14 41.47 9.19 40.69 C5.03 38.49 3.25 39.3 -1 41 C-1.33 39.68 -1.66 38.36 -2 37 C-1.43 36.87 -1.43 36.87 1.44 36.19 C5 35 5 35 6 32 C7.32 31.34 8.64 30.68 10 30 C5 27 5 27 -1 26 Z M-9 30 C-9 30.66 -9 31.32 -9 32 C-7.68 31.67 -6.36 31.34 -5 31 C-5 32.32 -5 33.64 -5 35 C-4.01 34.67 -3.02 34.34 -2 34 C-1.67 32.02 -1.34 30.04 -1 28 C-5 27 -5 27 -9 30 Z M13 29 C12.01 29.99 11.02 30.98 10 32 C10.66 32.99 10.66 32.99 14 38 C14.66 37.67 15.32 37.34 16 37 C15.67 36.01 15.34 35.02 15 34 C15.33 33.01 15.66 32.02 16 31 C15.01 30.34 14.02 29.68 13 29 Z M-10 32 C-10 32.66 -10 33.32 -10 34 C-9.34 33.67 -8.68 33.34 -8 33 C-8.66 32.67 -9.32 32.34 -10 32 Z M4 36 C2.35 36.66 0.7 37.32 -1 38 C1 40 1 40 5 39.88 C9 39 9 39 11 35 C10.67 34.34 10.34 33.68 10 33 C7 33 7 33 4 36 Z " fill="currentColor" transform="translate(282,123)"/>
<path d="M0 0 C6 0 6 0 9 3 C9.12 6.66 9.13 10.34 9 14 C8.01 14 7.02 14 6 14 C5 17 5 17 6 22 C6.66 22 7.32 22 8 22 C7.34 23.32 6.68 24.64 6 26 C4.68 26 3.36 26 2 26 C7 27 7 27 10 25 C9.69 20.37 9.69 20.37 9 16 C9.99 15.67 10.98 15.34 12 15 C12 14.01 12 13.02 12 12 C11.34 12 10.68 12 10 12 C10.33 9.36 10.66 6.72 11 4 C11.66 4.99 12.32 5.98 13 7 C13.99 6.34 14.98 5.68 16 5 C17.65 5 19.3 5 21 5 C21.16 5.83 21.16 5.83 22 10 C18 14 18 14 13 16 C12 17 12 17 12 24 C14.31 27.02 16.64 30.02 19 33 C19.36 35.33 19.71 37.66 20 40 C21.65 40.33 23.3 40.66 25 41 C25.16 41.66 25.16 41.66 26 45 C24 47 24 47 19 48 C21.75 50.56 21.75 50.56 25 53 C29 52 29 52 32 47 C33.32 46.34 34.64 45.68 36 45 C36 43 36 43 33.06 40.69 C30 38 30 38 29 33 C31 31 31 31 36 31 C40.12 34.93 41 36.16 41 42 C41.66 42 42.32 42 43 42 C43.66 40.35 44.32 38.7 45 37 C45.66 36.67 46.32 36.34 47 36 C45 41 45 41 43 44 C40 43 40 43 38.62 39.06 C37 35 37 35 32 33 C33.15 38.77 34.45 39.62 39 43 C38.34 44.32 37.68 45.64 37 47 C37.88 50.75 37.88 50.75 39 54 C38.5 54.16 38.5 54.16 36 55 C35.67 56.98 35.34 58.96 35 61 C33 65.22 30.81 69.3 28.62 73.42 C27 77 27 77 28 80 C28.45 78.68 28.91 77.36 29.38 76 C29.91 74.68 30.45 73.36 31 72 C31.66 72 32.32 72 33 72 C33.99 71.01 34.98 70.02 36 69 C35.34 69 34.68 69 34 69 C39.05 53.38 39.05 53.38 45 51 C45.66 50.67 46.32 50.34 47 50 C48.65 50.66 50.3 51.32 52 52 C54.31 52 56.62 52 59 52 C59.66 50.68 60.32 49.36 61 48 C72.75 50.88 72.75 50.88 75 52 C74.67 53.32 74.34 54.64 74 56 C75.65 55.34 77.3 54.68 79 54 C79.66 54 80.32 54 81 54 C81.99 53.34 82.98 52.68 84 52 C85.98 52.66 87.96 53.32 90 54 C93.09 54.95 96.18 55.9 99.27 56.84 C101.94 57.67 104.6 58.53 107.26 59.41 C108.68 59.87 110.1 60.33 111.56 60.81 C112.88 61.25 114.21 61.69 115.57 62.14 C119 63 119 63 123 62 C122.67 63.65 122.34 65.3 122 67 C123.32 67 124.64 67 126 67 C129.36 62.13 132.36 57.29 135 52 C134.67 51.34 134.34 50.68 134 50 C134.33 49.34 134.66 48.68 135 48 C135.66 48 136.32 48 137 48 C136.34 47.34 135.68 46.68 135 46 C134.34 47.32 133.68 48.64 133 50 C132.01 49.34 131.02 48.68 130 48 C130 47.01 130 46.02 130 45 C128.68 45 127.36 45 126 45 C123 42 123 42 123 40 C122.01 39.67 121.02 39.34 120 39 C120.33 38.34 120.66 37.68 121 37 C123.31 37.66 125.62 38.32 128 39 C127.67 37.68 127.34 36.36 127 35 C130 32 130 32 136 33 C136.99 33.66 137.98 34.32 139 35 C139 32.69 139 30.38 139 28 C139.99 26.68 140.98 25.36 142 24 C146 25 146 25 149 29 C149 30.65 149 32.3 149 34 C149.99 34.33 150.98 34.66 152 35 C150.35 34.67 148.7 34.34 147 34 C147 34.66 147 35.32 147 36 C147.66 36 148.32 36 149 36 C149.6 37.24 150.2 38.47 150.81 39.75 C153.28 44.55 155.76 47.25 161 49 C160.67 49.99 160.34 50.98 160 52 C159.05 51.34 158.1 50.68 157.12 50 C154 48 154 48 152 48 C152 48.66 152 49.32 152 50 C152.66 50 153.32 50 154 50 C153.67 50.66 153.34 51.32 153 52 C152.01 52 151.02 52 150 52 C149.71 53.77 149.42 55.55 149.12 57.38 C148 63 148 63 146 65 C146 67.13 146.1 69.25 146.19 71.38 C146 76 146 76 143 80 C142.67 81.65 142.34 83.3 142 85 C141.67 86.32 141.34 87.64 141 89 C141.33 90.32 141.66 91.64 142 93 C142.82 92.84 142.82 92.84 147 92 C147.33 91.01 147.66 90.02 148 89 C148.66 89.33 149.32 89.66 150 90 C150 91.32 150 92.64 150 94 C149.34 94 148.68 94 148 94 C148 94.99 148 95.98 148 97 C153.39 91.61 152.08 88.36 152 81 C152.99 80.67 153.98 80.34 155 80 C155.38 77.67 155.7 75.34 156 73 C156.47 71.76 156.95 70.53 157.44 69.25 C159.29 64.22 160.14 59.29 161 54 C161.33 52.02 161.66 50.04 162 48 C160.06 44.81 160.06 44.81 158 42 C158 41.01 158 40.02 158 39 C166.37 48.88 163.19 55.73 160 68 C159.45 70.37 158.91 72.75 158.38 75.12 C157 81 157 81 156 83 C155.34 83 154.68 83 154 83 C154.11 83.6 154.11 83.6 154.69 86.62 C155 91 155 91 152 97 C151.34 97 150.68 97 150 97 C149.95 97.48 149.95 97.48 149.69 99.94 C148.91 104.5 147.46 108.61 146 113 C145.67 114.69 145.34 116.38 145 118.12 C144.1 122.52 142.78 125.92 141 130 C140.31 132.99 139.65 136 139 139 C138.3 141.34 137.59 143.67 136.88 146 C135.25 151.52 134.81 156.22 135 162 C133.67 164.67 132.33 167.33 131 170 C130.99 177.05 133.07 179.89 138.12 184.62 C139.3 185.74 140.47 186.86 141.68 188.01 C144.13 190.22 146.64 192.35 149.19 194.44 C154.23 199.03 154 203.42 154 210 C153.67 210 153.34 210 153 210 C152.87 209.11 152.87 209.11 152.19 204.62 C149.45 196.35 145.56 193.31 139 188 C129.26 178.54 129.26 178.54 128 171 C126.68 171.33 125.36 171.66 124 172 C126.01 166.4 126.63 165.22 132 162 C132.89 158.5 132.89 158.5 133.25 154.44 C133.96 147.09 133.96 147.09 135 145 C133.02 145.33 131.04 145.66 129 146 C128.34 144.02 127.68 142.04 127 140 C126 143 126 143 127 147 C126.67 147.66 126.34 148.32 126 149 C125.34 149 124.68 149 124 149 C123.69 150.96 123.38 152.92 123.06 154.94 C122 161 122 161 121 162 C120.75 166.94 120.75 166.94 121 172 C121.99 172.66 122.98 173.32 124 174 C122.35 174 120.7 174 119 174 C119 172.35 119 170.7 119 169 C118.34 169 117.68 169 117 169 C117 176.59 117.65 178.22 122.06 184.06 C125 188 125 188 126 191 C126.66 191 127.32 191 128 191 C128.66 192.32 129.32 193.64 130 195 C131.98 194.67 133.96 194.34 136 194 C136.99 194.66 137.98 195.32 139 196 C139.66 195.67 140.32 195.34 141 195 C140 198 140 198 137 200 C138.7 206.8 138.7 206.8 142 209 C142.33 210.98 142.66 212.96 143 215 C139 212 139 212 139 210 C138.34 210.33 137.68 210.66 137 211 C138.13 212.09 139.27 213.19 140.44 214.31 C144 218 144 218 145 221 C140.32 219.44 138.14 215.7 135 212 C134.01 211.01 133.02 210.02 132 209 C132 208.34 132 207.68 132 207 C131.34 207 130.68 207 130 207 C129.69 208.09 129.38 209.19 129.06 210.31 C128 214 128 214 125 217 C120 216 120 216 119 214 C118.76 209.07 118.76 206.47 121 202 C108.35 205.88 96.69 209.98 86 218 C86 218.99 86 219.98 86 221 C84.68 220.01 83.36 219.02 82 218 C86.35 207.12 99.28 200.64 110 197 C109.34 196.34 108.68 195.68 108 195 C108 193.35 108 191.7 108 190 C109.32 189.67 110.64 189.34 112 189 C108 185 108 185 106 184 C105.34 185.32 104.68 186.64 104 188 C101 191 101 191 97 192 C96.01 191.34 95.02 190.68 94 190 C94 187.69 94 185.38 94 183 C84.56 183.52 79.67 185.33 73 192 C71.35 192.33 69.7 192.66 68 193 C64.03 195.2 61.76 197.29 58.81 200.81 C57.88 201.86 56.96 202.92 56 204 C55.01 203.67 54.02 203.34 53 203 C53.47 202.63 53.47 202.63 55.88 200.75 C59 198 59 198 61 194 C63.64 192.29 66.31 190.62 69 189 C69.33 188.34 69.66 187.68 70 187 C70.66 187.33 71.32 187.66 72 188 C72 188.66 72 189.32 72 190 C72.66 190 73.32 190 74 190 C74.66 188.68 75.32 187.36 76 186 C77.32 185.01 78.64 184.02 80 183 C79.34 182.01 78.68 181.02 78 180 C76.8 180.8 75.6 181.59 74.37 182.41 C64.48 188.85 55.12 194.04 44 198 C43.67 197.34 43.34 196.68 43 196 C43.98 195.6 44.96 195.2 45.97 194.79 C55.77 190.66 65.29 186.15 74 180 C74 178 74 178 72 176 C82.75 175.75 82.75 175.75 85 178 C85 177.67 85 177.34 85 177 C97.62 176.62 97.62 176.62 101 180 C101.82 179.34 101.82 179.34 106 176 C106.66 175.67 107.32 175.34 108 175 C105.69 175 103.38 175 101 175 C100.01 174.34 99.02 173.68 98 173 C97.67 173.66 97.34 174.32 97 175 C88.36 175.57 79.57 175.25 71 174 C71 173.67 71 173.34 71 173 C73.85 172.97 76.71 172.95 79.56 172.94 C81.15 172.93 82.74 172.91 84.38 172.9 C88.36 172.99 92.08 173.33 96 174 C97 170 97 170 96 166 C93.92 166.45 91.83 166.91 89.69 167.38 C80.52 169.22 71.31 170.15 62 171 C62 170.34 62 169.68 62 169 C68.49 167.83 74.38 167 81 167 C81.33 166.34 81.66 165.68 82 165 C83.32 165.33 84.64 165.66 86 166 C86 165.34 86 164.68 86 164 C96.62 164.88 96.62 164.88 100 166 C99 164 99 164 96 163 C93.33 162.96 90.67 162.96 88 163 C88 162.67 88 162.34 88 162 C90.04 161.88 92.08 161.75 94.19 161.62 C101 161 101 161 106 159 C101 158 101 158 96 160 C88.62 160 86.1 158.75 80 155 C83 154 83 154 86.19 156 C92.1 159.1 96.2 157.9 102 155 C92.62 150 92.62 150 87 150 C85.33 148.33 83.67 146.67 82 145 C74.88 143.81 71.65 145.46 65 148 C59.33 149.19 53.78 149.08 48 149 C48 148.67 48 148.34 48 148 C49.27 147.83 50.53 147.66 51.84 147.48 C60.6 146.22 67.96 144.82 76 141 C82 142 82 142 85 143 C86.32 142.67 87.64 142.34 89 142 C89.33 142.66 89.66 143.32 90 144 C91.98 144.33 93.96 144.66 96 145 C100.19 146.75 104 148.82 108 151 C108 151.66 108 152.32 108 153 C109.65 152.67 111.3 152.34 113 152 C109.47 150.23 105.91 148.58 102.31 146.94 C96 144 96 144 95 143 C94.82 140.23 94.73 137.46 94.69 134.69 C94.67 133.93 94.67 133.93 94.57 130.07 C95 126 95 126 99 122 C99.66 121.67 100.32 121.34 101 121 C100.01 120.01 99.02 119.02 98 118 C94 119 94 119 91.06 122.94 C88 127 88 127 83 129 C84.11 136.51 84.11 136.51 88.62 139 C89.74 139.33 90.85 139.66 92 140 C91.96 138.37 91.92 136.74 91.88 135.06 C91.92 133.39 91.96 131.72 92 130 C92.66 129.67 93.32 129.34 94 129 C94.25 137.5 94.25 137.5 92 142 C84.25 139.25 84.25 139.25 82 137 C81.54 134.31 81.18 131.59 80.88 128.88 C80.71 127.41 80.54 125.94 80.37 124.43 C80.31 123.86 80.31 123.86 80 121 C79.34 121 78.68 121 78 121 C78.35 122.55 78.7 124.09 79.06 125.69 C80 131 80 131 79 136 C73.35 134.87 68.15 133.63 63 131 C63 130.34 63 129.68 63 129 C62.34 129.33 61.68 129.66 61 130 C64.63 133.63 68.32 134.96 73 137 C73.66 137.66 74.32 138.32 75 139 C64.68 144.59 59.06 146.23 48 142 C46.68 141.67 45.36 141.34 44 141 C43 136 43 136 44 134 C37.25 137.63 37.25 137.63 35 141 C33.02 141.66 31.04 142.32 29 143 C28.38 148.27 28.38 148.27 28.56 154.81 C28.58 155.89 28.58 155.89 28.69 161.33 C29 167 29 167 30 172 C30.66 172.33 30.66 172.33 34 174 C33.67 172.02 33.34 170.04 33 168 C32 162 32 162 34 159 C39 160 39 160 41 162 C41.4 164.32 41.74 166.66 42 169 C42.99 169 43.98 169 45 169 C43.35 170.32 41.7 171.64 40 173 C39.34 172.67 38.68 172.34 38 172 C37.34 172.66 36.68 173.32 36 174 C36.99 174.99 37.98 175.98 39 177 C38.67 177.66 38.34 178.32 38 179 C39.32 178.67 40.64 178.34 42 178 C45.61 180.02 47.69 181.54 50 185 C49.67 186.32 49.34 187.64 49 189 C45 190 45 190 42 188 C41.34 188.66 40.68 189.32 40 190 C36 190 36 190 34 188 C30 192 30 192 30 198 C30.16 198.82 30.16 198.82 31 203 C29.68 203.33 28.36 203.66 27 204 C27.05 205.14 27.05 205.14 27.31 210.94 C27.37 212.23 27.43 213.51 27.49 214.84 C27.57 215.36 27.57 215.36 28 218 C28.99 218.33 29.98 218.66 31 219 C31.99 217.35 32.98 215.7 34 214 C39 215 39 215 42 218 C42.39 216.87 42.78 215.73 43.19 214.56 C45 211 45 211 50 210 C52 212 52 212 52 219 C51.67 219.66 51.34 220.32 51 221 C54.25 219.37 54.15 216.35 55 213 C57.97 213.99 60.94 214.98 64 216 C62 217 62 217 59 216 C59.66 216.99 60.32 217.98 61 219 C61.99 218.67 62.98 218.34 64 218 C64.66 218.33 64.66 218.33 68 220 C68 221.32 68 222.64 68 224 C63 225 63 225 58.81 224.94 C55 225 55 225 53 227 C53 227.99 53 228.98 53 230 C53.66 229.67 54.32 229.34 55 229 C61.46 229 62.32 229.1 66 234 C65.67 235.32 65.34 236.64 65 238 C61.44 239.25 61.44 239.25 58 240 C58.66 240.99 59.32 241.98 60 243 C59.01 243 58.02 243 57 243 C57.33 243.66 57.66 244.32 58 245 C52 245 52 245 50 244 C49.67 244.99 49.34 245.98 49 247 C47.68 247.33 46.36 247.66 45 248 C42 244 42 244 43 239 C41.02 238.34 39.04 237.68 37 237 C37 235.02 37 233.04 37 231 C32.5 228.12 32.5 228.12 28 226 C28 227.98 28 229.96 28 232 C29.32 232 30.64 232 32 232 C33.67 235.34 33.67 238.66 32 242 C33.98 242 35.96 242 38 242 C38.99 242.99 39.98 243.98 41 245 C40.67 246.65 40.34 248.3 40 250 C35 251 35 251 33 251 C33 252.65 33 254.3 33 256 C31 258 31 258 28 258 C27.34 259.32 26.68 260.64 26 262 C20 262 20 262 18 260 C17.86 256.13 17.83 252.25 17.88 248.38 C17.89 246.26 17.91 244.14 17.93 241.96 C17.95 240.32 17.98 238.69 18 237 C17.01 237 16.02 237 15 237 C14.34 238.32 13.68 239.64 13 241 C7 242 7 242 6 241 C6 236 6 236 11 232 C11.99 231.34 12.98 230.68 14 230 C13.34 228.02 12.68 226.04 12 224 C12.33 223.01 12.66 222.02 13 221 C17 220 17 220 19 221 C18.67 219.02 18.34 217.04 18 215 C12.23 212.69 12.23 212.69 7 214 C6.01 213.34 5.02 212.68 4 212 C4 211.34 4 210.68 4 210 C3.34 210 2.68 210 2 210 C1.34 211.32 0.68 212.64 0 214 C-1 215 -1 215 -6 215 C-8.12 212.88 -7 209.79 -7 207 C-8.32 206.34 -9.64 205.68 -11 205 C-15 203 -15 203 -16 200 C-16.33 200.33 -16.66 200.66 -17 201 C-18.65 201 -20.3 201 -22 201 C-22 199.35 -22 197.7 -22 196 C-23.98 195.34 -25.96 194.68 -28 194 C-28 192.35 -28 190.7 -28 189 C-29.32 188.67 -30.64 188.34 -32 188 C-32 186.35 -32 184.7 -32 183 C-31.34 182.67 -31.34 182.67 -28 181 C-27.34 182.32 -26.68 183.64 -26 185 C-25.34 185 -24.68 185 -24 185 C-19 187 -19 187 -18 189 C-19.98 189 -21.96 189 -24 189 C-23.34 189.66 -22.68 190.32 -22 191 C-22 191.66 -22 192.32 -22 193 C-21.34 192.67 -21.34 192.67 -18 191 C-18 195 -18 195 -21 200 C-18 199 -18 199 -16 195 C-16 194.67 -16 194.34 -16 194 C-16 192.68 -16 191.36 -16 190 C-14.68 190 -13.36 190 -12 190 C-12 189.01 -12 188.02 -12 187 C-12.66 186.67 -13.32 186.34 -14 186 C-14.33 186.99 -14.66 187.98 -15 189 C-18.95 186.37 -19.54 183.37 -21 179 C-21 179.99 -21 180.98 -21 182 C-26 182 -26 182 -31 178 C-31 176.68 -31 175.36 -31 174 C-26 173 -26 173 -23 174 C-22.67 173.34 -22.67 173.34 -21 170 C-19.35 170.33 -17.7 170.66 -16 171 C-15.67 172.65 -15.34 174.3 -15 176 C-14.45 175.87 -14.45 175.87 -11.69 175.19 C-10.47 175.13 -9.25 175.06 -8 175 C-7.01 176.65 -6.02 178.3 -5 180 C-4.34 180.33 -3.68 180.66 -3 181 C-3 182.65 -3 184.3 -3 186 C-4.98 186.99 -6.96 187.98 -9 189 C-8.5 189.33 -8.5 189.33 -6 191 C-5.67 190.01 -5.34 189.02 -5 188 C6.07 187.53 6.07 187.53 9 189 C10.65 188.67 12.3 188.34 14 188 C15.02 185.34 16.02 182.68 17 180 C18.32 180 19.64 180 21 180 C20.84 178.85 20.84 178.85 20 173 C18.35 173.33 16.7 173.66 15 174 C12.31 169.97 13.24 167.65 14 163 C12.02 163.99 10.04 164.98 8 166 C7.34 165.67 6.68 165.34 6 165 C10.28 160.72 11.4 160.4 17 159 C17.66 158.01 18.32 157.02 19 156 C17.35 155.34 15.7 154.68 14 154 C13.34 153.01 12.68 152.02 12 151 C14.67 152.33 17.33 153.67 20 155 C16.2 118.5 16.2 118.5 7 107 C7 106.34 7 105.68 7 105 C6.01 105.16 6.01 105.16 1 106 C0.67 104.02 0.34 102.04 0 100 C-0.33 99.01 -0.66 98.02 -1 97 C-2.65 96.88 -4.3 96.75 -6 96.62 C-7.65 96.42 -9.3 96.21 -11 96 C-11.33 94.35 -11.66 92.7 -12 91 C-10.35 90.01 -8.7 89.02 -7 88 C-9.31 85.03 -11.62 82.06 -14 79 C-14.93 79.85 -15.86 80.69 -16.81 81.56 C-17.86 82.37 -18.92 83.17 -20 84 C-20.99 83.67 -21.98 83.34 -23 83 C-23 78 -23 78 -20 75 C-20 72.69 -20 70.38 -20 68 C-22.31 68 -24.62 68 -27 68 C-29 64 -29 64 -27 60 C-29.57 56.14 -31.61 56.06 -36 55 C-35.67 54.34 -35.34 53.68 -35 53 C-28.51 54.14 -26.39 56.45 -23 62 C-23.99 62.66 -24.98 63.32 -26 64 C-26 64.66 -26 65.32 -26 66 C-24.02 66 -22.04 66 -20 66 C-18.68 66.66 -17.36 67.32 -16 68 C-16.97 66.97 -17.94 65.94 -18.94 64.88 C-22 61 -22 61 -23 55 C-19 52 -19 52 -13 50 C-12.67 49.01 -12.34 48.02 -12 47 C-18.75 49.88 -18.75 49.88 -21 51 C-21 49.02 -21 47.04 -21 45 C-21.33 46.65 -21.66 48.3 -22 50 C-22.33 51.32 -22.66 52.64 -23 54 C-24.32 53.84 -24.32 53.84 -31 53 C-31 52.34 -31 51.68 -31 51 C-32.65 50.67 -34.3 50.34 -36 50 C-34.12 41.12 -34.12 41.12 -33 40 C-21.49 39.51 -21.49 39.51 -18 43 C-18 43.99 -18 44.98 -18 46 C-17.01 45.84 -17.01 45.84 -12 45 C-10 49 -10 49 -12 53 C-11.84 53.16 -11.84 53.16 -11 54 C-11.1 55.3 -11.21 56.6 -11.31 57.94 C-11.21 59.28 -11.11 60.62 -11 62 C-9.02 62.66 -7.04 63.32 -5 64 C-5 65.65 -5 67.3 -5 69 C-3.68 69.66 -2.36 70.32 -1 71 C0 73 0 73 0 79 C-4 78 -4 78 -6 77 C-6 78.32 -6 79.64 -6 81 C-5.01 80.84 -5.01 80.84 0 80 C4 85 4 85 4 89 C4.66 88.67 4.66 88.67 8 87 C9.65 87 11.3 87 13 87 C13.66 88.32 14.32 89.64 15 91 C11 94 11 94 7 94 C10 100 10 100 14 105 C16.6 98.51 19.27 89.8 17 83 C15.35 82.34 13.7 81.68 12 81 C12 76 12 76 14 74 C13.07 70.32 12.07 66.65 11 63 C11 62.01 11 61.02 11 60 C6 63 6 63 5 64 C3.35 64 1.7 64 0 64 C-1 61 -1 61 1 57 C1.99 56.34 2.98 55.68 4 55 C2.68 54.01 1.36 53.02 0 52 C0 50.68 0 49.36 0 48 C5 47 5 47 8 49 C7.84 48.34 7.84 48.34 7 45 C6.01 45.16 6.01 45.16 1 46 C-0.65 45.34 -2.3 44.68 -4 44 C-4.5 43.84 -4.5 43.84 -7 43 C-6 38 -6 38 -3 36 C4 36 4 36 6 37 C6 34.03 6 31.06 6 28 C4.58 28.04 3.15 28.08 1.69 28.12 C-3 28 -3 28 -6 26 C-5.67 24.35 -5.34 22.7 -5 21 C-3.68 20.67 -2.36 20.34 -1 20 C-0.01 18.68 0.98 17.36 2 16 C-0.97 16 -3.94 16 -7 16 C-7 14.35 -7 12.7 -7 11 C-4 9 -4 9 1 8 C0.34 7.01 -0.32 6.02 -1 5 C-0.67 3.35 -0.34 1.7 0 0 Z M1 1 C1 2.65 1 4.3 1 6 C1.33 6 1.66 6 2 6 C2 4.35 2 2.7 2 1 C1.67 1 1.34 1 1 1 Z M17 6 C17.33 6.17 17.33 6.17 19 7 C19.33 7.99 19.66 8.98 20 10 C20 8.68 20 7.36 20 6 C19.01 6 18.02 6 17 6 Z M-6 12 C-6 12.99 -6 13.98 -6 15 C-2 13 -2 13 1 10 C-3 10 -3 10 -6 12 Z M3 12 C3 12.66 3 13.32 3 14 C3.99 13.67 4.98 13.34 6 13 C5.01 12.67 4.02 12.34 3 12 Z M3 17 C2.34 18.32 1.68 19.64 1 21 C1.66 21 2.32 21 3 21 C3.33 19.68 3.66 18.36 4 17 C3.67 17 3.34 17 3 17 Z M-5 23 C-4.67 23.99 -4.34 24.98 -4 26 C-2.35 25.67 -0.7 25.34 1 25 C0.67 24.34 0.34 23.68 0 23 C-1.65 23 -3.3 23 -5 23 Z M142 26 C141.67 26.99 141.34 27.98 141 29 C142.65 28.67 144.3 28.34 146 28 C145.67 27.34 145.34 26.68 145 26 C144.01 26 143.02 26 142 26 Z M8 29 C7.93 33.27 7.96 36.84 9 41 C8.67 41.16 8.67 41.16 7 42 C7.66 42 8.32 42 9 42 C9.33 42.66 9.66 43.32 10 44 C11.03 38.85 10.83 35.15 10 30 C9.34 29.67 8.68 29.34 8 29 Z M140 29 C141 33 141 33 141 33 Z M11 32 C12 34 12 34 12 34 Z M16 32 C15 36 15 36 16 39 C15.67 39.66 15.34 40.32 15 41 C16.32 40.34 17.64 39.68 19 39 C19 38.34 19 37.68 19 37 C18.34 37 17.68 37 17 37 C17 35.35 17 33.7 17 32 C16.67 32 16.34 32 16 32 Z M131 33 C130.34 33.66 129.68 34.32 129 35 C129.33 36.32 129.66 37.64 130 39 C130.33 38.34 130.66 37.68 131 37 C132.65 37.99 134.3 38.98 136 40 C136.66 40 137.32 40 138 40 C138.66 41.65 139.32 43.3 140 45 C140.66 44.67 141.32 44.34 142 44 C136.62 35.25 136.62 35.25 131 33 Z M141 34 C142 36 142 36 142 36 Z M142 37 C143 39 143 39 143 39 Z M140 38 C141 40 141 40 141 40 Z M-32 41 C-32.66 42.98 -33.32 44.96 -34 47 C-33.34 47.33 -33.34 47.33 -30 49 C-30.33 47.68 -30.66 46.36 -31 45 C-29.35 45 -27.7 45 -26 45 C-26.66 43.68 -27.32 42.36 -28 41 C-29.32 41 -30.64 41 -32 41 Z M-6 41 C-2 42 -2 42 -2 42 Z M14 41 C15 43 15 43 15 43 Z M19 41 C18.67 42.65 18.34 44.3 18 46 C19.65 46 21.3 46 23 46 C23.33 44.68 23.66 43.36 24 42 C22.35 41.67 20.7 41.34 19 41 Z M15 43 C14.67 44.65 14.34 46.3 14 48 C15.32 46.68 16.64 45.36 18 44 C17.01 43.67 16.02 43.34 15 43 Z M10 46 C10 48.31 10 50.62 10 53 C10.33 53.16 10.33 53.16 12 54 C12.33 51.69 12.66 49.38 13 47 C12.01 46.67 11.02 46.34 10 46 Z M-29 48 C-29.33 48.66 -29.66 49.32 -30 50 C-29.34 50 -28.68 50 -28 50 C-28.33 49.34 -28.66 48.68 -29 48 Z M33 48 C33.66 48.66 34.32 49.32 35 50 C35.33 49.34 35.66 48.68 36 48 C35.01 48 34.02 48 33 48 Z M3 48 C2.67 48.16 2.67 48.16 1 49 C3 53 3 53 8 54 C8 53.01 8 52.02 8 51 C6.35 50.01 4.7 49.02 3 48 Z M13 49 C14 51 14 51 14 51 Z M16 49 C16.99 49.99 17.98 50.98 19 52 C18.67 53.65 18.34 55.3 18 57 C19.65 56.67 21.3 56.34 23 56 C21 51 21 51 16 49 Z M61 50 C60.67 50.99 60.34 51.98 60 53 C57.71 52.92 55.42 52.84 53.06 52.75 C49.19 52.64 49.19 52.64 46 53 C44.5 56.44 44.5 56.44 44 60 C42.02 60.33 40.04 60.66 38 61 C38 61.99 38 62.98 38 64 C38.99 64.33 39.98 64.66 41 65 C41 66.65 41 68.3 41 70 C40.34 70.33 40.34 70.33 37 72 C38.32 72.99 39.64 73.98 41 75 C41 76.32 41 77.64 41 79 C39.35 79.33 37.7 79.66 36 80 C36.16 80.99 36.16 80.99 37 86 C35.68 86.66 34.36 87.32 33 88 C34.32 88.99 35.64 89.98 37 91 C36.67 92.65 36.34 94.3 36 96 C35.01 96.16 35.01 96.16 30 97 C30.99 98.32 31.98 99.64 33 101 C33 102.32 33 103.64 33 105 C27 104 27 104 25 100 C23 101 23 101 22 105 C21.61 114.26 22.17 122.13 25 131 C31 134 31 134 36.81 131.38 C42 128 42 128 43 125 C42.01 123.35 41.02 121.7 40 120 C40.16 119.34 40.16 119.34 41 116 C42.98 116 44.96 116 47 116 C47.99 115.67 47.99 115.67 53 114 C53.66 114 54.32 114 55 114 C55.66 115.32 56.32 116.64 57 118 C58.11 117.65 59.23 117.3 60.38 116.94 C64 116 64 116 66 117 C66.33 118.32 66.66 119.64 67 121 C66 120 66 120 65 117 C64.18 117.16 64.18 117.16 60 118 C61 120 61 120 62 121 C61.67 121.16 61.67 121.16 60 122 C60 122.66 60 123.32 60 124 C59.34 124 58.68 124 58 124 C57.34 122.02 56.68 120.04 56 118 C55.01 117.01 54.02 116.02 53 115 C48 116 48 116 45 117 C44.18 117.16 44.18 117.16 40 118 C40.66 119.65 41.32 121.3 42 123 C42.66 123 43.32 123 44 123 C42.74 129.32 41.55 129.23 35.94 131.81 C34.65 132.42 33.36 133.02 32.03 133.64 C31.03 134.09 30.03 134.54 29 135 C28.84 134.67 28.84 134.67 28 133 C26.68 133 25.36 133 24 133 C23.88 131.87 23.75 130.73 23.62 129.56 C23 125 23 125 21.94 120.5 C20.36 112.91 20.82 106.46 23 99 C23.5 98.84 23.5 98.84 26 98 C26.66 99.32 27.32 100.64 28 102 C29.32 102.66 30.64 103.32 32 104 C31 99 31 99 28 97 C26.02 97 24.04 97 22 97 C21.34 95.68 20.68 94.36 20 93 C18.52 97.45 17 102.29 17 107 C11.18 105.54 9.45 101.71 6 97 C5.67 97.16 5.67 97.16 4 98 C9.32 108.64 9.32 108.64 14.75 109.81 C15.82 109.87 16.89 109.94 18 110 C18.08 111.13 18.16 112.27 18.25 113.44 C18.91 118.37 19.77 123.14 20.81 128 C21.13 129.49 21.44 130.97 21.77 132.5 C21.97 133.08 21.97 133.08 23 136 C24.32 136.33 25.64 136.66 27 137 C27.99 137.99 28.98 138.98 30 140 C30.82 139.84 30.82 139.84 35 139 C35 138.01 35 137.02 35 136 C35.82 135.67 35.82 135.67 40 134 C42.34 133 44.67 132.01 47 131 C46.34 132.98 45.68 134.96 45 137 C45.99 136.34 46.98 135.68 48 135 C48.33 135.33 48.33 135.33 50 137 C50 135.35 50 133.7 50 132 C50.99 132 51.98 132 53 132 C53.66 133.65 54.32 135.3 55 137 C55.66 137 56.32 137 57 137 C55.33 128.67 55.33 128.67 52 127 C52.66 124.69 53.32 122.38 54 120 C54.66 121.98 55.32 123.96 56 126 C56.33 126.16 56.33 126.16 58 127 C58 126.34 58 125.68 58 125 C59.49 124.84 59.49 124.84 67 124 C66.34 124.66 65.68 125.32 65 126 C67.34 131.86 68.27 132.12 74 134 C75.32 134 76.64 134 78 134 C77.9 131.71 77.79 129.42 77.69 127.06 C77.63 125.77 77.57 124.49 77.51 123.16 C77.34 122.12 77.17 121.07 77 120 C76.5 119.84 76.5 119.84 74 119 C72.97 115.34 71.97 111.67 71 108 C70.34 108 69.68 108 69 108 C69.99 107.01 70.98 106.02 72 105 C72.33 103.68 72.66 102.36 73 101 C70 102 70 102 67 106 C67.66 104.35 68.32 102.7 69 101 C60.38 99.88 60.38 99.88 57 101 C60 99 60 99 67 99 C67.66 97.68 68.32 96.36 69 95 C69.99 94.67 70.98 94.34 72 94 C72 93.34 72 92.68 72 92 C71.5 91.84 71.5 91.84 69 91 C68.34 91.99 67.68 92.98 67 94 C66.84 93.34 66.84 93.34 66 90 C72.75 91.75 72.75 91.75 75 94 C80.11 94.99 82.25 95.37 87 93 C87.66 93.99 88.32 94.98 89 96 C93.4 93.8 94.57 86.29 96 82 C100.94 82.25 100.94 82.25 106 83 C106.16 83.66 106.16 83.66 107 87 C108.09 86.63 109.19 86.26 110.31 85.88 C114 85 114 85 117 87 C117.66 87.16 117.66 87.16 121 88 C121.5 88.16 121.5 88.16 124 89 C124 88.34 124 87.68 124 87 C125.98 86.67 127.96 86.34 130 86 C130 85.34 130 84.68 130 84 C131.32 84 132.64 84 134 84 C134.33 81.36 134.66 78.72 135 76 C134.01 76 133.02 76 132 76 C131.84 75.34 131.84 75.34 131 72 C130.5 72.16 130.5 72.16 128 73 C128.99 75.64 129.98 78.28 131 81 C124.62 80.38 124.62 80.38 118 79 C117.67 78.01 117.67 78.01 116 73 C115.5 73.16 115.5 73.16 113 74 C113 75.32 113 76.64 113 78 C106.73 77.34 100.46 76.68 94 76 C94 75.34 94 74.68 94 74 C95.32 73.67 96.64 73.34 98 73 C98 72.01 98 71.02 98 70 C97.67 70.66 97.34 71.32 97 72 C95.02 72.33 93.04 72.66 91 73 C91.33 73.66 91.33 73.66 93 77 C92.34 77.33 91.68 77.66 91 78 C91 77.34 91 76.68 91 76 C89.7 75.88 88.4 75.75 87.06 75.62 C83 74 83 74 81.69 69 C81.79 67.35 81.89 65.7 82 64 C83.65 63.34 85.3 62.68 87 62 C88.32 61.01 89.64 60.02 91 59 C91.82 58.84 91.82 58.84 96 58 C96 57.67 96 57.34 96 57 C88.25 55.75 88.25 55.75 86 58 C84.35 58.33 82.7 58.66 81 59 C81.33 58.67 81.66 58.34 82 58 C80 56 80 56 74 57 C73.67 56.34 73.67 56.34 72 53 C68.21 51.31 65.17 50 61 50 Z M136 50 C136.33 50.66 136.66 51.32 137 52 C137.66 52 138.32 52 139 52 C139 51.34 139 50.68 139 50 C138.01 50 137.02 50 136 50 Z M-25 51 C-24 53 -24 53 -24 53 Z M31 51 C32 55 32 55 32 55 Z M141 51 C140.34 51.99 140.34 51.99 137 57 C137.99 57.33 138.98 57.66 140 58 C142 54 142 54 141 51 Z M14 52 C15 54 15 54 15 54 Z M143 53 C144 55 144 55 144 55 Z M-22 56 C-21.34 57.65 -20.68 59.3 -20 61 C-19.67 61 -19.34 61 -19 61 C-18.67 58.69 -18.34 56.38 -18 54 C-19 54 -19 54 -22 56 Z M-17 55 C-17 57.31 -17 59.62 -17 62 C-16.34 60.68 -15.68 59.36 -15 58 C-14.34 59.32 -13.68 60.64 -13 62 C-12 56 -12 56 -13 54 C-16 54 -16 54 -17 55 Z M8 54 C2.12 57.38 2.12 57.38 1 63 C5 62 5 62 7 58 C8.65 58 10.3 58 12 58 C12.29 59.69 12.58 61.38 12.88 63.12 C15.01 74.25 15.01 74.25 20 78 C16.07 56.03 16.07 56.03 12 54 C12 54.66 12 55.32 12 56 C10 56 10 56 8 54 Z M26 54 C30 55 30 55 30 55 Z M24 56 C24 56.66 24 57.32 24 58 C24.66 57.67 25.32 57.34 26 57 C25.34 56.67 24.68 56.34 24 56 Z M27 56 C31 57 31 57 31 57 Z M16 58 C16.62 60.4 17.25 62.79 17.88 65.19 C18.22 66.52 18.57 67.86 18.93 69.23 C20 73 20 73 22 78 C22.99 78 23.98 78 25 78 C27.15 74.64 27.15 74.64 29.38 70.25 C30.13 68.81 30.88 67.37 31.65 65.89 C32.09 64.61 32.54 63.32 33 62 C30 58 30 58 26.64 57.61 C25.38 57.66 24.12 57.7 22.81 57.75 C20.56 57.83 18.32 57.91 16 58 Z M40 58 C40 58.66 40 59.32 40 60 C40.66 59.67 41.32 59.34 42 59 C41.34 58.67 40.68 58.34 40 58 Z M83 65 C83.62 69.25 83.62 69.25 85 73 C88.47 72.54 91.67 72.11 95 71 C94.34 67.7 93.68 64.4 93 61 C88.19 61 86.46 61.7 83 65 Z M104 61 C104.66 61.33 104.66 61.33 108 63 C107.67 62.34 107.34 61.68 107 61 C106.01 61 105.02 61 104 61 Z M108 63 C108 64.98 108 66.96 108 69 C108.99 69.33 109.98 69.66 111 70 C111.33 68.35 111.66 66.7 112 65 C112.66 64.67 113.32 64.34 114 64 C113.01 63.84 113.01 63.84 108 63 Z M130 63 C129.67 64.32 129.34 65.64 129 67 C129.99 66.67 130.98 66.34 132 66 C131.67 65.01 131.34 64.02 131 63 C130.67 63 130.34 63 130 63 Z M140 63 C139.67 63.66 139.34 64.32 139 65 C139.99 65.33 140.98 65.66 142 66 C142.33 65.01 142.66 64.02 143 63 C142.01 63 141.02 63 140 63 Z M-12 64 C-11.67 64.17 -11.67 64.17 -10 65 C-10 65.99 -10 66.98 -10 68 C-8.68 67.67 -7.36 67.34 -6 67 C-6 66.34 -6 65.68 -6 65 C-6.99 64.83 -6.99 64.83 -12 64 Z M95 64 C96 66 96 66 96 66 Z M103 65 C104 67 104 67 104 67 Z M135 65 C136.32 66.32 137.64 67.64 139 69 C139.33 68.01 139.66 67.02 140 66 C138.35 65.67 136.7 65.34 135 65 Z M104 67 C105 69 105 69 105 69 Z M128 67 C129 69 129 69 129 69 Z M132 67 C133 70 133 70 133 70 Z M-14 69 C-13.34 69.66 -12.68 70.32 -12 71 C-11.67 70.34 -11.34 69.68 -11 69 C-11.99 69 -12.98 69 -14 69 Z M105 69 C104.67 69.99 104.34 70.98 104 72 C103.34 72.66 102.68 73.32 102 74 C103.32 73.67 104.64 73.34 106 73 C105.67 71.68 105.34 70.36 105 69 Z M112 69 C111.67 69.66 111.34 70.32 111 71 C109.68 70.67 108.36 70.34 107 70 C106.34 71.98 105.68 73.96 105 76 C107.31 76.33 109.62 76.66 112 77 C112.66 75.35 113.32 73.7 114 72 C114.99 71.67 115.98 71.34 117 71 C116.18 70.67 116.18 70.67 112 69 Z M117 69 C117.99 69.99 118.98 70.98 120 72 C121.32 71.34 122.64 70.68 124 70 C121.69 69.67 119.38 69.34 117 69 Z M-16 70 C-15.67 71.32 -15.34 72.64 -15 74 C-15.99 74.99 -16.98 75.98 -18 77 C-16 78 -16 78 -13 78 C-5.67 86.67 -5.67 86.67 -4 90 C-5.65 90.33 -7.3 90.66 -9 91 C-9 91.33 -9 91.66 -9 92 C-6.69 92 -4.38 92 -2 92 C-2 87.21 -3.38 85.89 -6 82 C-6.33 80.35 -6.66 78.7 -7 77 C-7.99 77 -8.98 77 -10 77 C-10.33 75.35 -10.66 73.7 -11 72 C-11.82 71.67 -11.82 71.67 -16 70 Z M-3 72 C-2 74 -2 74 -2 74 Z M118 73 C118 74.65 118 76.3 118 78 C122.31 79.82 124.42 80.15 129 79 C125.11 71.22 125.11 71.22 118 73 Z M-2 74 C-2.33 74.99 -2.66 75.98 -3 77 C-2.67 77.17 -2.67 77.17 -1 78 C-1.33 76.68 -1.66 75.36 -2 74 Z M32 76 C32 77.98 32 79.96 32 82 C30.68 82.33 29.36 82.66 28 83 C30 85 30 85 36 85 C35.67 82.03 35.34 79.06 35 76 C34.01 76 33.02 76 32 76 Z M37 76 C37 76.66 37 77.32 37 78 C37.99 78.33 38.98 78.66 40 79 C40 77.68 40 76.36 40 75 C39 75 39 75 37 76 Z M13 78 C14 80 14 80 14 80 Z M-22 79 C-22 79.99 -22 80.98 -22 82 C-21.01 81.67 -20.02 81.34 -19 81 C-19.66 81 -20.32 81 -21 81 C-21.33 80.34 -21.66 79.68 -22 79 Z M-19 79 C-18 81 -18 81 -18 81 Z M23 80 C22.67 80.66 22.34 81.32 22 82 C22.99 82.33 23.98 82.66 25 83 C25 82.01 25 81.02 25 80 C24.34 80 23.68 80 23 80 Z M-3 81 C-3.33 81.66 -3.66 82.32 -4 83 C-3.01 84.65 -2.02 86.3 -1 88 C-0.01 87.67 0.98 87.34 2 87 C1 83 1 83 -3 81 Z M20 81 C20 84 20 84 20 84 Z M20 85 C20 86.98 20 88.96 20 91 C20.99 91.33 21.98 91.66 23 92 C23.33 92.66 23.66 93.32 24 94 C24.66 93.01 25.32 92.02 26 91 C25.34 91 24.68 91 24 91 C26 86 26 86 28 84 C23 83 23 83 20 85 Z M94.44 87.31 C93 91 93 91 93 93 C93.66 93 94.32 93 95 93 C95.33 94.32 95.66 95.64 96 97 C97.26 97 98.52 97 99.81 97 C102.21 97 104.6 97 107 97 C107.33 95.68 107.66 94.36 108 93 C111.75 93.5 115.33 94.08 119 95 C119.66 93.02 120.32 91.04 121 89 C115 87 115 87 110.69 87 C109.47 87 108.25 87 107 87 C106.67 86.34 106.34 85.68 106 85 C97.79 82.98 97.79 82.98 94.44 87.31 Z M2 87 C3 90 3 90 3 90 Z M28 87 C27.67 87.66 27.34 88.32 27 89 C27.82 89.17 27.82 89.17 32 90 C32 89.01 32 88.02 32 87 C30.68 87 29.36 87 28 87 Z M4 92 C7.25 93.63 9.72 92.15 13 91 C13 90.34 13 89.68 13 89 C7 89 7 89 4 92 Z M26 89 C27 91 27 91 27 91 Z M125 89 C125.66 90.98 126.32 92.96 127 95 C130 95 130 95 134 93 C133.34 92.67 132.68 92.34 132 92 C131.67 91.34 131.34 90.68 131 90 C131 90.66 131 91.32 131 92 C130.01 92 129.02 92 128 92 C128 91.34 128 90.68 128 90 C128.66 89.67 129.32 89.34 130 89 C128.35 89 126.7 89 125 89 Z M1 90 C2 92 2 92 2 92 Z M121 91 C121 92.98 121 94.96 121 97 C121.33 97 121.66 97 122 97 C122 95.02 122 93.04 122 91 C121.67 91 121.34 91 121 91 Z M-11 92 C-10.67 92.66 -10.34 93.32 -10 94 C-9.67 93.34 -9.34 92.68 -9 92 C-9.66 92 -10.32 92 -11 92 Z M36 92 C37 94 37 94 37 94 Z M-10 94 C-10 94.33 -10 94.66 -10 95 C-8.35 95 -6.7 95 -5 95 C-5 94.67 -5 94.34 -5 94 C-6.65 94 -8.3 94 -10 94 Z M-1 94 C-0.67 94.66 -0.34 95.32 0 96 C1.32 95.67 2.64 95.34 4 95 C4 94.67 4 94.34 4 94 C2.35 94 0.7 94 -1 94 Z M72 94 C72.66 95.32 73.32 96.64 74 98 C74.66 97.67 75.32 97.34 76 97 C76 96.34 76 95.68 76 95 C74.68 94.67 73.36 94.34 72 94 Z M30 95 C34 96 34 96 34 96 Z M92 93 C91.34 94.32 90.68 95.64 90 97 C89.34 97 88.68 97 88 97 C87.67 96.01 87.34 95.02 87 94 C85 94 85 94 83 96 C81.02 96 79.04 96 77 96 C80 99 80 99 87 99 C89.33 99.66 91.67 100.33 94 101 C97.33 101.37 100.66 101.71 104 102 C106.34 102.32 108.67 102.65 111 103 C109.35 103.33 107.7 103.66 106 104 C106.66 104.33 107.32 104.66 108 105 C107 108 107 108 105 110 C105 110.99 105 111.98 105 113 C109 111 109 111 113 108 C113 107.34 113 106.68 113 106 C114.98 106.33 116.96 106.66 119 107 C123 105 123 105 124 101 C123.34 100.01 122.68 99.02 122 98 C122 98.66 122 99.32 122 100 C121.34 100 120.68 100 120 100 C119.84 99.5 119.84 99.5 119 97 C113 94 113 94 108 94 C108 97 108 97 112 100 C104.25 98.12 104.25 98.12 102 97 C101.01 97.33 100.02 97.66 99 98 C95 97 95 97 92 93 Z M128 96 C127.67 97.98 127.34 99.96 127 102 C131 98 131 98 131 96 C130.01 96 129.02 96 128 96 Z M2 99 C2 100.98 2 102.96 2 105 C2.66 104.67 3.32 104.34 4 104 C3.67 102.35 3.34 100.7 3 99 C2.67 99 2.34 99 2 99 Z M75 99 C75.33 99.99 75.66 100.98 76 102 C76.66 101.34 77.32 100.68 78 100 C77.01 99.67 76.02 99.34 75 99 Z M79 102 C80.98 102.66 82.96 103.32 85 104 C84.67 103.01 84.34 102.02 84 101 C85.32 100.67 86.64 100.34 88 100 C83 99 83 99 79 102 Z M145 99 C144.34 100.32 143.68 101.64 143 103 C139 102 139 102 137 100 C132.7 105.94 132.87 109.08 135 116 C138 115 138 115 140 113 C139.34 114.32 138.68 115.64 138 117 C138.99 118.98 139.98 120.96 141 123 C144.42 119.58 144.18 114.64 145 110 C145.66 108.68 146.32 107.36 147 106 C146.62 102.25 146.62 102.25 146 99 C145.67 99 145.34 99 145 99 Z M147 100 C148 102 148 102 148 102 Z M95 101 C94.01 103.97 93.02 106.94 92 110 C93.11 110.47 94.23 110.95 95.38 111.44 C97.27 112.25 99.16 113.08 101 114 C100.67 114.5 100.67 114.5 99 117 C101 118 101 118 107 117 C107.33 117.99 107.66 118.98 108 120 C109.32 120.33 110.64 120.66 112 121 C112.33 121.99 112.66 122.98 113 124 C113.99 124 114.98 124 116 124 C117.65 124.99 119.3 125.98 121 127 C121.66 127 122.32 127 123 127 C123 126.34 123 125.68 123 125 C121.02 124.34 119.04 123.68 117 123 C117.66 121.35 118.32 119.7 119 118 C119 117.01 119 116.02 119 115 C115 116 115 116 114 118 C106.51 116.13 100.4 111.4 95 106 C96.67 106 98.33 106 100 106 C100 105.34 100 104.68 100 104 C100.66 103.67 101.32 103.34 102 103 C99.69 102.34 97.38 101.68 95 101 Z M73 102 C72.75 113.5 72.75 113.5 75 118 C76.32 118 77.64 118 79 118 C80.22 110.69 79.34 107.78 75 102 C74.34 102 73.68 102 73 102 Z M78 103 C78.33 104.32 78.66 105.64 79 107 C79.99 106.67 80.98 106.34 82 106 C82 105.34 82 104.68 82 104 C80.68 103.67 79.36 103.34 78 103 Z M87 103 C91 104 91 104 91 104 Z M92 103 C91.67 103.66 91.34 104.32 91 105 C91.66 105 92.32 105 93 105 C92.67 104.34 92.34 103.68 92 103 Z M80 108 C83 109 83 109 88 108 C87.67 107.01 87.34 106.02 87 105 C85 105 85 105 80 108 Z M99 108 C102 111 102 111 104 111 C104.33 110.01 104.66 109.02 105 108 C103.02 108 101.04 108 99 108 Z M81 110 C80.63 113 80.29 116 80 119 C79.67 119.16 79.67 119.16 78 120 C78.99 120.99 79.98 121.98 81 123 C81.66 123.66 82.32 124.32 83 125 C85 123 85 123 86 119 C86.99 118.01 87.98 117.02 89 116 C89.66 114.68 90.32 113.36 91 112 C86.58 108.69 86 108.33 81 110 Z M108 113 C108 113.66 108 114.32 108 115 C108.82 115.5 108.82 115.5 113 118 C113.66 117.01 114.32 116.02 115 115 C116.32 114.67 117.64 114.34 119 114 C120 117 120 117 119 122 C120.32 122.33 121.64 122.66 123 123 C123.81 118.69 123.81 118.69 124 114 C118.15 110.49 113.28 107.72 108 113 Z M92 111 C89.81 114.88 89.81 114.88 88 119 C87.67 119.16 87.67 119.16 86 120 C85.67 121.32 85.34 122.64 85 124 C84.34 125.32 83.68 126.64 83 128 C87.5 124.29 91.37 120.56 95 116 C95.66 115.34 96.32 114.68 97 114 C97 113.34 97 112.68 97 112 C95.35 111.67 93.7 111.34 92 111 Z M131 115 C130.53 116.44 130.05 117.89 129.56 119.38 C128 124 128 124 126 126 C126.33 126.33 126.66 126.66 127 127 C126.81 128.26 126.63 129.52 126.44 130.81 C126 135 126 135 128 139 C129.32 139 130.64 139 132 139 C132 138.34 132 137.68 132 137 C132.99 137 133.98 137 135 137 C134.67 137.66 134.34 138.32 134 139 C134.99 139.33 135.98 139.66 137 140 C138.64 135.09 139.47 131.08 140 126 C139.18 125.67 139.18 125.67 135 124 C135.66 123.67 136.32 123.34 137 123 C136.01 122.34 135.02 121.68 134 121 C133.34 122.98 132.68 124.96 132 127 C131.67 126.67 131.34 126.34 131 126 C131.66 124.02 132.32 122.04 133 120 C132.67 118.35 132.34 116.7 132 115 C131.67 115 131.34 115 131 115 Z M125 116 C126 120 126 120 126 120 Z M16 120 C17 122 17 122 17 122 Z M18 121 C17 124 17 124 18 130 C20 128 20 128 19.62 124.38 C19.42 123.26 19.21 122.15 19 121 C18.67 121 18.34 121 18 121 Z M96 127 C96.33 127.99 96.66 128.98 97 130 C98.65 129.67 100.3 129.34 102 129 C102 131.64 102 134.28 102 137 C103.32 137.33 104.64 137.66 106 138 C109.14 132.76 109.3 130.87 109 125 C106.1 127.9 105.89 131.08 105 135 C104 131 104 131 104 127 C103.01 126.67 102.02 126.34 101 126 C102.65 125.34 104.3 124.68 106 124 C106 123.67 106 123.34 106 123 C100 123 100 123 96 127 Z M140 123 C141 125 141 125 141 125 Z M114 124 C114 124.66 114 125.32 114 126 C114.66 125.67 115.32 125.34 116 125 C115.34 124.67 114.68 124.34 114 124 Z M64 127 C63.67 127.66 63.34 128.32 63 129 C63.66 129 64.32 129 65 129 C64.67 128.34 64.34 127.68 64 127 Z M110 127 C111 133 111 133 114 135 C114.66 133.68 115.32 132.36 116 131 C115.01 130.67 114.02 130.34 113 130 C112.67 129.01 112.34 128.02 112 127 C111.34 127 110.68 127 110 127 Z M123 127 C123.33 127.99 123.66 128.98 124 130 C124.66 129.67 125.32 129.34 126 129 C125.67 128.34 125.34 127.68 125 127 C124.34 127 123.68 127 123 127 Z M56 130 C56.66 132.64 57.32 135.28 58 138 C54 137 54 137 52 135 C51.01 136.98 50.02 138.96 49 141 C57.96 143.99 62.77 143.7 71 139 C61.4 131.8 61.4 131.8 56 130 Z M104 132 C105 134 105 134 105 134 Z M19 133 C20 135 20 135 20 135 Z M97 132 C96.5 137.38 96.5 137.38 97 143 C103 146 103 146 105 146 C105.33 144.68 105.66 143.36 106 142 C112 141 112 141 117 143 C117.33 140.36 117.66 137.72 118 135 C117.01 135 116.02 135 115 135 C114.01 134.84 114.01 134.84 109 134 C108.34 135.32 107.68 136.64 107 138 C105.68 138.33 104.36 138.66 103 139 C101 137 101 137 100 131 C99 131 99 131 97 132 Z M20 137 C21 139 21 139 21 139 Z M135 140 C136 143 136 143 136 143 Z M21 142 C22 146 22 146 22 146 Z M107 142 C107 143.32 107 144.64 107 146 C111.21 146.73 113.8 147.05 118 146 C113.57 141.57 113.76 142 107 142 Z M26 145 C27 148 27 148 27 148 Z M87 145 C87 145.99 87 146.98 87 148 C88.98 148 90.96 148 93 148 C89 145 89 145 87 145 Z M21 147 C21 149.97 21 152.94 21 156 C21.33 156 21.66 156 22 156 C22 153.03 22 150.06 22 147 C21.67 147 21.34 147 21 147 Z M111 148 C115 149 115 149 115 149 Z M25 149 C21.68 155.64 24.5 170.34 27 177 C28.98 177.33 30.96 177.66 33 178 C33.33 179.65 33.66 181.3 34 183 C34.33 183 34.66 183 35 183 C35 181.02 35 179.04 35 177 C35.66 176.67 36.32 176.34 37 176 C35.55 175.93 34.09 175.86 32.6 175.79 C31.08 175.2 29.56 174.61 28 174 C26.68 168.34 26.68 168.34 26.44 161.38 C26.33 159.07 26.23 156.77 26.12 154.4 C26.08 152.62 26.04 150.84 26 149 C25.67 149 25.34 149 25 149 Z M18 159 C17.67 160.32 17.34 161.64 17 163 C17.99 162.01 18.98 161.02 20 160 C19.34 159.67 18.68 159.34 18 159 Z M35 160 C34 161 34 161 34 167 C34.99 168.32 35.98 169.64 37 171 C37 169.68 37 168.36 37 167 C37.99 167 38.98 167 40 167 C39 162 39 162 35 160 Z M23 161 C23 163.64 23 166.28 23 169 C23.33 169 23.66 169 24 169 C24 166.36 24 163.72 24 161 C23.67 161 23.34 161 23 161 Z M19 162 C20 164 20 164 20 164 Z M103 163 C104 167 104 167 109 169 C108.01 167.68 107.02 166.36 106 165 C106.66 164.34 107.32 163.68 108 163 C106.35 163 104.7 163 103 163 Z M119 163 C120 165 120 165 120 165 Z M18 164 C18 165.65 18 167.3 18 169 C17.34 169 16.68 169 16 169 C15.67 168.01 15.34 167.02 15 166 C15 167.98 15 169.96 15 172 C17 173 17 173 19 172 C19.08 169.33 19.08 166.67 19 164 C18.67 164 18.34 164 18 164 Z M110 166 C111 168 111 168 111 168 Z M118 166 C119 168 119 168 119 168 Z M102 169 C101.67 169.66 101.34 170.32 101 171 C101.66 171 102.32 171 103 171 C102.67 170.34 102.34 169.68 102 169 Z M22 170 C22 171.65 22 173.3 22 175 C22.33 175 22.66 175 23 175 C23 173.35 23 171.7 23 170 C22.67 170 22.34 170 22 170 Z M104 170 C103.67 170.66 103.34 171.32 103 172 C104.65 172 106.3 172 108 172 C106.68 171.34 105.36 170.68 104 170 Z M-20 171 C-20.33 172.32 -20.66 173.64 -21 175 C-20.34 175.66 -19.68 176.32 -19 177 C-18.34 176.34 -17.68 175.68 -17 175 C-17.33 173.68 -17.66 172.36 -18 171 C-18.66 171 -19.32 171 -20 171 Z M24 172 C25 175 25 175 25 175 Z M-29 175 C-29 175.33 -29 175.66 -29 176 C-27.35 176 -25.7 176 -24 176 C-24 175.67 -24 175.34 -24 175 C-25.65 175 -27.3 175 -29 175 Z M-17 175 C-16 179 -16 179 -16 179 Z M-11 176 C-11.33 177.32 -11.66 178.64 -12 180 C-12.99 180 -13.98 180 -15 180 C-15 180.99 -15 181.98 -15 183 C-13.02 183 -11.04 183 -9 183 C-9 183.99 -9 184.98 -9 186 C-7.35 185.67 -5.7 185.34 -4 185 C-4.66 183.68 -5.32 182.36 -6 181 C-7.65 181 -9.3 181 -11 181 C-10.01 180.34 -9.02 179.68 -8 179 C-8.33 178.01 -8.66 177.02 -9 176 C-9.66 176 -10.32 176 -11 176 Z M-19 177 C-18 180 -18 180 -18 180 Z M26 179 C26.33 180.65 26.66 182.3 27 184 C27.66 183.67 28.32 183.34 29 183 C28.34 181.68 27.68 180.36 27 179 C26.67 179 26.34 179 26 179 Z M30 179 C31 181 31 181 31 181 Z M40 179 C39.67 179.99 39.34 180.98 39 182 C38.01 182.33 37.02 182.66 36 183 C36.33 184.98 36.66 186.96 37 189 C40 188 40 188 41 185 C41.82 185.66 41.82 185.66 46 189 C46.66 188.67 47.32 188.34 48 188 C46.76 181.82 45.4 181.65 40 179 Z M19 181 C19.66 181.66 20.32 182.32 21 183 C21 182.34 21 181.68 21 181 C20.34 181 19.68 181 19 181 Z M101.5 184.38 C100.68 185.57 99.85 186.77 99 188 C98.5 188.33 98.5 188.33 96 190 C101 189 101 189 105 184 C105 183.34 105 182.68 105 182 C105.66 181.67 106.32 181.34 107 181 C104 181 104 181 101.5 184.38 Z M22 182 C23 184 23 184 23 184 Z M17 183 C18 185 18 185 18 185 Z M95 184 C95 185.65 95 187.3 95 189 C95.33 189 95.66 189 96 189 C96 187.35 96 185.7 96 184 C95.67 184 95.34 184 95 184 Z M16 186 C16.33 187.32 16.66 188.64 17 190 C17 188.68 17 187.36 17 186 C16.67 186 16.34 186 16 186 Z M-4 189 C-4.66 190.32 -5.32 191.64 -6 193 C-7.32 192.67 -8.64 192.34 -10 192 C-8 196 -8 196 -4 198 C-2 193 -2 193 -3 191 C-2.01 191.33 -1.02 191.66 0 192 C-0.33 191.01 -0.66 190.02 -1 189 C-1.99 189 -2.98 189 -4 189 Z M4 189 C3.34 189.66 2.68 190.32 2 191 C2.82 191.33 2.82 191.33 7 193 C7 192.01 7 191.02 7 190 C6.01 189.67 5.02 189.34 4 189 Z M10 190 C14 191 14 191 14 191 Z M27 190 C26.67 191.32 26.34 192.64 26 194 C25.67 194.16 25.67 194.16 24 195 C24.99 195.99 25.98 196.98 27 198 C29 195 29 195 28 190 C27.67 190 27.34 190 27 190 Z M111 190 C110.34 191.32 109.68 192.64 109 194 C109.5 194.33 109.5 194.33 112 196 C113.32 194.02 114.64 192.04 116 190 C114.35 190 112.7 190 111 190 Z M-27 191 C-26 193 -26 193 -26 193 Z M9 191 C10 194 10 194 10 194 Z M23 192 C23.33 192.66 23.66 193.32 24 194 C24.33 193.34 24.66 192.68 25 192 C24.34 192 23.68 192 23 192 Z M-12 194 C-11.67 195.65 -11.34 197.3 -11 199 C-9.68 198.67 -8.36 198.34 -7 198 C-7.99 198 -8.98 198 -10 198 C-10.33 196.68 -10.66 195.36 -11 194 C-11.33 194 -11.66 194 -12 194 Z M10 194 C9.67 194.66 9.34 195.32 9 196 C10.32 196 11.64 196 13 196 C13 196.66 13 197.32 13 198 C11.68 198.33 10.36 198.66 9 199 C11.31 199 13.62 199 16 199 C16.33 198.01 16.66 197.02 17 196 C14.69 195.34 12.38 194.68 10 194 Z M-2 196 C-1 198 -1 198 3 199 C3.33 198.01 3.66 197.02 4 196 C2.02 196 0.04 196 -2 196 Z M19 196 C18.67 196.99 18.34 197.98 18 199 C18.99 199 19.98 199 21 199 C20.34 198.01 19.68 197.02 19 196 Z M-13 197 C-12 199 -12 199 -12 199 Z M5 197 C5 197.99 5 198.98 5 200 C4.34 200 3.68 200 3 200 C4.94 205.82 11.52 208.07 17 210 C18.32 209.67 19.64 209.34 21 209 C9.38 203.12 9.38 203.12 6 202 C6.33 201.01 6.66 200.02 7 199 C6.34 198.34 5.68 197.68 5 197 Z M84 215 C84.66 215.33 85.32 215.66 86 216 C88.27 214.69 90.49 213.3 92.69 211.88 C100.25 207.2 107.49 204.51 116 202 C115.67 200.35 115.34 198.7 115 197 C104.34 197 91.26 208.39 84 215 Z M-7 199 C-6 201 -6 201 -6 201 Z M-11 200 C-10 202 -10 202 -10 202 Z M10 200 C10 200.99 10 201.98 10 203 C10.66 203.16 10.66 203.16 14 204 C14 203.01 14 202.02 14 201 C12.68 200.67 11.36 200.34 10 200 Z M18 200 C19 203 19 203 19 203 Z M26 200 C26 200.66 26 201.32 26 202 C26.99 202.33 27.98 202.66 29 203 C29 201.68 29 200.36 29 199 C28 199 28 199 26 200 Z M122 200 C121.2 204 120.55 207.96 120 212 C121.32 211.34 122.64 210.68 124 210 C124 208.68 124 207.36 124 206 C124.66 206 125.32 206 126 206 C123 212 123 212 121 213 C121 213.66 121 214.32 121 215 C121.99 215.33 122.98 215.66 124 216 C128.97 211.03 127.99 206.5 127 200 C125.35 200 123.7 200 122 200 Z M-9 201 C-8 203 -8 203 -8 203 Z M-6 201 C-5.01 201.99 -4.02 202.98 -3 204 C-3.33 203.01 -3.66 202.02 -4 201 C-4.66 201 -5.32 201 -6 201 Z M15 201 C16 203 16 203 16 203 Z M135 201 C136 203 136 203 136 203 Z M25 203 C23.32 208.05 23.67 212.73 24 218 C24.82 218.66 24.82 218.66 29 222 C34 226 34 226 36.56 228.62 C39 231 39 231 43 233 C43 232.01 43 231.02 43 230 C43 227.69 43 225.38 43 223 C41.19 219.56 41.19 219.56 39 217 C38.01 217 37.02 217 36 217 C36 217.66 36 218.32 36 219 C36 219.99 36 220.98 36 222 C38.5 224.69 38.5 224.69 41 227 C36.59 224.58 32.96 222.17 29 219 C28.34 219 27.68 219 27 219 C26.67 213.72 26.34 208.44 26 203 C25.67 203 25.34 203 25 203 Z M15 205 C15.66 205.33 15.66 205.33 19 207 C19 206.34 19 205.68 19 205 C17.68 205 16.36 205 15 205 Z M-1 206 C-1 206.66 -1 207.32 -1 208 C-1.33 208.16 -1.33 208.16 -3 209 C-2.34 210.32 -1.68 211.64 -1 213 C-0.34 211.68 0.32 210.36 1 209 C1.66 208.67 2.32 208.34 3 208 C2.67 207.34 2.34 206.68 2 206 C1.01 206 0.02 206 -1 206 Z M-6 211 C-5 213 -5 213 -5 213 Z M48 211 C47.5 211.33 47.5 211.33 45 213 C45 213.99 45 214.98 45 216 C45.66 216 46.32 216 47 216 C47 215.34 47 214.68 47 214 C47.66 214 48.32 214 49 214 C49 215.98 49 217.96 49 220 C51 218 51 218 50 212 C49.34 211.67 48.68 211.34 48 211 Z M55 215 C55.33 215.66 55.66 216.32 56 217 C56.33 216.34 56.66 215.68 57 215 C56.34 215 55.68 215 55 215 Z M45 217 C46 219 46 219 46 219 Z M56 219 C56 219.66 56 220.32 56 221 C54.02 221.66 52.04 222.32 50 223 C49.01 223.99 48.02 224.98 47 226 C51.39 226 54.25 224.15 58 222 C58 221.01 58 220.02 58 219 C57.34 219 56.68 219 56 219 Z M20 220 C21 223 21 223 21 223 Z M24 220 C24 220.66 24 221.32 24 222 C24.66 221.67 25.32 221.34 26 221 C25.34 220.67 24.68 220.34 24 220 Z M48 220 C49 222 49 222 49 222 Z M63 220 C62.67 220.99 62.34 221.98 62 223 C63.65 223 65.3 223 67 223 C66.67 222.01 66.34 221.02 66 220 C65.01 220 64.02 220 63 220 Z M15 222 C15.99 223.65 16.98 225.3 18 227 C18.33 225.68 18.66 224.36 19 223 C17.68 222.67 16.36 222.34 15 222 Z M14 223 C15 227 15 227 15 227 Z M44 224 C44 224.66 44 225.32 44 226 C44.66 226 45.32 226 46 226 C46 225.34 46 224.68 46 224 C45.34 224 44.68 224 44 224 Z M20 225 C21 228 21 228 21 228 Z M49 227 C48.67 227.99 48.34 228.98 48 230 C49.32 230 50.64 230 52 230 C52 229.34 52 228.68 52 228 C51.01 227.67 50.02 227.34 49 227 Z M24 228 C24.33 231.3 24.66 234.6 25 238 C25.33 238 25.66 238 26 238 C26 234.7 26 231.4 26 228 C25.34 228 24.68 228 24 228 Z M46 229 C46 232 46 232 46 232 Z M16 231 C15.67 231.66 15.34 232.32 15 233 C15.66 233 16.32 233 17 233 C16.67 232.34 16.34 231.68 16 231 Z M54 231 C54.66 231.33 54.66 231.33 58 233 C58 233.66 58 234.32 58 235 C56.68 235.33 55.36 235.66 54 236 C58 238 58 238 64 237 C63 232 63 232 61 231 C58.69 231 56.38 231 54 231 Z M48 232 C48.33 232.99 48.66 233.98 49 235 C49.66 234.34 50.32 233.68 51 233 C50.01 232.67 49.02 232.34 48 232 Z M28 234 C28 235.98 28 237.96 28 240 C28.99 240 29.98 240 31 240 C32 236 32 236 31 233 C29 233 29 233 28 234 Z M38 234 C39 236 39 236 39 236 Z M12 236 C11.67 236.99 11.34 237.98 11 239 C11.99 238.67 12.98 238.34 14 238 C14 237.34 14 236.68 14 236 C13.34 236 12.68 236 12 236 Z M39 236 C43 237 43 237 43 237 Z M7 238 C8 240 8 240 8 240 Z M45 238 C44.67 240.31 44.34 242.62 44 245 C45.32 245.33 46.64 245.66 48 246 C49 242 49 242 47 239 C46.34 238.67 45.68 238.34 45 238 Z M48 238 C48.99 239.32 49.98 240.64 51 242 C51 241.01 51 240.02 51 239 C50.01 238.67 49.02 238.34 48 238 Z M28 243 C29 245 29 245 29 245 Z M31 244 C31 244.33 31 244.66 31 245 C33.31 245 35.62 245 38 245 C38 244.67 38 244.34 38 244 C35.69 244 33.38 244 31 244 Z M24 247 C25 249 25 249 25 249 Z M29 247 C30 251 30 251 30 251 Z M38 245 C38 245.66 38 246.32 38 247 C36.68 247.33 35.36 247.66 34 248 C34 248.33 34 248.66 34 249 C35.65 249 37.3 249 39 249 C38.67 247.68 38.34 246.36 38 245 Z M19 252 C20 254 20 254 20 254 Z M24 252 C23 255 23 255 23 260 C23.99 260 24.98 260 26 260 C25.67 257.36 25.34 254.72 25 252 C24.67 252 24.34 252 24 252 Z M21 253 C20.67 255.31 20.34 257.62 20 260 C20.66 260 21.32 260 22 260 C22 257.69 22 255.38 22 253 C21.67 253 21.34 253 21 253 Z M30 251 C30 251.66 30 252.32 30 253 C29.01 253.33 28.02 253.66 27 254 C27.99 254.99 28.98 255.98 30 257 C30.66 255.68 31.32 254.36 32 253 C31.34 252.34 30.68 251.68 30 251 Z M19 255 C20 257 20 257 20 257 Z " fill="currentColor" transform="translate(176,109)"/>
<path d="M0 0 C5.55 5.55 6.65 10.4 6 18 C4.24 23.8 2.25 29.38 0 35 C0.99 35 1.98 35 3 35 C2.67 36.65 2.34 38.3 2 40 C-4 41 -4 41 -9 39 C-8.67 37.68 -8.34 36.36 -8 35 C-7.34 35 -6.68 35 -6 35 C-6.95 33.25 -7.9 31.49 -8.88 29.69 C-12.81 21.78 -15.9 13.47 -12 5 C-6.52 -1.3 -6.52 -1.3 0 0 Z M-7 3 C-5.68 3.33 -4.36 3.66 -3 4 C0.8 5.9 1.04 10.17 2 14 C1.54 18.7 0.74 23.33 0 28 C4.02 23.98 4.38 17.48 5 12 C3.25 3.83 3.25 3.83 -1 1 C-5 1 -5 1 -7 3 Z M-12 9 C-11 12 -11 12 -11 12 Z M-7 13 C-6 16 -6 16 -6 16 Z M-12 14 C-11 17 -11 17 -11 17 Z M-6 20 C-5 22 -5 22 -5 22 Z M-1 28 C0 30 0 30 0 30 Z M-5 31 C-4 33 -4 33 -4 33 Z M-2 31 C-1 33 -1 33 -1 33 Z M-4 34 C-4.33 34.66 -4.66 35.32 -5 36 C-5.99 36 -6.98 36 -8 36 C-7.67 36.99 -7.34 37.98 -7 39 C-5.51 38.83 -5.51 38.83 2 38 C2 37.34 2 36.68 2 36 C0.68 36 -0.64 36 -2 36 C-2 35.34 -2 34.68 -2 34 C-2.66 34 -3.32 34 -4 34 Z " fill="currentColor" transform="translate(161,219)"/>
</svg>
