<?xml version="1.0" encoding="UTF-8"?>
<!-- Generator: visioncortex VTracer 0.6.12 -->
<svg version="1.1" xmlns="http://www.w3.org/2000/svg" width="360" height="359">
<path d="M0 0 C1.6 0.4 3.2 0.8 4.9 1.2 C13.1 3.4 21.1 5.8 29 9 C29.7 9.3 30.4 9.5 31.1 9.8 C45.5 15.7 59.6 25.4 71.2 35.6 C74 38 74 38 77 39 C80 42.4 80 42.4 80 45 C80.6 45.2 81.1 45.5 81.7 45.8 C84.5 47.3 86.7 48.8 89 51 C89.4 52.7 89.7 54.3 90 56 C91.3 56.7 92.7 57.3 94 58 C96.3 60.4 98.2 63.2 100.1 65.9 C100.7 66.7 101.3 67.5 101.9 68.4 C107.8 76.8 112.6 85.7 117 95 C117.3 95.7 117.6 96.3 118 97 C121.3 104.1 123.8 111.1 125.5 118.8 C126 121 126 121 127 122 C138.1 166.2 133 212.9 111 253 C108.8 256.5 106.5 259.7 104 263 C102.8 264.7 101.7 266.3 100.6 268 C95.6 275.1 90.3 282 84 288 C81.8 290.3 79.5 292.5 77.3 294.8 C69.2 302.5 59.6 308.7 50.2 314.8 C49.5 315.3 48.8 315.7 48.1 316.2 C43.8 319 39.7 321.1 35 323 C34.2 323.5 33.5 324 32.7 324.5 C-0.9 343.7 -49.7 342.7 -85.8 333 C-103.5 327.9 -119.4 320.1 -135 310.2 C-136.7 309.2 -138.4 308.2 -140.1 307.3 C-140.7 306.9 -141.3 306.4 -142 306 C-142 305.3 -142 304.7 -142 304 C-142.6 303.8 -143.1 303.5 -143.7 303.3 C-146.5 301.7 -148.6 299.8 -150.9 297.7 C-151.8 296.9 -152.6 296.2 -153.5 295.4 C-167.8 281.9 -180.9 267.6 -190 250 C-190.7 248.6 -191.5 247.3 -192.2 245.9 C-193 244.4 -193.8 242.9 -194.6 241.4 C-195 240.7 -195.4 239.9 -195.8 239.2 C-216.4 200.5 -215.9 152.2 -203.3 111.1 C-197.6 93 -188.5 77 -177 62 C-176.5 61.3 -176 60.6 -175.4 59.9 C-165.9 47.3 -154.2 35.7 -141 27 C-140.6 26.7 -140.6 26.7 -138.8 25.3 C-125.9 15.7 -111.1 9.1 -96 4 C-95.3 3.8 -94.6 3.5 -93.9 3.3 C-65 -6.8 -29.6 -8.2 0 0 Z M-83 3 C-83.8 3.2 -84.7 3.5 -85.6 3.7 C-95.1 6.4 -104.2 9.6 -113 14 C-114 14.5 -114.9 14.9 -115.9 15.4 C-131.1 22.7 -144.8 32.4 -157 44 C-157.9 44.8 -158.8 45.7 -159.7 46.5 C-166.9 53.5 -173 61 -179 69 C-179.6 69.8 -180.1 70.5 -180.7 71.3 C-189 83 -194.6 96.8 -200 110 C-200.2 110.6 -200.2 110.6 -201.4 113.4 C-211.2 139.7 -212.5 171.8 -206 199 C-205.8 199.8 -205.6 200.6 -205.4 201.4 C-202.4 214.1 -198.6 226.2 -193 238 C-192.7 238.5 -192.7 238.5 -191.5 241.3 C-188.2 248.2 -184.6 254.4 -179.9 260.5 C-178.1 262.8 -176.5 265.2 -174.9 267.8 C-172.6 271.4 -169.9 274.3 -166.8 277.3 C-165 279 -163.4 280.8 -161.8 282.8 C-154 291.8 -144.8 299.2 -135 306 C-134.6 306.3 -134.6 306.3 -132.7 307.7 C-120.3 316.9 -106.5 322.9 -92 328 C-91.2 328.3 -90.5 328.6 -89.7 329 C-72.1 335.7 -51.7 337.2 -33 337 C-32.6 337 -32.6 337 -30.5 337 C0.4 336.4 32.4 325.8 57 307 C57.4 306.7 57.4 306.7 59.3 305.2 C61.6 303.5 63.8 301.8 66 300 C66.4 299.7 66.4 299.7 68.5 298 C80.3 288.7 90.6 278.4 99 266 C99.2 265.7 99.2 265.7 100.2 264.3 C111.1 248.1 119.2 230.9 124 212 C124.3 210.9 124.7 209.7 125 208.6 C129.1 193.9 129.3 178.9 129.4 163.8 C129.4 162.9 129.5 162.1 129.5 161.2 C129.9 130 118 95 98.8 70.3 C97.3 68.4 95.9 66.6 94.5 64.7 C93.7 63.5 92.8 62.3 91.9 61.1 C91.7 60.8 91.7 60.8 90.6 59.4 C88.3 56.3 86.4 54.6 83 53 C82.9 52.7 82.9 52.7 82.1 51.2 C80.1 47.3 76.7 44.6 73.6 41.7 C72.8 41 72.1 40.3 71.4 39.6 C66 34.7 60.4 30.7 54 27 C52.5 26 51 25 49.6 24 C25.9 8.3 -2.2 -0.9 -30.6 -1.2 C-31 -1.2 -31 -1.2 -33 -1.3 C-50 -1.4 -66.5 -1.5 -83 3 Z " fill="#000000" transform="translate(220,12)"/>
<path d="M0 0 C0.7 0.2 1.5 0.4 2.3 0.6 C13.1 3.5 23 7.9 33 13 C33.9 13.5 34.8 13.9 35.7 14.4 C44.2 18.9 51.8 24.7 59.3 30.6 C59.9 31.1 60.5 31.5 61.1 32 C64.6 34.8 67.8 37.8 71 41 C71.9 41.9 72.8 42.8 73.8 43.7 C74.7 44.6 75.6 45.5 76.6 46.4 C77.5 47.3 78.4 48.2 79.4 49.2 C82 52 84 54.8 86 58 C87.3 59.8 88.6 61.5 89.9 63.3 C93.4 68 96.3 72.8 99 78 C99.4 78.7 99.8 79.4 100.2 80.2 C104 87.6 107.1 95.3 110.2 103 C111 104.9 111.8 106.7 112.6 108.6 C114 111.9 115.1 115.2 116.1 118.6 C116.2 119.2 116.2 119.2 117 121.9 C119.9 133.3 120.3 144.5 120.3 156.2 C120.3 158.8 120.3 161.4 120.3 164 C120.3 180.1 118.7 194.6 113.4 210 C113.2 210.6 112.9 211.3 112.7 212 C109.2 222.1 105.3 231.7 100 241 C99.4 242 98.9 243 98.3 244 C92.2 254.3 85.4 263.8 77.1 272.6 C76.5 273.2 75.9 273.9 75.2 274.6 C71 279 66.8 283.2 62 287 C61.5 287.4 61 287.8 60.5 288.2 C56.4 291.5 52.2 294.8 48 298 C47.2 298.7 46.3 299.3 45.4 300 C26.7 313.8 3.6 320.7 -19 325 C-19.9 325.2 -20.8 325.4 -21.8 325.5 C-25.7 326.1 -29.6 326.2 -33.5 326.2 C-34.3 326.2 -35.2 326.2 -36 326.2 C-37.7 326.2 -39.5 326.2 -41.2 326.2 C-43.8 326.2 -46.4 326.3 -48.9 326.3 C-63 326.4 -76.4 324.6 -90 320.8 C-90.7 320.5 -91.5 320.3 -92.2 320.1 C-123.9 310.8 -152.6 290.9 -173 265 C-174 263.8 -175.1 262.6 -176.1 261.4 C-188.4 247.1 -200 227.3 -204.3 208.8 C-204.9 206.4 -205.7 204.1 -206.5 201.8 C-208.1 197 -208.9 192.2 -209.6 187.2 C-209.7 186.3 -209.9 185.4 -210 184.5 C-212.6 166 -212.6 148.8 -209.4 130.4 C-209 128.2 -208.7 126 -208.3 123.7 C-206.3 110.8 -201.6 99.1 -196.1 87.3 C-195 85 -195 85 -194.1 82.5 C-192.9 79.8 -191.5 77.6 -189.8 75.2 C-187.5 72.1 -185.3 68.9 -183.1 65.6 C-175.5 54.2 -167.2 43.2 -156 35 C-155.3 35 -154.7 35 -154 35 C-153.7 34 -153.3 33 -153 32 C-151.1 30.4 -149.2 28.9 -147.2 27.5 C-146.2 26.7 -145.2 26 -144.1 25.2 C-141.4 23.3 -138.8 21.6 -136 20 C-134.3 18.9 -132.6 17.8 -130.9 16.7 C-116.1 7.3 -100.3 1.1 -83 -2 C-81.6 -2.3 -80.2 -2.5 -78.8 -2.8 C-52.5 -7.8 -25.9 -7.1 0 0 Z M-116 14 C-118.1 15 -120.2 16 -122.3 17.1 C-130.7 21.3 -138.3 26 -145.6 32.1 C-147.8 33.8 -150 35.4 -152.2 37.1 C-155.5 39.4 -158 42.1 -160.5 45.2 C-162 47 -162 47 -164.4 49.4 C-173.6 58.6 -181.3 69.4 -187 81 C-188 82.7 -189 84.3 -190 86 C-191 87.9 -192 89.7 -192.9 91.6 C-193.4 92.6 -193.9 93.5 -194.4 94.5 C-209.6 127.9 -212 166.8 -201.6 201.9 C-201.1 203.8 -200.5 205.8 -200 207.7 C-198.3 213.5 -196.3 218.9 -193.5 224.2 C-192.3 226.4 -191.2 228.6 -190.1 230.9 C-184 243.7 -184 243.7 -179.7 248.9 C-177.8 251.2 -176.1 253.7 -174.3 256.2 C-166.6 267.2 -166.6 267.2 -162 272 C-161.3 272 -160.7 272 -160 272 C-159.8 272.6 -159.5 273.1 -159.3 273.7 C-149.6 290.5 -121.9 303 -104.8 310.2 C-103 311 -103 311 -100.3 312.5 C-91.5 316.5 -81.4 318 -72 320 C-71.3 320.2 -70.6 320.3 -69.9 320.5 C-35 327.6 4.3 319.4 35 302 C37.4 300.4 39.7 298.7 42 297 C42.8 296.5 43.6 296.1 44.4 295.6 C55.3 288.9 65.2 280.2 74 271 C74.7 270.3 75.5 269.6 76.2 268.9 C78 267 78 267 78 265 C78.7 265 79.3 265 80 265 C81.5 263 82.9 261.1 84.3 259 C84.7 258.4 85.1 257.8 85.5 257.2 C86.7 255.5 87.9 253.7 89 252 C89.2 251.6 89.2 251.6 90.5 249.7 C104.8 227.4 116.9 199.9 116 173 C115.5 173.3 115.5 173.3 113 175 C112.3 173.7 111.7 172.4 111 171 C104.7 170.7 98.5 170.3 92 170 C91.7 170.7 91.3 171.3 91 172 C91 169 91 166.1 91 163 C91.7 164 92.3 165 93 166 C97.2 167.4 101.6 167.1 106 167 C106 166.3 106 165.7 106 165 C102.9 162 100.2 161.5 96 161 C95.9 158.7 95.9 158.7 97 156 C99.9 154.3 102.9 153.1 106 152 C106 151.7 106 151.3 106 151 C103.9 150.9 101.8 150.9 99.6 150.9 C98.4 150.9 97.3 150.8 96 150.8 C93 151 93 151 91 153 C89.6 150.3 89.9 148 90 145 C90.4 145.7 90.8 146.3 91.2 147 C93 149 93 149 95.5 149.4 C96.4 149.4 97.3 149.4 98.2 149.3 C99.2 149.3 100.2 149.2 101.2 149.2 C110.5 148.5 110.5 148.5 112 147 C112 149 112 151 112 153 C110.4 153.8 110.4 153.8 102 158 C102 159 102 160 102 161 C103.6 162.4 103.6 162.4 105.8 163.7 C106.4 164.1 107.1 164.6 107.9 165 C110 166 110 166 114 166 C114.3 167.7 114.7 169.3 115 171 C115.7 170.7 116.3 170.3 117 170 C117.1 163.7 117.1 157.3 117 151 C117 149.8 117 148.7 117 147.5 C116.3 128.4 110.3 107.2 101.2 90.4 C100.7 89.6 100.3 88.8 99.9 88 C96.5 81.8 92.9 75.8 89 70 C88.5 69.2 88 68.4 87.5 67.6 C84.5 63 81.3 58.9 77.7 54.9 C75.4 52.3 73.2 49.7 71 47 C69.1 47.2 69.1 47.2 67 48 C65.8 50 65.8 50 64.9 52.6 C64.5 53.6 64.2 54.5 63.8 55.5 C63.5 56.4 63.1 57.4 62.8 58.4 C62.4 59.4 62 60.4 61.6 61.4 C59 68.6 59 68.6 59 71 C55.8 69.6 55 69 53 66 C53.5 65.8 53.5 65.8 56 65 C56.8 62.3 56.8 62.3 57 59 C54.7 56 52.9 54.4 49.4 53 C47 53 47 53 45.2 54.4 C44.8 55 44.4 55.5 44 56 C40.6 54.6 39 53 37 50 C38 50.3 39 50.7 40 51 C45.1 51.4 49 50.5 53.7 48.8 C55.9 48 58.1 47.4 60.4 46.9 C64 46 64 46 66 45 C64.6 40.2 62 38 58.1 35.2 C57.5 34.8 56.9 34.3 56.3 33.9 C55.1 33 53.9 32.1 52.7 31.3 C51.2 30.1 49.6 29 48.1 27.8 C41.8 23 35.2 19.4 28 16 C26.8 15.4 25.6 14.8 24.3 14.2 C12 8.3 -0.2 4.5 -13.6 1.8 C-14.2 1.7 -14.2 1.7 -17.4 1 C-50.2 -5.7 -86.2 -1.6 -116 14 Z M54 52 C54 52.7 54 53.3 54 54 C57 56 57 56 60 56 C60.3 54.3 60.7 52.7 61 51 C57.5 49.8 57.3 49.8 54 52 Z " fill="#000000" transform="translate(227,20)"/>
<path d="M0 0 C0 2.3 0 4.6 0 7 C-1 7 -2 7 -3 7 C-3.4 6.3 -3.8 5.7 -4.2 5 C-6 3 -6 3 -8 2.7 C-10 2.7 -12 2.9 -14 3 C-14.3 4.3 -14.7 5.6 -15 7 C-14.2 7.3 -13.3 7.5 -12.4 7.8 C-11.9 8 -11.9 8 -9.1 8.9 C-8.6 9 -8.6 9 -5.8 9.9 C-3 11 -3 11 -1 13 C-0.7 17.1 -0.7 18.5 -3 22 C-6.4 23.3 -8.7 22.9 -12.1 21.9 C-15.7 20.9 -15.7 20.9 -18.5 21.9 C-19 22.2 -19.5 22.6 -20 23 C-21 22 -21 22 -21.1 18.4 C-21 17.3 -21 16.2 -21 15 C-19.7 15 -18.4 15 -17 15 C-17 15.7 -17 16.3 -17 17 C-13.2 18.8 -10.2 19.2 -6 19 C-6 18 -6 17 -6 16 C-6.8 15.7 -7.7 15.5 -8.6 15.2 C-9.7 14.8 -10.7 14.5 -11.9 14.1 C-12.4 14 -12.4 14 -15.2 13.1 C-18 12 -18 12 -20 10 C-19.9 6.2 -19.9 3.9 -17.1 1.1 C-11.7 -0.8 -5.5 -1.8 0 0 Z " fill="#000000" transform="translate(191,23)"/>
<path d="M0 0 C1.3 -0 2.7 -0 4 -0 C11.3 -0 18.1 0.4 25.2 2.2 C25.6 2.3 25.6 2.3 27.4 2.8 C47.2 7.7 66.7 15.7 81.6 30 C84.3 32.1 86.8 32.2 90.2 32.2 C90.2 32.7 90.2 32.7 90.2 34.9 C91.4 39 93 40.1 96.3 42.6 C98.8 44.8 100.4 47.4 102.2 50.2 C102.9 51.2 103.6 52.1 104.3 53.1 C114.5 67.3 122.1 83 125.9 100.1 C126.1 101 126.3 102 126.5 102.9 C126.9 104.6 127.3 106.3 127.7 108 C128 109.4 128.3 110.7 128.7 112.1 C129.4 115.3 129.4 118.4 129.4 121.7 C129.4 122.4 129.4 123.1 129.4 123.8 C129.4 125.4 129.4 126.9 129.4 128.4 C129.4 130.7 129.4 133 129.4 135.3 C129.5 146.3 128.5 156.7 125.2 167.2 C124.8 168.4 124.5 169.5 124.1 170.7 C115.7 197.3 99.3 221.2 76.2 237.2 C75.9 237.4 75.9 237.4 74.6 238.4 C60.2 248.6 46.5 255.5 29.2 259.2 C28 259.6 26.8 260 25.6 260.3 C0.6 267.2 -31.7 262.1 -54.8 251.2 C-55.4 251 -55.4 251 -58.3 249.6 C-65.7 246.1 -72.3 242.1 -78.8 237.2 C-79.6 236.7 -80.4 236.1 -81.2 235.5 C-85.4 232.5 -85.4 232.5 -86.8 231.2 C-86.8 230.6 -86.8 229.9 -86.8 229.2 C-87.4 229 -87.9 228.8 -88.5 228.5 C-93.9 225.6 -97.2 221.6 -100.9 216.8 C-102.2 215.1 -103.5 213.4 -104.9 211.9 C-118.1 196.7 -126.5 177.8 -130.8 158.2 C-131 157.5 -131.2 156.7 -131.4 155.9 C-133 148.1 -133.2 140.3 -133.1 132.3 C-133.1 130.1 -133.1 127.8 -133.2 125.6 C-133.3 107.8 -129.5 91.3 -121.8 75.2 C-121.4 74.4 -121.1 73.6 -120.7 72.8 C-114.2 59.6 -106.5 48.6 -96.1 38.2 C-95.3 37.4 -94.6 36.7 -93.8 35.9 C-88.5 30.6 -83 26.4 -76.8 22.2 C-75.8 21.5 -74.9 20.8 -73.9 20.1 C-52.3 4.7 -26 -0.2 0 0 Z M-92.6 40.7 C-93.8 42.2 -93.8 42.2 -93.8 44.2 C-94.4 44.5 -94.9 44.7 -95.5 44.9 C-104.6 50.2 -110 62.9 -114.7 71.8 C-115.2 72.9 -115.8 73.9 -116.3 75 C-131.4 104.4 -132.5 138.3 -123.1 169.6 C-120.6 176.4 -117.2 182.9 -113.8 189.3 C-113.1 190.6 -112.5 192 -111.8 193.3 C-109.7 197.7 -107.3 201.5 -104.4 205.4 C-104 205.9 -104 205.9 -102.1 208.4 C-99.8 211.2 -97.4 213.7 -94.8 216.2 C-94.2 217.1 -93.5 218 -92.8 218.9 C-90.6 221.5 -89 222.3 -85.8 223.2 C-84.8 222 -83.9 220.8 -82.9 219.6 C-82.4 219 -81.9 218.3 -81.3 217.6 C-78 212.5 -77.3 206.7 -76.3 200.8 C-75.3 194.3 -74.2 188.2 -70.7 182.5 C-68.8 179.2 -68.8 179.2 -68.8 177.2 C-68.5 177.1 -68.5 177.1 -67.2 176.6 C-64.8 175.2 -64.8 175.2 -62.3 173 C-48.6 161.3 -30.6 159.2 -13.4 158.6 C-12.6 158.6 -11.7 158.5 -10.9 158.5 C-10.1 158.5 -9.4 158.4 -8.6 158.4 C-6.8 158.2 -6.8 158.2 -5.8 157.2 C-5.7 155.7 -5.7 154.1 -5.7 152.6 C-5.7 151.7 -5.7 150.7 -5.7 149.7 C-5.7 148.8 -5.7 147.8 -5.7 146.8 C-5.7 145.8 -5.7 144.8 -5.7 143.8 C-5.7 142.8 -5.7 141.9 -5.7 140.9 C-5.7 140.5 -5.7 140.5 -5.7 138.3 C-5.8 136.2 -5.8 136.2 -6.8 135.2 C-8.7 135.1 -10.6 135.1 -12.6 135.1 C-13.6 135 -14.7 135 -15.7 135 C-20 135.3 -22.8 136.2 -25.8 139.2 C-26.2 141.2 -26.6 143.2 -26.8 145.2 C-27.5 144.9 -28.1 144.6 -28.8 144.2 C-29.1 136.7 -29.5 129.1 -29.8 121.2 C-27.8 122.2 -27.8 122.2 -26.4 124.8 C-24.8 127.2 -24.8 127.2 -21.8 128.2 C-19.2 128.3 -16.7 128.3 -14.1 128.3 C-13.4 128.3 -12.7 128.3 -12 128.3 C-10.3 128.3 -8.5 128.3 -6.8 128.2 C-5.4 125.5 -5.8 123.4 -5.9 120.4 C-5.9 119.2 -6 118 -6 116.8 C-6.1 115.5 -6.1 114.2 -6.2 112.9 C-6.2 111.7 -6.3 110.5 -6.3 109.2 C-6.6 101.2 -7.1 93.2 -7.8 85.2 C-14.2 85.1 -20.6 84.9 -26.9 84.8 C-29.1 84.7 -31.3 84.7 -33.4 84.6 C-36.5 84.5 -39.7 84.4 -42.8 84.4 C-43.7 84.3 -44.7 84.3 -45.7 84.3 C-46.2 84.3 -46.2 84.3 -48.5 84.2 C-49.2 84.2 -50 84.2 -50.9 84.2 C-52.8 84.2 -52.8 84.2 -54.8 85.2 C-56.2 92.6 -56.2 92.6 -53.8 96.2 C-52.8 96.2 -51.8 96.2 -50.8 96.2 C-50.6 97 -50.3 97.8 -50.1 98.6 C-48.7 101.5 -47.4 102.4 -44.8 104.2 C-44.8 105.2 -44.8 106.2 -44.8 107.2 C-52.7 107.2 -60.7 107.2 -68.8 107.2 C-66.8 103.2 -66.8 103.2 -64.3 100.3 C-60.5 95.6 -59.4 92.3 -59.8 86.2 C-61.5 84.5 -63.7 85 -66.1 84.9 C-69.6 85 -71.5 85.1 -74.6 86.8 C-77.1 89.6 -79.3 92.5 -81.4 95.5 C-82.8 97.2 -82.8 97.2 -85.8 98.2 C-85.8 97.5 -85.7 96.8 -85.6 96.1 C-85.5 94 -85.3 91.9 -85.1 89.8 C-84.9 87.4 -84.7 85.1 -84.5 82.7 C-84.4 81.6 -84.3 80.5 -84.2 79.3 C-84.1 78.3 -84 77.2 -83.9 76.2 C-83.8 73.3 -84.1 71 -84.8 68.2 C-82 68.6 -81 69 -79.2 71.2 C-78.7 72.1 -78.2 72.9 -77.7 73.7 C-76.2 76.2 -74.9 78.2 -72.8 80.2 C-70 80.5 -70 80.5 -66.8 80.4 C-65.7 80.4 -64.6 80.4 -63.5 80.4 C-60.8 80.2 -60.8 80.2 -59.8 79.2 C-59.6 74.5 -59.9 72.3 -63.1 68.6 C-64.9 66.9 -66.7 65.1 -68.6 63.4 C-70.8 61.2 -70.8 61.2 -71.8 58.2 C-63.2 58.2 -54.7 58.2 -45.8 58.2 C-45.8 59.2 -45.8 60.2 -45.8 61.2 C-46.1 61.4 -46.1 61.4 -47.6 61.9 C-51.9 64.5 -54.4 68.5 -55.8 73.2 C-56 76.5 -56 76.5 -55.8 79.2 C-54.2 80.8 -52.7 80.4 -50.5 80.4 C-49.6 80.4 -48.7 80.4 -47.7 80.4 C-46.7 80.4 -45.7 80.4 -44.7 80.4 C-44.2 80.4 -44.2 80.4 -41.6 80.4 C-39.4 80.4 -37.3 80.4 -35.1 80.4 C-31.8 80.4 -28.5 80.4 -25.2 80.4 C-23.1 80.4 -21 80.4 -18.9 80.4 C-18.4 80.4 -18.4 80.4 -15.9 80.4 C-15 80.4 -14.1 80.4 -13.1 80.4 C-12.3 80.4 -11.5 80.4 -10.7 80.4 C-8.8 80.2 -8.8 80.2 -7.8 79.2 C-7.7 77.8 -7.7 76.3 -7.7 74.8 C-7.7 73.9 -7.7 73 -7.7 72 C-7.7 71.5 -7.7 71.5 -7.7 68.9 C-7.7 67.9 -7.7 66.9 -7.7 65.8 C-7.7 58.9 -7.9 51.9 -8.2 44.9 C-8.3 44.1 -8.3 43.2 -8.4 42.4 C-8.7 36.5 -8.7 36.5 -9.8 34.2 C-13 33.7 -15.7 33.5 -18.8 34.2 C-23.6 38 -27 42.1 -27.8 48.2 C-29.1 48.2 -30.5 48.2 -31.8 48.2 C-31.8 44.2 -31.9 40.1 -31.9 36 C-31.9 34.8 -31.9 33.7 -31.9 32.5 C-31.9 31.4 -31.9 30.3 -31.9 29.1 C-31.9 28.1 -31.9 27.1 -31.9 26 C-31.8 23.6 -31.5 21.6 -30.8 19.2 C-30.2 19.2 -29.5 19.2 -28.8 19.2 C-27 21.5 -25.4 23.8 -23.8 26.1 C-21.5 28.5 -20 29.3 -16.8 30.2 C-14.5 30.3 -12.1 30.3 -9.8 30.2 C-9.2 26.1 -8.9 22.7 -11.2 19 C-14.1 15.7 -17.1 12.7 -20.8 10.2 C-21.8 10.2 -22.8 10.2 -23.8 10.2 C-23.8 9.3 -23.8 8.3 -23.8 7.2 C-23.4 7.3 -23.4 7.3 -21.4 7.8 C-18.8 8.2 -18.8 8.2 -16.8 7.2 C-13 7 -9.2 7.1 -5.4 7.1 C-4.8 7.1 -4.8 7.1 -2.2 7 C-1.1 7 -0.1 7 0.9 7 C1.9 7 2.8 7 3.8 7 C6.2 7.2 6.2 7.2 9.2 9.2 C8.3 9.6 7.4 10 6.5 10.4 C1.7 13 -1.8 16.2 -3.8 21.2 C-4 23.6 -4 23.6 -3.9 26 C-3.9 26.8 -3.9 27.6 -3.9 28.4 C-3.9 29 -3.8 29.6 -3.8 30.2 C3.2 31.2 7 29 12.9 25.2 C15.2 23.2 15.9 21.9 17.2 19.2 C18.2 18.9 19.2 18.6 20.2 18.2 C19.9 27.8 19.5 37.4 19.2 47.2 C18.5 47.2 17.9 47.2 17.2 47.2 C17 46.8 17 46.8 15.9 44.5 C13 39 10 36.8 4.2 34.8 C1.8 34.1 -0.3 34 -2.8 34.2 C-4.3 35.8 -3.9 37.1 -3.9 39.3 C-3.9 39.7 -3.9 39.7 -4 41.9 C-3.9 42.8 -3.9 43.7 -3.9 44.7 C-3.9 45.2 -3.9 45.2 -3.9 47.6 C-3.9 49.6 -3.9 51.6 -3.9 53.6 C-3.9 56.7 -3.9 59.8 -3.9 62.8 C-3.9 64.8 -3.9 66.7 -3.9 68.7 C-3.9 69.1 -3.9 69.1 -4 71.5 C-3.9 72.4 -3.9 73.2 -3.9 74.1 C-3.9 74.8 -3.9 75.6 -3.9 76.4 C-3.8 78.2 -3.8 78.2 -2.8 80.2 C16 80.2 34.8 80.2 54.2 80.2 C54.2 74 54.1 72.3 51.2 67.2 C50.5 67.2 49.9 67.2 49.2 67.2 C49.2 66.6 49.2 65.9 49.2 65.2 C48.2 64.6 47.2 63.9 46.2 63.2 C45.2 62.6 44.2 61.9 43.2 61.2 C43.2 60.6 43.2 59.9 43.2 59.2 C51.1 59.2 59 59.2 67.2 59.2 C66.1 63.5 64.9 64.9 62.2 68.2 C58 74.2 58 74.2 58.6 78 C58.7 78.3 58.7 78.3 59.2 80.2 C63 80.8 66.4 81 70.2 80.2 C74.4 76.9 77.2 72.7 80.2 68.2 C81.2 67.9 82.2 67.6 83.2 67.2 C83.1 68.2 83 69.2 83 70.2 C82.3 79.6 82.1 88.9 82.2 98.2 C81.6 97.3 81.1 96.4 80.5 95.5 C77.2 90.8 73.3 87.8 68.2 85.2 C64.8 84.7 61.6 84.8 58.2 85.2 C58.9 93.2 63.5 98.1 69.2 103.2 C69.8 103.2 70.5 103.2 71.2 103.2 C70.9 104.6 70.5 105.9 70.2 107.2 C69 107.2 67.8 107.2 66.6 107.2 C58.4 107.2 50.3 107.2 42.2 108.2 C43.2 105.2 43.2 105.2 45.4 104 C50.2 101 53.7 95.8 55.2 90.2 C54.8 87.4 54.8 87.4 54.2 85.2 C47.5 84.4 41 84.1 34.3 84.1 C33.3 84.1 32.3 84.1 31.3 84.1 C29.2 84.1 27.1 84.1 25 84.1 C21.7 84.1 18.5 84.1 15.3 84.1 C13.2 84.1 11.2 84.1 9.1 84.1 C8.2 84.1 7.2 84.1 6.2 84.1 C5.3 84.1 4.4 84.1 3.5 84.1 C2.7 84.1 1.9 84.1 1.1 84.1 C-0.8 84.2 -0.8 84.2 -2.8 85.2 C-3 99.6 -2.4 113.9 -1.8 128.2 C2.1 128.3 6.1 128.3 10.1 128.4 C11.2 128.4 12.3 128.4 13.5 128.4 C14.6 128.4 15.6 128.4 16.7 128.4 C17.7 128.5 18.7 128.5 19.8 128.5 C22.2 128.2 22.2 128.2 24.2 126.2 C24.8 123.6 24.8 123.6 25.2 121.2 C25.8 121.2 26.5 121.2 27.2 121.2 C27.2 128.8 27.2 136.4 27.2 144.2 C26.5 143.9 25.9 143.6 25.2 143.2 C24.9 142.3 24.7 141.3 24.4 140.3 C23.2 137.2 23.2 137.2 20.7 136.1 C16.5 135.1 12.7 134.9 8.4 134.9 C7.7 134.9 6.9 134.9 6.1 134.9 C3.9 134.9 3.9 134.9 0.2 135.2 C-2.2 138.9 -2.1 140.8 -2.1 145.1 C-2.1 146.3 -2.1 147.6 -2.1 148.8 C-1.8 152.2 -1.6 154.4 0.2 157.2 C2.5 158.1 2.5 158.1 5.4 158.4 C6.5 158.6 7.5 158.7 8.6 158.9 C9.2 158.9 9.2 158.9 12.2 159.2 C14.7 159.6 17.1 159.9 19.6 160.2 C23.3 160.7 27 161.2 30.6 161.7 C45.2 163.7 59.9 169 69.4 180.7 C73.4 186.5 77.2 193.3 77.8 200.4 C78.2 204.7 79.5 208 81.2 211.9 C82.4 214.6 83.3 217.4 84.2 220.2 C84.5 220.9 84.8 221.6 85.2 222.2 C99 216.6 108.7 195.7 114.2 182.8 C128.5 147.7 129 113.7 114.2 78.6 C112.3 74.2 109.8 70.3 107.2 66.2 C106.4 64.9 105.6 63.6 104.8 62.3 C101.9 57.7 98.6 53.5 95.2 49.2 C94.5 48.3 93.8 47.4 93.1 46.4 C91 44 88.7 42.2 86.2 40.2 C84.5 38.6 82.9 36.9 81.2 35.2 C65.5 20.2 43.2 11 22.2 6.2 C21.4 6.1 20.6 5.9 19.8 5.7 C-19.6 -2.4 -64.4 11.9 -92.6 40.7 Z M-0.8 164.2 C-0.9 167 -0.9 169.8 -0.9 172.6 C-1 173.4 -1 174.2 -1 175 C-1 177.1 -0.9 179.2 -0.8 181.2 C1.9 184 3.6 183.5 7.4 183.5 C8.7 183.5 9.9 183.5 11.2 183.5 C12.5 183.5 13.8 183.5 15.2 183.5 C15.8 183.5 15.8 183.5 19.2 183.5 C19.8 183.5 19.8 183.5 22.9 183.5 C23.5 183.5 23.5 183.5 26.4 183.5 C29.2 183.2 29.2 183.2 31.2 181.2 C31.4 178.4 31.4 178.4 31.3 175.1 C31.3 174 31.3 172.9 31.3 171.8 C31.2 171 31.2 170.1 31.2 169.2 C20.4 165.5 10.5 164.5 -0.8 164.2 Z M-33.8 167.2 C-35 170.7 -34.7 172.9 -34.4 176.4 C-34.3 177.5 -34.2 178.6 -34.1 179.7 C-34 180.6 -33.9 181.4 -33.8 182.2 C-30.6 183.3 -28.2 183.4 -24.9 183.4 C-24.3 183.4 -24.3 183.4 -21.4 183.4 C-20.1 183.4 -18.9 183.4 -17.7 183.4 C-16.5 183.4 -15.3 183.4 -14 183.4 C-12.8 183.4 -11.7 183.4 -10.5 183.4 C-10 183.4 -10 183.4 -7.3 183.4 C-4.8 183.2 -4.8 183.2 -3.8 182.2 C-3.9 179.4 -4.1 176.5 -4.2 173.7 C-4.3 173.3 -4.3 173.3 -4.4 171.2 C-4.5 169.2 -4.7 167.2 -4.8 165.2 C-24.8 164.9 -24.8 164.9 -33.8 167.2 Z M-64.8 180.2 C-65.1 181.2 -65.5 182.2 -65.8 183.2 C-61.7 183.3 -57.6 183.4 -53.4 183.4 C-52.3 183.5 -51.1 183.5 -49.9 183.5 C-48.8 183.5 -47.6 183.5 -46.5 183.5 C-45.4 183.6 -44.4 183.6 -43.3 183.6 C-42.9 183.5 -42.9 183.5 -40.8 183.2 C-38.6 180 -38.6 178.9 -38.6 175.1 C-38.6 174.2 -38.6 173.3 -38.6 172.4 C-38.8 170.2 -38.8 170.2 -39.8 169.2 C-49.2 168 -58.3 173.9 -64.8 180.2 Z M36.2 169.2 C36 171.2 35.8 173.2 35.6 175.1 C35.5 176.2 35.4 177.3 35.3 178.4 C35.2 181.2 35.2 181.2 36.2 183.2 C44.8 183.2 53.3 183.2 62.2 183.2 C62.2 180.2 62.2 180.2 60.4 178.4 C53.4 173.7 44.7 169.2 36.2 169.2 Z M-33.8 187.2 C-33.9 189.7 -33.9 192.2 -33.9 194.6 C-34 195.3 -34 196 -34 196.7 C-34 198.6 -33.9 200.4 -33.8 202.2 C-31.8 204.2 -31.8 204.2 -29.2 204.5 C-28.2 204.5 -27.1 204.5 -26 204.5 C-25.4 204.5 -25.4 204.5 -22.5 204.5 C-21.3 204.5 -20.1 204.5 -18.8 204.4 C-18.2 204.4 -18.2 204.4 -15.1 204.4 C-6.1 204.4 -6.1 204.4 -3.8 203.2 C-3.8 201 -3.7 198.7 -3.7 196.4 C-3.7 195.1 -3.6 193.8 -3.6 192.5 C-3.8 189.2 -3.8 189.2 -5.8 187.2 C-8.6 187 -8.6 187 -12.1 187.1 C-13.4 187.1 -14.6 187.1 -15.9 187.1 C-16.6 187.1 -16.6 187.1 -19.9 187.1 C-21.3 187.1 -22.6 187.1 -24 187.2 C-27.2 187.2 -30.5 187.2 -33.8 187.2 Z M0.2 187.2 C0.2 192.2 0.2 197.2 0.2 202.2 C3.5 204.5 4.5 204.5 8.3 204.5 C8.8 204.5 8.8 204.5 11.4 204.5 C12.4 204.5 13.5 204.5 14.6 204.4 C15.6 204.4 16.6 204.4 17.7 204.4 C22.4 204.4 26.6 204.3 31.2 203.2 C32.2 198.2 32.2 198.2 31.2 187.2 C21 187.2 10.7 187.2 0.2 187.2 Z M36.2 188.2 C36.2 190.6 36.1 192.9 36.1 195.2 C36.1 196.5 36.1 197.8 36.1 199.1 C36.2 202.2 36.2 202.2 37.2 203.2 C39.6 203.5 42 203.7 44.5 203.8 C44.9 203.8 44.9 203.8 46.7 203.9 C55.6 204.4 64.3 204.6 73.2 203.2 C73.5 197.2 72.6 193.4 69 188.6 C66.4 186.6 64.4 186.9 61.1 186.9 C59.9 186.9 58.7 186.9 57.5 186.9 C56.3 187 55 187 53.8 187 C52.5 187 51.3 187 50 187 C40 187.1 40 187.1 36.2 188.2 Z M-68.8 188.2 C-72.2 197.2 -72.2 197.2 -72 200.8 C-71.9 201.9 -71.9 203.1 -71.8 204.2 C-67.5 206.4 -61.7 205.2 -57 205 C-54.8 204.9 -52.7 204.9 -50.6 204.8 C-49.2 204.8 -47.9 204.7 -46.5 204.7 C-45.3 204.7 -44 204.6 -42.8 204.6 C-39.8 204.2 -39.8 204.2 -37.8 202.2 C-38.1 197.6 -38.5 193 -38.8 188.2 C-48.7 188.2 -58.6 188.2 -68.8 188.2 Z M11.2 207.2 C11.2 208.6 11.2 209.9 11.2 211.2 C11.7 211.7 11.7 211.7 14.1 213.7 C17.5 216.5 17.8 217.1 18.2 221.2 C17.4 226.2 16.2 230.2 12.7 233.8 C7.4 236.9 2.2 236.7 -3.8 236.2 C-8.5 234.6 -11.2 232.5 -13.8 228.2 C-15.6 222.5 -14.1 218.8 -11.7 213.5 C-10.8 211.2 -10.8 211.2 -10.8 208.2 C-30.6 208.6 -50.4 208.9 -70.8 209.2 C-71.8 212.2 -71.8 212.2 -70.9 215.1 C-68.2 219.2 -65 220.9 -60.8 223.2 C-58.8 224.5 -56.8 225.9 -54.8 227.2 C-54.8 227.6 -54.8 227.9 -54.8 228.2 C-57.8 228.3 -60.9 228.3 -63.9 228.3 C-64.7 228.3 -65.6 228.3 -66.4 228.3 C-71.3 228.4 -76 228.1 -80.8 227.2 C-80.8 228.2 -80.8 229.2 -80.8 230.2 C-77.8 233 -74.2 235 -70.8 237.2 C-69.8 237.9 -68.8 238.6 -67.8 239.3 C-46.8 252.8 -21.7 258.6 3.2 258.2 C4.5 258.2 5.7 258.2 7 258.2 C16.1 257.8 24.5 255.7 33.2 253.2 C34 253 34.8 252.8 35.6 252.6 C48.7 248.8 61.1 243.1 72.4 235.4 C73.1 234.9 73.8 234.4 74.5 234 C76.4 232.6 76.4 232.6 79.2 230.2 C79.2 229.3 79.2 228.3 79.2 227.2 C71.6 227.2 64 227.2 56.2 227.2 C55.9 226.6 55.5 225.9 55.2 225.2 C56 225 56.9 224.8 57.8 224.6 C64.8 221.9 69.3 217.8 73.2 211.2 C72.9 210.3 72.5 209.3 72.2 208.2 C69 207.2 66.8 207.1 63.5 207.1 C62.9 207.1 62.9 207.1 60 207.1 C58.8 207.1 57.5 207.1 56.2 207.2 C54.9 207.2 53.6 207.2 52.3 207.2 C48.9 207.2 45.5 207.2 42.1 207.2 C38.6 207.2 35.1 207.2 31.7 207.2 C24.8 207.2 18 207.2 11.2 207.2 Z M-7.8 215.2 C-8.5 215.7 -9.1 216.1 -9.8 216.6 C-10.8 218.2 -10.8 218.2 -10.8 221.6 C-9.6 226.1 -8.1 227.9 -4.8 231.2 C-1.3 233 2.4 232.7 6.2 232.2 C11.8 229.3 11.8 229.3 13.2 225.2 C14 218.2 14 218.2 11.9 215.7 C5.1 209.9 -0.7 209.6 -7.8 215.2 Z " fill="#000000" transform="translate(183.8125,48.75)"/>
<path d="M0 0 C8.1 0.7 15.9 3.1 23 7 C23 8 23 9 23 10 C21 11.7 21 11.7 19 13 C18.7 12 18.3 11 18 10 C17 9.8 17 9.8 12 9 C11.3 10 11.3 10 8 15 C8.3 15.6 8.6 16.1 8.9 16.7 C10.1 19.3 10.9 21.2 11 24 C9.2 26.3 9.2 26.3 7 28 C6.3 28 5.7 28 5 28 C5.2 27.2 5.5 26.3 5.7 25.5 C6 21.6 5.4 19.7 3.9 16.2 C2.9 13.9 2.2 11.6 1.4 9.2 C1.1 8.5 0.9 7.8 0.6 7.1 C0 5.1 -0.6 3.1 -1 1 C-0.7 0.7 -0.3 0.3 0 0 Z M4 6 C4.3 7.3 4.7 8.6 5 10 C6.3 9.7 7.6 9.3 9 9 C8.7 8 8.3 7 8 6 C6.7 6 5.4 6 4 6 Z " fill="#000000" transform="translate(68,67)"/>
<path d="M0 0 C3 1 3 1 5 5 C10.6 5 16.2 5 22 5 C22.3 6.3 22.7 7.6 23 9 C22.2 9.6 21.4 10.3 20.6 10.9 C19.6 11.7 18.6 12.5 17.5 13.4 C16.5 14.2 15.5 15 14.4 15.8 C13.6 16.6 12.8 17.3 12 18 C12 18.7 12 19.3 12 20 C15.8 20.1 19.3 19.9 23 19 C23 22 23 24.9 23 28 C22 27.7 21 27.3 20 27 C20 26.3 20 25.7 20 25 C15 25 10.1 25 5 25 C4.7 26.3 4.3 27.6 4 29 C3 29 2 29 1 29 C0.5 25.5 0.3 23 2.4 20.1 C4.2 18.3 6.1 16.6 8 15 C8.8 14.4 9.5 13.7 10.3 13.1 C12 12 12 12 14 12 C14 11 14 10 14 9 C12.8 9 11.6 9 10.4 9.1 C6.8 9.1 3.5 8.7 0 8 C0 5.4 0 2.7 0 0 Z " fill="#000000" transform="translate(23,165)"/>
<path d="M0 0 C3.2 1.4 5.3 3.1 7.8 5.6 C8.1 5.9 8.1 5.9 9.6 7.5 C10.1 8 10.5 8.5 11 9 C8.8 9.6 6.8 10 4.6 10.2 C1 11.3 -0.6 13.3 -3 16 C-3.6 16.7 -4.2 17.3 -4.8 18 C-6.3 20.5 -6.2 22.2 -6 25 C-10.1 23.4 -13.2 20.4 -16 17 C-16 16.3 -16 15.7 -16 15 C-15 15 -14.1 15 -13.1 15.1 C-8 14.4 -5.2 10.9 -1.7 7.4 C0.2 4.7 0.4 3.3 0 0 Z " fill="#000000" transform="translate(83,270)"/>
<path d="M0 0 C-0.3 2 -0.7 4 -1 6 C-0.3 6.3 0.3 6.7 1 7 C1 7.7 1 8.3 1 9 C1.7 9 2.3 9 3 9 C3 9.7 3 10.3 3 11 C3.7 11 4.3 11 5 11 C5.2 11.4 5.2 11.4 6.2 13.4 C8 16 8 16 11.2 16.8 C11.7 16.8 11.7 16.8 14 17 C11.2 20 8.8 22.4 5 24 C5 23.3 5 22.6 4.9 21.9 C3.7 18.1 1.6 16.3 -1.3 13.6 C-3 12 -3 12 -5 9 C-6.3 9 -7.6 9 -9 9 C-7.5 5.2 -4.4 0 0 0 Z " fill="#000000" transform="translate(285,271)"/>
<path d="M0 0 C4.1 -0.3 8 -0.5 12 0 C15.5 3.2 15.9 5.2 16.6 9.9 C16.3 14.7 14.1 18.4 11 22 C7.4 24.2 4.2 24.3 0 24 C-1 23 -1 23 -1.1 19.9 C-1 19 -1 18 -1 17 C-0 16.7 1 16.3 2 16 C2.7 17.3 3.3 18.6 4 20 C5.3 20 6.6 20 8 20 C9.6 13.9 10.2 8.4 10 2 C8.3 2.3 6.7 2.7 5 3 C4.7 4.3 4.3 5.6 4 7 C5.3 7.7 6.6 8.3 8 9 C7.3 9.7 6.7 10.3 6 11 C3.8 11 3.8 11 1.4 10.6 C1 10.6 1 10.6 -1.1 10.3 C-1.4 10.2 -1.4 10.2 -3 10 C-3 6.1 -1.6 3.5 0 0 Z " fill="#000000" transform="translate(178,314)"/>
</svg>
