<?xml version="1.0" encoding="UTF-8"?>
<!-- Generator: visioncortex VTracer 0.6.12 -->
<svg version="1.1" xmlns="http://www.w3.org/2000/svg" width="359" height="360">
<path d="M0 0 C1.1 -0 2.2 -0 3.4 -0 C14.9 0 26 0.6 37.2 3.3 C38.2 3.5 39.1 3.8 40.1 4 C60.2 8.8 79.4 16.3 96.6 28.1 C97.4 28.7 98.3 29.2 99.2 29.8 C107.5 35.3 114.7 42 121.6 49.1 C122.4 50 123.2 50.8 124.1 51.6 C124.9 52.5 125.7 53.3 126.6 54.1 C127.2 54.7 127.8 55.2 128.4 55.8 C133.9 61.1 138.3 66.9 142.6 73.1 C142.9 73.6 142.9 73.6 144.5 76 C146.9 79.6 149.1 83.4 151.2 87.2 C151.6 87.9 152 88.6 152.4 89.3 C152.8 90 153.1 90.6 153.5 91.3 C153.7 91.7 153.7 91.7 154.6 93.2 C155.7 95.4 156.6 97.8 157.6 100.1 C158.4 101.8 159.2 103.5 160 105.2 C162.6 111 164.5 116.8 166.2 122.9 C166.5 124 166.8 125.1 167.1 126.2 C169.7 136 171.3 145.7 172.3 155.8 C172.5 157.3 172.7 158.8 172.9 160.4 C173.6 166.1 173.6 171.7 173.3 177.5 C173.3 178.5 173.2 179.4 173.2 180.4 C170.4 228.3 148.3 272.2 112.6 304.1 C103.9 311.4 94.3 317.5 84.4 323.1 C83.1 323.8 81.8 324.6 80.5 325.4 C75 328.5 69.5 330.8 63.6 332.8 C62.7 333 61.9 333.3 61 333.6 C59.4 334.2 57.7 334.8 56 335.3 C54.4 335.8 52.8 336.4 51.3 336.9 C45.9 338.8 40.6 340.1 35.1 341.2 C34.3 341.4 33.5 341.6 32.7 341.8 C-11.9 351 -59.6 339.3 -97.2 314.7 C-103.6 310.4 -103.6 310.4 -106.4 308.1 C-106.4 307.5 -106.4 306.8 -106.4 306.1 C-106.7 306 -106.7 306 -108 305.5 C-111.4 303.6 -114 301.1 -116.8 298.5 C-117.3 298 -117.9 297.4 -118.5 296.9 C-131.5 284.6 -142.2 269.9 -150.4 254.1 C-151 253 -151.6 252 -152.2 250.9 C-155.9 243.6 -159.7 236.2 -161.4 228.1 C-161.1 227.1 -160.8 226.1 -160.4 225.1 C-160.2 225.7 -159.9 226.3 -159.7 227 C-152.7 244 -144.6 259.4 -133.4 274.1 C-132.6 275.2 -131.8 276.3 -131 277.4 C-123.5 287.4 -115 296.1 -105.4 304.1 C-105 304.5 -105 304.5 -102.7 306.4 C-100.7 308 -98.7 309 -96.4 310.1 C-97 309.7 -97.6 309.3 -98.2 308.8 C-111.8 298.2 -124.9 285.7 -134.4 271.1 C-135.4 269.9 -136.3 268.7 -137.3 267.5 C-145.7 256.3 -151.6 244.1 -156.4 231.1 C-156.9 230.1 -157.4 229 -157.9 228 C-160.2 222.8 -161 217.2 -162 211.6 C-164.5 198.3 -164.5 198.3 -166.4 192.1 C-166.4 192.7 -166.3 193.3 -166.3 194 C-165.6 200 -165 206.1 -164.4 212.1 C-171 204.2 -170 192 -170.4 182.1 C-169.8 182.1 -169.1 182.1 -168.4 182.1 C-168.1 183.1 -167.8 184.1 -167.4 185.1 C-167.4 184.3 -167.4 183.6 -167.5 182.8 C-167.5 179.2 -167.5 175.5 -167.5 171.9 C-167.5 171.3 -167.5 171.3 -167.5 168.2 C-167.5 160.1 -167.2 152.2 -166.4 144.1 C-167.1 147.1 -167.8 150.1 -168.4 153.1 C-168.8 153.1 -169.1 153.1 -169.4 153.1 C-169.6 146.5 -169 140.5 -167.6 134.1 C-167.5 133.2 -167.3 132.4 -167.1 131.5 C-166 126.1 -164.5 121.2 -162.4 116.1 C-162 115.1 -161.6 114 -161.2 112.9 C-156.4 100.1 -150.7 88.6 -143.4 77.1 C-142.9 76.3 -142.4 75.5 -141.9 74.6 C-132 59.3 -120.2 45.9 -105.4 35.1 C-103.9 33.9 -102.3 32.6 -100.7 31.4 C-97.7 29 -94.7 27 -91.4 25.1 C-91.1 24.9 -91.1 24.9 -89.6 24 C-80.8 18.9 -72.3 14.3 -62.6 11.2 C-59.4 10.1 -59.4 10.1 -56 8.6 C-52.3 7.1 -48.6 6 -44.7 5.1 C-44 4.9 -43.3 4.7 -42.6 4.5 C-28.4 1.2 -14.6 -0 0 0 Z M-25.4 4.1 C-27 4.4 -28.6 4.6 -30.2 4.8 C-55.3 8.8 -84.5 19.5 -102.4 38.1 C-98 36.5 -94.2 34.3 -90.2 31.8 C-88.8 31 -87.5 30.2 -86.2 29.4 C-85.5 29 -84.9 28.6 -84.2 28.2 C-46.2 5.3 -0.3 2 42.2 11.7 C61.2 16.4 80.3 24.9 95.6 37.1 C97.2 38.3 98.8 39.4 100.4 40.5 C111.9 48.8 122.1 58.8 130.6 70.1 C130.9 70.6 130.9 70.6 132.7 73 C161.2 111.8 170.2 155.5 163.4 202.7 C162.2 210.8 160.7 218.6 157.6 226.1 C156.9 228 156.2 229.8 155.6 231.6 C148.1 252.1 136.6 270.6 121.8 286.6 C120.6 288.1 120.6 288.1 120.6 290.1 C120 290.4 119.4 290.6 118.9 290.9 C114.5 293.2 111 296.6 107.6 300.1 C107.9 300.8 108.2 301.4 108.6 302.1 C131.3 284 131.3 284 134.6 274.1 C135.6 273.8 136.5 273.5 137.6 273.1 C138.8 271.5 138.8 271.5 140 269.5 C140.4 268.8 140.9 268 141.3 267.3 C141.5 266.9 141.5 266.9 142.6 265.1 C143.2 264 143.9 262.9 144.6 261.7 C145.2 260.5 145.9 259.3 146.6 258.1 C146.9 257.5 147.3 256.8 147.7 256.2 C154.3 244.4 159.7 233.1 163.6 220.1 C163.9 218.9 164.3 217.8 164.7 216.6 C167.1 208.5 168.6 200.5 169.6 192.1 C169.7 191.4 169.8 190.7 169.9 189.9 C170.8 184 170.7 178.1 170.6 172.1 C170.5 171.4 170.5 170.6 170.5 169.8 C170.2 158 169.3 146.7 166.6 135.1 C166.4 134.4 166.2 133.6 166 132.8 C163.6 122.9 160.9 113.4 156.6 104.1 C156.1 103.1 155.6 102.1 155.2 101.1 C152.2 95 148.9 89.3 145.2 83.6 C144.1 82 143.1 80.3 142.1 78.6 C128.8 56.8 109.1 39.4 87.6 26.1 C87.1 25.8 87.1 25.8 84.9 24.4 C66.1 12.7 -6.2 -15.1 -25.4 4.1 Z M-18.2 10.4 C-19.1 10.6 -20.1 10.7 -21.1 10.9 C-43.5 14.1 -64 19.7 -83.3 31.8 C-85.2 33 -87.1 34 -89 35.1 C-99.3 40.9 -108.2 49.7 -116.4 58.1 C-121.4 63.1 -121.4 63.1 -123.1 64.7 C-127.7 69.1 -131.1 73.7 -134.4 79.1 C-135 80 -135.6 80.9 -136.2 81.8 C-148.2 100.4 -157.2 120.4 -161.4 142.1 C-161.6 143 -161.8 144 -162 144.9 C-163.5 153.7 -163.8 162.4 -163.8 171.3 C-163.7 173.8 -163.8 176.2 -163.8 178.6 C-163.8 187.3 -163.2 194.8 -160.4 203.1 C-160.1 204.8 -159.7 206.4 -159.4 208.1 C-157.5 218.3 -154.7 227.6 -150.4 237.1 C-150.1 237.8 -149.8 238.5 -149.5 239.3 C-148.4 241.6 -147.4 243.9 -146.3 246.2 C-146 246.9 -145.6 247.7 -145.3 248.4 C-145 249.1 -144.6 249.8 -144.3 250.5 C-144 251.2 -143.7 251.8 -143.4 252.4 C-142.3 254.3 -141 255.6 -139.4 257.1 C-138.5 258.9 -138.5 258.9 -137.7 260.8 C-135.3 265.8 -131.9 269.8 -128.4 274.1 C-127.8 274.9 -127.2 275.7 -126.6 276.5 C-122.7 281.6 -118.6 286.2 -114.1 290.8 C-113.5 291.3 -113 291.8 -112.5 292.4 C-108.7 296.1 -108.7 296.1 -106.4 296.1 C-106.4 296.8 -106.4 297.4 -106.4 298.1 C-105 299.4 -105 299.4 -103.1 300.8 C-102.7 301.1 -102.7 301.1 -100.9 302.4 C-100.1 303 -99.3 303.5 -98.4 304.1 C-97.6 304.7 -96.8 305.3 -96 305.9 C-80.8 316.6 -64.5 325.5 -46.4 330.1 C-45.9 330.3 -45.9 330.3 -42.9 331.2 C-28.1 335.5 -13.8 336.3 1.6 336.3 C2.2 336.3 2.9 336.3 3.6 336.3 C22.3 336.3 22.3 336.3 30.6 333.8 C34.4 332.7 38.2 331.7 42.1 330.9 C56.5 327.6 69.6 320.9 82.6 314.1 C82.6 313.5 82.6 312.8 82.6 312.1 C83.4 311.9 84.2 311.7 85.1 311.4 C89.2 309.9 92.4 307.7 95.9 305.1 C96.6 304.7 97.2 304.2 97.9 303.8 C99.5 302.6 101 301.4 102.6 300.1 C102.6 299.5 102.6 298.8 102.6 298.1 C102.9 298 102.9 298 104.3 297.4 C106.9 296 108.6 294.3 110.7 292.3 C111 291.9 111 291.9 113 290 C113.7 289.2 114.5 288.4 115.3 287.6 C116.1 286.8 116.9 286.1 117.7 285.2 C118.5 284.5 119.2 283.7 120 283 C120.3 282.6 120.3 282.6 122.1 280.9 C123.6 279.1 123.6 279.1 123.6 277.1 C124.2 277.1 124.9 277.1 125.6 277.1 C126.8 275.8 126.8 275.8 128.1 273.9 C128.6 273.2 129.1 272.5 129.6 271.8 C129.9 271.4 129.9 271.4 131.2 269.5 C131.7 268.7 132.3 268 132.8 267.2 C142 253.8 150.8 239.1 155 223.4 C155.6 221.1 155.6 221.1 156.5 218.3 C157.7 214.6 158.4 210.9 159.1 207.1 C159.2 206.4 159.3 205.6 159.4 204.8 C159.7 203.3 160 201.8 160.2 200.3 C160.5 198.4 160.9 196.6 161.2 194.7 C166.3 165.5 161.6 131 147.9 104.5 C147.5 103.8 147.2 103.1 146.8 102.5 C146.1 101 145.4 99.6 144.7 98.2 C143.6 96.1 142.5 94 141.4 91.9 C140.8 90.6 140.1 89.3 139.4 87.9 C139.1 87.3 138.8 86.7 138.4 86.1 C136.3 82.1 133.8 79.2 130.6 76.1 C129.7 75 128.8 73.8 128 72.6 C116 56.3 99.8 42.7 82.6 32.1 C81.5 31.5 80.5 30.9 79.5 30.2 C58.9 17.7 31.7 9.5 7.6 10.1 C7.3 12.7 7.1 15.3 6.9 17.9 C6.9 18.7 6.8 19.4 6.7 20.2 C6.3 25.8 6.3 25.8 8.6 29.1 C8 35.7 8 35.7 6.6 37.1 C2.7 37.3 -0.9 37.1 -4.7 36.5 C-8.4 36.1 -8.4 36.1 -11.4 38.1 C-11.1 35.2 -10.8 32.2 -10.4 29.1 C-9.4 30.1 -8.5 31.1 -7.4 32.1 C-3.5 35.5 -0.6 35.9 4.6 36.1 C4.9 35.5 5.2 34.8 5.6 34.1 C5.1 33.8 4.6 33.5 4.1 33.2 C-0.6 30.3 -5 27.3 -9.4 24.1 C-9.6 20.9 -9.6 20.9 -8.4 17.1 C-5.7 15.4 -3 14.3 -0 13.2 C2.6 12.1 2.6 12.1 4.6 10.1 C2.9 8.5 1 9 -1.3 9 C-7 9 -12.6 9.6 -18.2 10.4 Z M-5.4 18.1 C-5.7 18.8 -6.1 19.4 -6.4 20.1 C-3 22.4 -1.5 22.3 2.6 22.1 C3.6 17.3 3.6 17.3 3.6 16.1 C-3 15.6 -3 15.6 -5.4 18.1 Z M-110.4 43.1 C-111.8 44.8 -113.2 46.4 -114.4 48.1 C-109.1 46.7 -106.7 43.3 -103.4 39.1 C-106.6 39.1 -108.1 41.1 -110.4 43.1 Z M-115.4 48.1 C-116.1 49.4 -116.8 50.8 -117.4 52.1 C-116.4 51.5 -115.5 50.8 -114.4 50.1 C-114.8 49.5 -115.1 48.8 -115.4 48.1 Z M-121.4 54.1 C-123.2 56 -125 58 -126.8 59.9 C-127.2 60.4 -127.7 61 -128.3 61.5 C-130.8 64.3 -133.2 67 -135.4 70.1 C-135.1 70.8 -134.8 71.4 -134.4 72.1 C-132.9 70.4 -131.3 68.7 -129.7 66.9 C-128.8 66 -127.9 65 -127 64 C-124.7 61.5 -122.6 58.8 -120.4 56.1 C-120.8 55.5 -121.1 54.8 -121.4 54.1 Z M-138.4 75.1 C-139.1 76.4 -139.8 77.8 -140.4 79.1 C-139.4 78.5 -138.5 77.8 -137.4 77.1 C-137.8 76.5 -138.1 75.8 -138.4 75.1 Z M-141.4 79.1 C-151.7 95.2 -161.8 113 -164.4 132.1 C-160.9 128.3 -159.9 123.6 -158.4 118.7 C-154.5 106.1 -148.6 94.3 -141.5 83.2 C-141.2 82.5 -140.8 81.8 -140.4 81.1 C-140.8 80.5 -141.1 79.8 -141.4 79.1 Z M-165.4 134.1 C-165.4 136.1 -165.4 138.1 -165.4 140.1 C-165.1 140.1 -164.8 140.1 -164.4 140.1 C-164.4 138.1 -164.4 136.2 -164.4 134.1 C-164.8 134.1 -165.1 134.1 -165.4 134.1 Z M103.6 304.1 C103.2 304.8 102.9 305.4 102.6 306.1 C103.6 305.8 104.5 305.5 105.6 305.1 C104.9 304.8 104.2 304.5 103.6 304.1 Z M97.6 308.1 C95.9 310.1 95.9 310.1 94.6 312.1 C98.4 310.4 98.4 310.4 99.6 308.1 C98.9 308.1 98.2 308.1 97.6 308.1 Z M-94.4 312.1 C-91.4 315.4 -88.5 318.2 -84.4 320.1 C-83.4 319.8 -82.5 319.5 -81.4 319.1 C-83.2 318 -85 316.8 -86.8 315.6 C-87.8 315 -88.8 314.3 -89.8 313.7 C-92.4 312.1 -92.4 312.1 -94.4 312.1 Z M86.6 315.7 C83.7 317.7 80.6 319.4 77.4 321 C75.6 322.1 75.6 322.1 74.6 324.1 C82.2 322.1 89.2 317.9 94.6 312.1 C90.9 312.1 89.5 313.5 86.6 315.7 Z M-81.4 320.1 C-79.1 322.8 -76.8 324 -73.6 325.5 C-72.6 325.9 -71.7 326.3 -70.7 326.7 C-69.7 327.2 -68.7 327.6 -67.6 328.1 C-66.6 328.5 -65.5 329 -64.5 329.4 C-56.9 332.6 -49.5 335.3 -41.4 337.1 C-40.7 337.3 -40 337.5 -39.2 337.6 C-8.3 344.6 20 344 50.3 335.1 C51.1 334.8 52 334.6 52.8 334.3 C57.3 333 61.4 331.4 65.6 329.1 C61.9 327.9 60.9 328.5 57.4 329.8 C38.9 336.2 17.2 341.6 -2.4 340.1 C-3.1 340.1 -3.8 340 -4.5 340 C-29.5 338.4 -53.3 332.2 -75.9 321.7 C-79.4 320.1 -79.4 320.1 -81.4 320.1 Z " fill="#000000" transform="translate(178.4375,7.875)"/>
<path d="M0 0 C1.6 0.5 3.2 1 4.8 1.5 C18.6 6.1 30.6 11.8 42 21 C42.7 21.6 43.5 22.1 44.2 22.7 C73.7 45.2 89.4 76.8 94.6 112.9 C98.4 144.8 89.1 179.3 69.5 204.7 C69.2 205 69.2 205 67.7 206.8 C66.6 208.3 65.4 209.8 64.3 211.3 C60.3 216.6 56.1 220.8 51 225 C50.2 225.7 49.4 226.4 48.6 227.1 C18.6 252.7 -16.7 260.5 -55.3 257.6 C-73.3 255.9 -91 249.3 -105.9 239.1 C-108.1 237.6 -110.2 236.3 -112.6 235 C-120.7 230.3 -127.1 224.2 -133 217 C-134 215.9 -135 214.8 -135.9 213.7 C-147.9 199.6 -156.1 184.4 -162 167 C-162.2 166.4 -162.2 166.4 -163.3 163.4 C-168.8 144.5 -169.8 122.3 -166 103 C-165.9 102.3 -165.7 101.6 -165.6 101 C-160 73.4 -145.7 49.9 -126.2 30 C-125.7 29.5 -125.2 29 -124.7 28.5 C-123.5 27.3 -122.3 26.1 -121 25 C-120.3 25 -119.7 25 -119 25 C-119 24.3 -119 23.7 -119 23 C-114.6 20 -114.6 20 -112 20 C-112 19.3 -112 18.7 -112 18 C-102.2 10.8 -102.2 10.8 -97.1 11.3 C-96.4 11.5 -95.7 11.8 -95 12 C-95 11.7 -95 11.7 -94.7 10.1 C-94 8 -94 8 -90.7 6.2 C-89.2 5.6 -87.8 5.1 -86.3 4.5 C-85.5 4.2 -84.8 3.9 -84 3.6 C-58 -6.4 -26.6 -9.3 0 0 Z M-127 38 C-129.4 40.6 -131.7 43.3 -134 46 C-134.8 46.9 -135.5 47.7 -136.3 48.6 C-144.1 58 -150.2 69.6 -155.2 80.8 C-155.5 81.4 -155.7 82 -156 82.6 C-157.9 87.1 -158.6 91.2 -159 96 C-156 94 -156 94 -154.7 91.7 C-150.5 85 -144.3 82.3 -137 80 C-131.9 78.9 -127 78.9 -121.8 79 C-120.9 79 -120 79 -119.1 79 C-116.1 79 -113.2 79 -110.2 79.1 C-108.1 79.1 -106.1 79.1 -104 79.2 C-99.7 79.2 -95.4 79.2 -91 79.3 C-85.5 79.4 -79.9 79.4 -74.4 79.5 C-70.1 79.5 -65.9 79.6 -61.6 79.6 C-59.6 79.6 -57.5 79.7 -55.5 79.7 C-52.6 79.7 -49.8 79.7 -46.9 79.8 C-46.1 79.8 -45.2 79.8 -44.3 79.8 C-38.4 79.9 -38.4 79.9 -35.9 80.6 C-34 81 -34 81 -32 80 C-30 79.6 -27.9 79.3 -25.9 78.9 C-25.3 78.8 -25.3 78.8 -22.6 78.4 C-21.7 78.3 -20.9 78.1 -20 78 C-20 77.7 -20 77.7 -19.7 76.1 C-18.1 67.1 -15.8 60.2 -9 54 C-9 53.3 -9 52.7 -9 52 C-6 50.7 -2.9 49.6 0.2 48.5 C0.9 48.3 1.6 48 2.3 47.8 C9.8 45.6 16.1 44.7 23.9 45.5 C24.8 45.6 25.6 45.7 26.5 45.8 C33.7 46.7 39.2 48.7 45 53 C45.7 53.5 46.4 53.9 47.2 54.4 C57.3 61.8 62.3 77.3 65 89 C65.5 92.3 65.8 95.6 66 99 C66.8 105.8 66.8 105.8 68 107 C70.8 107.3 70.8 107.3 74 107 C75.4 105.7 76.7 104.4 78 103 C81.8 102 84.3 102 88 103 C85.2 88.8 81.1 73.3 72.2 61.6 C71 60 71 60 69.2 56.7 C66.4 51.7 62.6 47.4 59 43 C58.5 42.3 57.9 41.7 57.4 41 C54 36.8 50.2 33.4 46 30 C45.7 29.7 45.7 29.7 44.2 28.5 C-6.2 -13.6 -81.2 -7.4 -127 38 Z M-3.8 56.7 C-10.2 63.7 -13.2 69.4 -14.6 78.7 C-15 81 -15 81 -16 82 C-23.6 83.4 -31.3 83.1 -39 83 C-39 84.3 -39 85.6 -39 87 C-38.3 87.2 -37.6 87.4 -36.8 87.6 C-35.9 87.9 -35 88.2 -34.1 88.4 C-33.1 88.7 -32.2 89 -31.3 89.2 C-29 90 -29 90 -28 91 C-25.8 90.9 -23.7 90.7 -21.5 90.5 C-19.3 90.3 -17.2 90.1 -15 90 C-14 91 -14 91 -13.9 94 C-14 97 -14 97 -15 98 C-16.6 98.2 -18.2 98.5 -19.9 98.7 C-22.6 99.2 -22.6 99.2 -25 100 C-27.1 103.1 -27.1 103.1 -28 106 C-27 107.6 -27 107.6 -25 109 C-23.1 108.9 -23.1 108.9 -21 108.5 C-17.2 107.9 -17.2 107.9 -15 109.1 C-13.7 111.6 -13.7 113.3 -14 116 C-15.5 117.5 -17.1 117.1 -19.2 117.2 C-22.9 117.5 -24.9 118.3 -27.6 120.9 C-30 124 -30 124 -30 126 C-24.4 126.3 -18.8 126.7 -13 127 C-13.3 128.3 -13.7 129.6 -14 131 C-14.8 142.2 -12.1 151.1 -5.8 160.2 C0.3 166.3 8.8 169.3 17.3 169.3 C27.7 169.1 36.9 165.4 44.8 158.6 C55.1 146.5 60.9 130 61 114 C60.7 113.3 60.3 112.7 60 112 C57.8 111.6 57.8 111.6 55.1 111.3 C54.2 111.2 53.3 111.1 52.3 111.1 C50 111 50 111 48 112 C47.2 125.1 47.2 125.1 50.6 128.9 C51.4 129.6 52.2 130.3 53 131 C53.1 134.7 53.1 134.7 52 138 C49.6 140.1 48.2 140 45 139.9 C41.1 138.7 39.9 137.5 38 134 C38.2 130.2 38.2 130.2 39 127 C40.6 126.3 42.3 125.7 44 125 C44 120.4 44 115.8 44 111 C39 113 39 113 37 115 C34.6 115.2 34.6 115.2 31.9 115.1 C31 115.1 30.1 115.1 29.1 115.1 C28.4 115 27.7 115 27 115 C26.7 114.4 26.4 113.7 26.1 113.1 C25 111 25 111 24 110 C22.7 109.9 21.3 109.9 20 109.9 C19.2 109.9 18.4 109.9 17.6 109.9 C16.7 109.9 15.9 109.9 15 109.9 C14.2 109.9 13.3 109.9 12.4 109.9 C11.6 109.9 10.8 109.9 10 109.9 C9.6 109.9 9.6 109.9 7.8 109.9 C6 110 6 110 5 111 C4.6 113.3 4.3 115.7 4 118 C3 117.7 2 117.3 1 117 C1 110.7 1 104.5 1 98 C1.7 97.8 1.7 97.8 5 97 C5 98.1 5 99.3 4.9 100.4 C5 104 5 104 6 105 C8.9 105.3 11.8 105.6 14.8 105.8 C15.6 105.9 16.4 106 17.2 106 C23.4 106.5 23.4 106.5 26.8 104 C27.5 103.4 28.2 102.7 29 102 C31.5 101.6 31.5 101.6 33.8 101.8 C34.6 101.8 35.4 101.8 36.2 101.9 C36.8 101.9 37.4 102 38 102 C38.3 102.7 38.3 102.7 40 106 C41.3 106 42.6 106 44 106 C44.1 103.4 44.1 100.8 44.2 98.2 C44.2 97.4 44.2 96.7 44.3 96 C44.3 90.4 44.3 90.4 42.5 88.2 C42 87.8 41.5 87.4 41 87 C40.5 84.2 40.8 81.9 41 79 C43 77 43 77 45.9 76.8 C49 77 49 77 52 79 C53.3 82.2 52.8 84.7 52 88 C51.5 88.2 51.5 88.2 49 89 C47.5 92 47.8 94.7 47.8 98 C47.8 99.3 47.8 100.5 47.8 101.8 C48 105 48 105 50 107 C52.4 107.2 52.4 107.2 55.1 107.1 C56 107.1 56.9 107.1 57.9 107.1 C58.6 107 59.3 107 60 107 C60.4 91.7 60 79 51 66 C50.5 65.2 49.9 64.5 49.4 63.7 C48.9 63.1 48.5 62.6 48 62 C47.3 62 46.7 62 46 62 C45.8 61.5 45.8 61.5 45 59 C43.5 57.7 43.5 57.7 41.8 56.5 C41.2 56.1 40.6 55.7 40 55.3 C39.7 55.1 39.7 55.1 38 54 C37.2 53.5 36.5 52.9 35.7 52.4 C25.5 47.1 4.6 48.8 -3.8 56.7 Z M44 79 C43.3 79.7 42.7 80.3 42 81 C42.4 83.6 42.4 83.6 43 86 C45.3 86 47.6 86 50 86 C50.3 84 50.7 82 51 80 C48 79 48 79 44 79 Z M-138 86 C-138.6 86.2 -138.6 86.2 -141.5 86.9 C-147.2 88.7 -150.7 91.1 -153.9 96.1 C-156.5 101.3 -157 106.2 -156 112 C-153.5 117.1 -149.9 120.5 -144.9 123.1 C-140.9 124.3 -137.3 124.2 -133.2 124.1 C-132.4 124.1 -131.6 124.1 -130.8 124.1 C-128.9 124.1 -126.9 124 -125 124 C-123.6 120.3 -122.7 117.2 -122.8 113.2 C-122.8 112.8 -122.8 112.8 -122.8 110.9 C-123 109 -123 109 -124 108 C-126.2 107.8 -126.2 107.8 -128.9 107.7 C-129.8 107.7 -130.6 107.6 -131.6 107.6 C-134 108 -134 108 -135.7 110 C-136.1 110.6 -136.6 111.3 -137 112 C-139.7 113.3 -140.8 113.1 -143.7 112.1 C-146 111 -146 111 -147 110 C-147.6 102.7 -147.6 102.7 -145.4 100 C-142.3 98.7 -140.4 98.5 -137 99 C-136.5 99.3 -136.5 99.3 -134.1 101 C-130.4 103.4 -128.3 103.3 -124 103 C-121.9 100.1 -122 98.8 -122.5 95.1 C-122.8 93.7 -123.1 92.2 -123.4 90.8 C-123.5 90 -123.7 89.3 -123.8 88.5 C-124.2 86.7 -124.6 84.8 -125 83 C-130.4 82.9 -133.3 83.4 -138 86 Z M-118 83 C-118.3 84 -118.7 85 -119 86 C-118.7 86.7 -118.3 87.3 -118 88 C-117.7 91.6 -117.5 95.3 -117.3 98.9 C-117 102 -117 102 -116 103 C-113.5 103.1 -111 103.1 -108.4 103.1 C-107.7 103.1 -107 103.1 -106.3 103 C-104.5 103 -102.8 103 -101 103 C-100.3 99.7 -99.7 96.4 -99 93 C-94.1 91.9 -89.6 92 -84.6 92.3 C-81.5 92 -80.2 91.1 -78 89 C-78 88.3 -78 87.7 -78 87 C-76.7 87.3 -75.4 87.7 -74 88 C-74.3 92 -74.7 95.9 -75 100 C-76 100 -77 100 -78 100 C-78.4 99.3 -78.8 98.7 -79.2 98 C-81 96 -81 96 -84.6 95.6 C-85.9 95.6 -87.3 95.7 -88.7 95.8 C-91.1 95.8 -93.5 95.9 -96 96 C-96 101.9 -96 107.9 -96 114 C-93.6 114.1 -91.2 114.1 -88.7 114.2 C-87.9 114.2 -87.2 114.2 -86.4 114.3 C-83.5 114.3 -81.5 114.3 -79 112.7 C-78 111 -78 111 -78 108 C-77 108.3 -76 108.7 -75 109 C-75 110.1 -74.9 111.1 -74.9 112.2 C-74.9 113.6 -74.8 115 -74.8 116.4 C-74.7 117.1 -74.7 117.8 -74.7 118.5 C-74.6 120.5 -74.6 120.5 -74 124 C-71.2 125.9 -69 126.2 -65.7 126.2 C-64.9 126.2 -64.1 126.2 -63.2 126.2 C-62.4 126.2 -61.6 126.1 -60.8 126.1 C-59.9 126.1 -59.1 126.1 -58.2 126.1 C-56.1 126.1 -54.1 126 -52 126 C-51.8 125.4 -51.6 124.9 -51.4 124.3 C-51.2 123.6 -50.9 122.8 -50.6 122.1 C-50.4 121.3 -50.1 120.6 -49.9 119.8 C-49 118 -49 118 -47 117 C-45.5 117 -43.9 117 -42.4 117.1 C-36.5 117.1 -31.2 116.9 -26.5 112.9 C-26 112.3 -25.5 111.6 -25 111 C-30.5 107.5 -34.4 105.2 -41 106 C-41.2 106.2 -41.2 106.2 -42 107 C-47.3 107.5 -47.3 107.5 -49.9 105.8 C-51 104 -51 104 -51.1 101.9 C-50 100 -50 100 -47.3 98.7 C-44 98 -44 98 -41.2 98.5 C-37.7 99 -35.1 98.7 -31.6 98.1 C-30.6 97.9 -29.5 97.7 -28.4 97.5 C-27.6 97.3 -26.8 97.2 -26 97 C-26 95.7 -26 94.4 -26 93 C-31 89.7 -36 88.6 -42 89 C-42.7 89.3 -43.3 89.7 -44 90 C-47 90.2 -47 90.2 -50 90 C-52.1 87.9 -52.4 86.9 -53 84 C-67.8 83.2 -82.5 82.9 -97.3 82.9 C-99.3 82.9 -101.4 82.9 -103.4 83 C-108.3 83 -113.1 83 -118 83 Z M-48 83 C-48.3 84.3 -48.7 85.6 -49 87 C-48 87.3 -47 87.7 -46 88 C-45.3 87.7 -44.7 87.3 -44 87 C-44 86 -44 85 -44 84 C-45.3 83.7 -46.6 83.3 -48 83 Z M-20 92 C-20.3 93.3 -20.7 94.6 -21 96 C-19.7 96 -18.4 96 -17 96 C-17 94.7 -17 93.4 -17 92 C-18 92 -19 92 -20 92 Z M-36 101 C-35.7 102 -35.3 103 -35 104 C-32.9 104.7 -32.9 104.7 -31 105 C-28 101.2 -28 101.2 -28 99 C-31.7 98.8 -32.8 98.8 -36 101 Z M-142 101 C-144 103 -144 103 -144.1 106.1 C-144.1 107.1 -144 108 -144 109 C-141.7 109.7 -141.7 109.7 -139 110 C-137.1 108.9 -137.1 108.9 -136 107 C-136.3 104.3 -136.3 104.3 -137 102 C-139.4 101.4 -139.4 101.4 -142 101 Z M-47 101 C-46.7 102.7 -46.3 104.3 -46 106 C-45 105.7 -44 105.3 -43 105 C-42.7 104 -42.3 103 -42 102 C-43.7 101.7 -45.3 101.3 -47 101 Z M30 104 C29.2 107.4 28.9 109.7 30 113 C31.8 113.8 31.8 113.8 34 114 C36.3 112.4 36.3 112.4 38 110 C37.7 105.7 37.7 105.7 36 104 C34 104 32 104 30 104 Z M63 104 C62.4 106.9 62.4 106.9 62 110 C62.7 110.7 63.3 111.3 64 112 C64 111.3 64 110.7 64 110 C64.7 110 65.3 110 66 110 C65.7 108 65.3 106 65 104 C64.3 104 63.7 104 63 104 Z M81 104 C81 104.7 81 105.3 81 106 C80.3 106.3 80.3 106.3 77 108 C77.9 112.9 77.9 112.9 79 114 C81.5 114.1 81.5 114.1 84 114 C85 113 85 113 85.1 109.4 C85 108.3 85 107.2 85 106 C83.7 105.3 82.4 104.7 81 104 Z M46 107 C45.7 107.7 45.3 108.3 45 109 C45.7 109 46.3 109 47 109 C46.7 108.3 46.3 107.7 46 107 Z M-117 108 C-117.3 109.5 -117.7 111.1 -118 112.6 C-118.2 113.5 -118.4 114.3 -118.6 115.2 C-119 118.2 -119 121 -119 124 C-109.9 124.8 -100.8 125.1 -91.7 125.1 C-90.5 125.1 -89.2 125.1 -88 125 C-85 125 -82 125 -79 125 C-79.2 124.2 -79.2 124.2 -80 120 C-83.6 118.8 -86.8 118.9 -90.6 119 C-97.7 119.1 -97.7 119.1 -100 118 C-100.6 114.7 -100.7 111.4 -101 108 C-106.3 108 -111.6 108 -117 108 Z M-21 111 C-20.7 112.3 -20.3 113.6 -20 115 C-19 115 -18 115 -17 115 C-16.7 114 -16.3 113 -16 112 C-17.7 111.7 -19.3 111.3 -21 111 Z M-161 106 C-164.2 109.2 -163.2 118.5 -163.2 122.8 C-163.2 156.5 -152.3 189.8 -128.1 214.1 C-126.8 215.4 -125.4 216.7 -124 218 C-123.2 218.9 -122.3 219.7 -121.4 220.6 C-112.6 229.2 -103.6 235.4 -92.6 240.7 C-91.8 241.1 -91 241.4 -90.2 241.8 C-85.2 244.2 -80.3 245.9 -74.9 247.4 C-73 248 -73 248 -72 249 C-69.2 249.5 -66.3 250 -63.5 250.5 C-55.1 251.9 -55.1 251.9 -54 253 C-51.7 253.1 -49.5 253.1 -47.2 253.1 C-46.5 253.1 -45.9 253.1 -45.2 253.1 C-43.7 253.1 -42.3 253.1 -40.8 253.1 C-38.6 253.1 -36.4 253.1 -34.2 253.1 C-32.8 253.1 -31.4 253.1 -30 253.1 C-29.4 253.1 -29.4 253.1 -26.2 253.1 C-23 253 -23 253 -20 252 C-18.3 251.8 -16.6 251.7 -14.9 251.6 C-2.3 250.6 9.6 244.3 20.8 239 C21.3 238.8 21.3 238.8 23.6 237.7 C28.2 235.5 32.2 233.4 36 230 C37.4 228.9 38.9 227.8 40.3 226.7 C44.7 223.3 48.9 219.7 53 216 C53.6 215.5 54.1 215 54.7 214.5 C63.7 206.1 70 195.4 75.9 184.8 C76.3 183.9 76.8 183.1 77.2 182.3 C89.3 160 90.2 137.8 90 113 C89.7 113.2 89.7 113.2 88.2 113.9 C85 115.5 82.5 115.9 79 116 C77.2 115.1 77.2 115.1 75.4 114 C72 112 72 112 69.1 112.2 C68.4 112.5 67.7 112.7 67 113 C67 114.2 67.1 115.4 67.1 116.6 C67.3 120.7 66.2 124.1 65 128 C64.7 129.1 64.4 130.2 64.1 131.4 C59.3 149.9 47.4 163.4 31 173 C22.8 175.7 10.9 175.3 2.9 172 C1.6 171.3 0.3 170.7 -1 170 C-1.7 170 -2.3 170 -3 170 C-3.3 170.8 -3.5 171.5 -3.8 172.3 C-7.9 183 -12.7 191 -23.2 196.1 C-30.3 199.2 -38.4 201.6 -46.1 199.4 C-47.8 198.6 -47.8 198.6 -50 197 C-50 196 -50 195 -50 194 C-48.7 194.1 -47.5 194.2 -46.2 194.3 C-44.6 194.4 -42.9 194.5 -41.2 194.6 C-40.4 194.7 -39.6 194.8 -38.8 194.8 C-38.4 194.8 -38.4 194.8 -36.3 195 C-36 195 -36 195 -34.1 195.1 C-31.6 195 -30.1 194.3 -28 193 C-26 189.1 -26.6 184.2 -26.4 179.9 C-26 176 -25.2 172.7 -24 169 C-26.5 169.4 -27.7 169.7 -29.4 171.6 C-29.9 172.2 -30.4 172.9 -30.9 173.6 C-36.6 180.4 -45.7 185.1 -54 188 C-57.7 188.3 -60.1 188.5 -63.4 186.7 C-65 185 -65 185 -65 182 C-64.7 182.1 -64.7 182.1 -63.2 182.4 C-56.1 183.5 -49.2 182.9 -43 179 C-39.8 173.7 -39.6 169.1 -39.8 163.1 C-39.8 162.3 -39.8 161.5 -39.9 160.7 C-39.9 158.8 -39.9 156.9 -40 155 C-40.7 155.8 -41.5 156.5 -42.2 157.3 C-44.5 159.5 -46.6 161.3 -49.1 163.2 C-52.8 166 -56.3 169 -59.9 172.1 C-65.2 176.6 -70.7 179.9 -77 183 C-78 183.5 -78.9 184.1 -79.9 184.6 C-80.9 185.1 -82 185.5 -83 186 C-83.8 186.4 -84.6 186.7 -85.4 187.1 C-95.3 191 -107.3 192.3 -117.5 188.8 C-126.1 184.2 -131.4 177.9 -135.3 169.1 C-138 157 -133.6 143.9 -128.7 132.8 C-128 131 -128 131 -128 129 C-128.6 129 -129.3 128.9 -129.9 128.9 C-132.8 128.7 -135.7 128.5 -138.6 128.3 C-139.6 128.3 -140.6 128.2 -141.7 128.2 C-148.1 127.7 -151.6 126.9 -156 122 C-159.2 117 -159.3 111.7 -159 106 C-159.7 106 -160.3 106 -161 106 Z M-33 117.4 C-33.7 117.7 -34.4 118 -35.1 118.2 C-37 119 -37 119 -39 120 C-38.7 121 -38.3 122 -38 123 C-35.3 123.9 -35.3 123.9 -32 124 C-29.8 122.2 -28.6 120.4 -27 118 C-27 117.3 -27 116.7 -27 116 C-29.3 116 -30.8 116.6 -33 117.4 Z M-46 119 C-46.3 120.7 -46.7 122.3 -47 124 C-45.3 123.7 -43.7 123.3 -42 123 C-42 122 -42 121 -42 120 C-43.3 119.7 -44.6 119.3 -46 119 Z M-120 129 C-123.2 132.2 -124.5 136.4 -126.1 140.6 C-126.3 141.3 -126.6 142 -126.9 142.7 C-130.5 153 -132.5 161.7 -128 172.1 C-124.8 178.2 -120.3 181.3 -114 183.8 C-101.9 187.2 -89.9 185.8 -79 180 C-78.2 179.7 -77.5 179.3 -76.7 178.9 C-70.4 175.8 -65.3 171.2 -60 166.6 C-58.1 165 -56.1 163.3 -54.1 161.8 C-53.4 161.2 -52.7 160.6 -52 160 C-52 159.3 -52 158.7 -52 158 C-51 157.7 -50 157.3 -49 157 C-49 156.3 -49 155.7 -49 155 C-48.3 154.8 -47.6 154.6 -46.9 154.4 C-43.8 152.9 -41.7 151.2 -39.1 148.8 C-35.7 145.8 -32.1 143.1 -28.6 140.2 C-26 138 -23.9 135.8 -22 133 C-22.2 132.5 -22.2 132.5 -23 130 C-35.2 129.9 -47.4 129.7 -59.6 129.6 C-65.3 129.5 -70.9 129.5 -76.6 129.4 C-82.1 129.4 -87.5 129.3 -93 129.3 C-95.1 129.2 -97.2 129.2 -99.3 129.2 C-102.2 129.2 -105.1 129.1 -108 129.1 C-108.9 129.1 -109.8 129.1 -110.7 129.1 C-113.8 129 -116.9 129 -120 129 Z M43 129 C42 130 42 130 41.8 132.4 C42 135 42 135 43.2 136.9 C45 138 45 138 47.6 137.9 C50 137 50 137 52 134 C51.4 132.1 51.4 132.1 50 130 C46.4 129.2 46.4 129.2 43 129 Z M-18 139 C-17.3 139.7 -16.7 140.3 -16 141 C-16 140.3 -16 139.7 -16 139 C-16.7 139 -17.3 139 -18 139 Z M-26.2 143.4 C-26.5 143.7 -26.5 143.7 -28.2 145.3 C-28.9 145.9 -29.5 146.6 -30.2 147.2 C-33.8 150.8 -34.7 153.4 -35.6 158.3 C-35.7 158.6 -35.7 158.6 -36 160.3 C-36.7 163.9 -37.2 167.3 -37 171 C-33 171 -33 171 -30.1 168.6 C-29.1 167.5 -28 166.5 -27 165.4 C-26.5 164.9 -26 164.3 -25.4 163.8 C-22.2 160.5 -19.2 157.1 -17 153 C-17 150.2 -17 150.2 -17.8 147.6 C-18 146.8 -18.2 145.9 -18.4 145 C-18.6 144.3 -18.8 143.7 -19 143 C-23.4 141.6 -23.4 141.6 -26.2 143.4 Z M-15 161 C-21.6 176.3 -21.6 176.3 -22 185 C-22.3 186.7 -22.6 188.3 -23 190 C-19.2 189.5 -17.8 188.1 -15.6 185.1 C-6.7 173.1 -6.7 173.1 -7.3 167.3 C-8.2 164.3 -9.5 163 -12 161 C-13 161 -14 161 -15 161 Z " fill="#000000" transform="translate(216,53)"/>
<path d="M0 0 C1.3 0 2.6 0 4 0 C4 2 4 4 4 6 C6.9 6.1 9.7 6.2 12.6 6.3 C13 6.3 13 6.3 15.1 6.4 C19.4 6.5 22.1 6.4 25.4 3.5 C26.2 2.7 27.1 1.9 28 1 C31.2 0 31.2 0 34 0 C36.1 1.6 36.9 2.6 37.6 5.2 C37.7 5.9 37.8 6.7 37.9 7.5 C37.9 7.9 37.9 7.9 38.2 9.8 C38 12 38 12 36.8 13.8 C33.6 16 30.8 15.3 27 15 C26.3 14.3 25.7 13.7 25 13 C22.3 12.7 19.7 12.5 17.1 12.4 C16.7 12.4 16.7 12.4 14.9 12.3 C11.9 12.1 9 12 6 12 C5 14 4 16 3 18 C1.7 17.3 0.4 16.7 -1 16 C-0.7 10.7 -0.3 5.4 0 0 Z M28 5 C27.7 5.5 27.7 5.5 26 8 C27 9.3 28 10.6 29 12 C30.7 11.7 32.3 11.3 34 11 C34 9.3 34 7.7 34 6 C33 5 33 5 30.6 4.8 C29.7 4.8 28.9 4.9 28 5 Z " fill="#000000" transform="translate(218,116)"/>
<path d="M0 0 C1 0.3 2 0.7 3 1 C3.1 2.6 3.1 4.2 3.2 5.8 C3.2 6.3 3.2 6.3 3.3 8.5 C3 11 3 11 1.7 12.8 C-0.5 14.4 -2.4 14.6 -5 15 C-5.6 17.3 -5.6 17.3 -6 20 C-5.3 21 -4.7 22 -4 23 C-2 22.3 -0 21.7 2 21 C2 25.6 2 30.2 2 35 C0.7 34.7 -0.6 34.3 -2 34 C-3.1 32 -4 30 -5 28 C-6.3 26.6 -7.6 25.3 -9 24 C-9 23.3 -9 22.7 -9 22 C-13.9 24.1 -16.2 27.6 -19 32 C-20.4 35.5 -20.4 35.5 -21 38 C-22 37.3 -23 36.7 -24 36 C-23.7 31.4 -23.3 26.8 -23 22 C-20.7 21 -18.4 20 -16 19 C-16 17.7 -16 16.4 -16 15 C-16.8 14.6 -17.6 14.2 -18.5 13.8 C-19.3 13.2 -20.1 12.6 -21 12 C-21.5 9.2 -21.2 6.9 -21 4 C-19.7 4 -18.4 4 -17 4 C-16.7 5.1 -16.4 6.2 -16.1 7.4 C-15 11 -15 11 -13 13 C-8.3 12.5 -5.8 9.5 -3 6 C-1.1 2.6 -1.1 2.6 0 0 Z " fill="#000000" transform="translate(42,163)"/>
<path d="M0 0 C0.4 0.5 0.8 1 1.2 1.5 C3.3 3.3 4.3 3.4 7 3.5 C7.8 3.5 8.5 3.6 9.3 3.6 C9.7 3.6 9.7 3.6 11.7 3.7 C12.5 3.7 13.3 3.8 14.1 3.8 C16.1 3.9 18 3.9 20 4 C20.7 2.7 21.3 1.4 22 0 C24 4.1 24.2 7.5 24 12 C22.7 12 21.4 12 20 12 C20 11.3 20 10.7 20 10 C18 10.7 16 11.3 14 12 C14 14.3 14 16.6 14 19 C17 18.7 19.9 18.3 23 18 C23.8 21.3 24.1 22.7 23 26 C19.1 25.1 19.1 25.1 18 24 C16.3 24 14.6 24 12.9 24 C8.4 24 4.4 23.8 0 23 C0 21.3 0 19.7 0 18 C1 18 2 18 3 18 C4.3 17.7 5.7 17.4 7 17 C7 15 7 13 7 11 C4.7 11 2.4 11 0 11 C-0.2 9.4 -0.4 7.7 -0.6 6.1 C-0.7 5.1 -0.8 4.2 -0.9 3.3 C-0.9 2.5 -1 1.8 -1 1 C-0.7 0.7 -0.3 0.3 0 0 Z " fill="#000000" transform="translate(315,163)"/>
<path d="M0 0 C1.9 0.6 1.9 0.6 4 2 C4.3 4 4.7 6 5 8 C10.3 8.3 15.6 8.7 21 9 C21.7 7.7 22.3 6.4 23 5 C25.5 3.3 28 2.5 31 2 C34.4 2.9 34.4 2.9 37 5 C38.4 8.8 38.2 10.5 36.7 14.3 C35 17 35 17 33 18 C26.7 18.5 26.7 18.5 23.8 16.5 C20 14.4 16.5 14.4 12.2 14.3 C11.4 14.3 10.6 14.2 9.8 14.2 C7.9 14.1 5.9 14.1 4 14 C4 15.7 4 17.3 4 19 C2.1 19.6 2.1 19.6 0 20 C-1.9 18.1 -1.1 15.5 -1.1 13 C-1.1 12.2 -1.1 11.4 -1.1 10.6 C-1.1 9.8 -1.1 9 -1.1 8.2 C-1.1 2.3 -1.1 2.3 0 0 Z M28 8 C27.3 9.3 26.7 10.6 26 12 C27.2 13.5 27.2 13.5 29 15 C30.3 15 31.6 15 33 15 C33.4 13 33.7 11 34 9 C33 8 33 8 30.4 7.9 C29.6 8 28.8 8 28 8 Z " fill="#000000" transform="translate(217,185)"/>
<path d="M0 0 C0.4 0 0.4 0 2.7 0.1 C3.7 0.2 4.6 0.3 5.6 0.3 C6 0.3 6 0.3 8.4 0.5 C10.8 0.6 13.1 0.7 15.4 0.9 C14.7 4.2 14 5.6 11.4 7.8 C8.5 10.5 8.5 10.5 8 13.7 C8.4 15.9 8.4 15.9 9.4 16.9 C16.5 17.6 16.5 17.6 20.2 14.7 C22.4 11.9 22.4 11.9 24.1 9.1 C24.5 8.3 25 7.6 25.4 6.9 C26.4 6.9 27.4 6.9 28.4 6.9 C29.2 15.4 29.6 23.4 28.4 31.9 C25.9 31.5 24.7 31.2 23 29.3 C22.6 28.7 22.2 28 21.8 27.4 C19.6 24 19.6 24 17.4 22.9 C15.9 22.8 14.3 22.8 12.8 22.8 C12 22.8 11.2 22.8 10.3 22.8 C9.7 22.9 9.1 22.9 8.4 22.9 C7.8 27.1 7.4 30.5 10 34 C11.7 35.8 13.5 37.4 15.4 38.9 C15.1 39.9 14.8 40.9 14.4 41.9 C7.3 43 1.4 42.7 -5.6 40.9 C-5.6 39.9 -5.6 38.9 -5.6 37.9 C-4.5 37.2 -3.3 36.5 -2.2 35.8 C1.1 33.6 2 32 2.9 28.2 C3.2 26 3.4 24.1 3.4 21.9 C-1.8 21.9 -1.8 21.9 -4.6 22.9 C-6.2 24.8 -7.3 26.8 -8.5 29.1 C-9.6 30.9 -9.6 30.9 -12.6 31.9 C-14.6 29.9 -14.6 29.9 -14.8 27.7 C-14.8 26.9 -14.8 26 -14.8 25.1 C-14.8 24.1 -14.8 23.2 -14.7 22.2 C-14.7 21.3 -14.7 20.3 -14.7 19.3 C-14.7 18.3 -14.7 17.3 -14.7 16.2 C-14.6 13.8 -14.6 11.3 -14.6 8.9 C-12.9 8.5 -11.3 8.2 -9.6 7.9 C-9 8.8 -8.5 9.7 -7.9 10.7 C-5.6 13.9 -4.1 15.3 -0.6 16.9 C0.7 16.9 2.1 16.9 3.4 16.9 C3.1 15.4 2.8 14 2.5 12.6 C2.3 11.8 2.1 11 2 10.1 C1.4 7.9 1.4 7.9 0.4 4.9 C-0.4 4.7 -1.1 4.6 -1.9 4.4 C-4.6 3.9 -4.6 3.9 -6.6 2.9 C-6.6 2.2 -6.6 1.6 -6.6 0.9 C-4.1 -0.3 -2.7 -0.2 0 0 Z M-5.6 16.9 C-4.6 18.9 -4.6 18.9 -4.6 18.9 Z M-10.6 20.9 C-9.6 22.9 -9.6 22.9 -9.6 22.9 Z M4.4 33.9 C4.4 34.5 4.4 35.2 4.4 35.9 C3.4 35.9 2.4 35.9 1.4 35.9 C1.4 36.5 1.4 37.2 1.4 37.9 C3.7 37.9 6 37.9 8.4 37.9 C7.8 36.6 7.1 35.2 6.4 33.9 C5.8 33.9 5.1 33.9 4.4 33.9 Z " fill="#000000" transform="translate(113.5703125,190.12109375)"/>
<path d="M0 0 C0.4 0.1 0.4 0.1 2.5 0.3 C2.8 0.4 2.8 0.4 4.4 0.6 C4.7 1.6 5 2.5 5.4 3.6 C5 3.7 5 3.7 3.4 4.6 C3.4 5.2 3.4 5.9 3.4 6.6 C7.7 10.2 12 9.9 17.4 9.6 C17.6 8.4 17.8 7.3 18 6.2 C19.4 2.6 19.4 2.6 22.2 1.1 C25.1 0.6 26.7 0.5 29.4 1.6 C29.4 2.2 29.4 2.9 29.4 3.6 C28.3 3.8 27.3 4.1 26.2 4.4 C20.6 6.8 18.8 12.3 16.4 17.6 C15.1 20.3 13.8 22.9 12.4 25.6 C11.4 25.9 10.4 26.2 9.4 26.6 C4.8 20.2 0.7 13.8 -3 6.9 C-4.6 4.6 -4.6 4.6 -7.6 3.6 C-7.3 2.6 -7 1.6 -6.6 0.6 C-4.1 -0.7 -2.8 -0.4 0 0 Z M8.4 12.6 C8 13.2 7.7 13.9 7.4 14.6 C8.8 17.2 8.8 17.2 10.4 19.6 C13.4 17.6 13.4 17.6 14.1 15.4 C14.2 14.8 14.3 14.2 14.4 13.6 C9.5 12.6 9.5 12.6 8.4 12.6 Z " fill="#000000" transform="translate(169.625,314.4375)"/>
</svg>
