<?xml version="1.0" encoding="UTF-8"?>
<!-- Generator: visioncortex VTracer 0.6.12 -->
<svg version="1.1" xmlns="http://www.w3.org/2000/svg" width="359" height="360">
<path d="M0 0 C1.7 0.8 3.4 1.6 5.1 2.4 C20.8 9.8 35 21.6 47 34 C47.8 34.7 48.6 35.4 49.3 36.2 C51 38 51 38 51 40 C51.7 40 52.3 40 53 40 C53 40.6 53 41.3 53 42 C53.7 42 54.3 42 55 42 C85.4 73.8 96.4 121.5 96 164 C94.5 210.1 71.8 252.3 38.7 283.4 C29 292.3 18.3 299.3 7 306 C6.2 306.5 5.3 307 4.4 307.6 C-2.5 311.7 -10 314.6 -18 316 C-15.5 312.3 -14.1 312.2 -9.9 310.9 C5.9 305.7 20.1 295.2 32.8 284.7 C35 283 35 283 37.2 281.9 C39.6 280.7 40.1 279.4 41 277 C41.7 277 42.3 277 43 277 C43 275.7 43 274.3 43 273 C31.2 281.8 31.2 281.8 28.2 284.9 C24.5 288.5 20.2 291.1 16 294 C15.7 294.2 15.7 294.2 13.8 295.5 C5.8 301.1 -2.8 306.2 -12 309.3 C-14.3 310.1 -16.4 311 -18.5 311.9 C-28.2 315.8 -38.7 318.3 -49 320 C-50 320.2 -50.9 320.4 -52 320.6 C-60.7 322 -69.3 322.2 -78.2 322.2 C-79.4 322.2 -80.5 322.2 -81.8 322.2 C-90.9 322.1 -90.9 322.1 -95 321 C-96.8 320.8 -98.6 320.5 -100.4 320.3 C-123.9 317.7 -147.4 309.3 -167 296 C-167.8 295.5 -168.7 295 -169.5 294.5 C-186.7 284.1 -200.8 268.6 -213 253 C-210.1 259.3 -206.8 263.8 -202 268.8 C-201.3 269.5 -200.7 270.2 -200 270.9 C-184.2 287.3 -184.2 287.3 -179 289 C-179 289.6 -179 290.3 -179 291 C-178.4 291.2 -177.9 291.5 -177.4 291.7 C-174.9 293 -172.7 294.4 -170.4 296 C-155.6 305.7 -140.7 312.9 -123.5 317.6 C-122.5 317.9 -121.4 318.2 -120.3 318.5 C-108.2 321.9 -96.4 323.4 -83.8 324.1 C-82.3 324.2 -80.9 324.3 -79.5 324.4 C-76 324.6 -72.5 324.8 -69 325 C-69 325.3 -69 325.6 -69 326 C-109 330.1 -151.5 316.4 -182.8 291.4 C-186.9 288 -190.7 284.4 -194.4 280.5 C-196 279 -196 279 -198 278 C-198 277.3 -198 276.7 -198 276 C-198.5 275.8 -199.1 275.6 -199.7 275.3 C-202.8 273.5 -204.5 271.2 -206.8 268.4 C-207 268.2 -207 268.2 -208.1 266.8 C-209 265.7 -209.9 264.6 -210.8 263.5 C-211.8 262.2 -212.8 260.9 -213.9 259.7 C-232.6 236.5 -243.2 208.1 -247.2 178.9 C-247.3 178.3 -247.3 178.3 -247.8 175.1 C-251.1 149.5 -248.9 121.1 -239 97 C-238.5 95.8 -238.1 94.7 -237.7 93.5 C-232.9 80.9 -226.8 69.1 -219 58 C-218.3 57 -217.7 56 -217 55 C-209.3 43.8 -200.4 33.7 -190 25 C-189.5 24.5 -188.9 24.1 -188.4 23.6 C-167.1 4.5 -139.9 -8.3 -112 -14 C-111.5 -14.1 -111.5 -14.1 -109 -14.7 C-72.3 -22 -33.4 -16.3 0 0 Z M-108 -12 C-108.7 -11.9 -109.4 -11.7 -110.2 -11.6 C-128.4 -7.8 -146.2 -2.3 -161.6 8.4 C-164.3 10.2 -167.1 11.7 -169.9 13.3 C-176 16.8 -180.9 21.1 -186 26 C-187.3 27.1 -188.5 28.2 -189.8 29.3 C-202.8 40.6 -212.8 53.1 -221.8 67.7 C-222.2 68.4 -222.6 69.1 -223.1 69.8 C-224.1 71.5 -225 73.2 -226 75 C-225.6 75.6 -225.3 76.3 -225 77 C-224.5 76.2 -224 75.5 -223.5 74.7 C-216.7 64.5 -209.8 54.5 -202 45 C-201.4 44.3 -200.9 43.7 -200.3 43 C-182.8 22.1 -158.2 6.9 -132.8 -2.3 C-131.3 -2.9 -129.7 -3.5 -128.2 -4.1 C-109.7 -11.5 -89.6 -12.4 -70 -12 C-69.3 -12 -68.6 -12 -67.8 -12 C-50 -11.6 -33.5 -7.7 -17 -1 C-14.8 -0.2 -12.6 0.6 -10.3 1.4 C-0.2 5.3 9.1 11 17.8 17.4 C20 19 20 19 22.6 20.5 C26.3 22.7 29.5 25.4 32.5 28.4 C34.2 30.1 35.9 31.6 37.7 33.1 C41.7 36.5 45 40.3 48.4 44.3 C48.6 44.5 48.6 44.5 50 46 C50.7 46 51.3 46 52 46 C52.2 46.4 52.2 46.4 52.8 48.4 C54 51 54 51 57 53 C55.6 48.8 53.7 46.2 50.7 43.1 C45.7 37.7 45.7 37.7 43.5 34.8 C40.3 31.1 36.8 28.1 33 25 C32.3 24.3 31.5 23.7 30.7 23 C24.8 18.1 18.6 14 12 10 C11.2 9.5 10.3 8.9 9.4 8.4 C0 2.6 -9.4 -1.6 -19.7 -5.2 C-21.2 -5.7 -22.7 -6.3 -24.1 -6.8 C-50.6 -16.6 -80.4 -17.6 -108 -12 Z M-110.8 -5.3 C-112 -5 -113.1 -4.7 -114.3 -4.4 C-128.5 -1 -141.1 4.1 -154 11 C-154.3 11.2 -154.3 11.2 -155.9 12 C-163.3 16 -170.1 20.3 -176.5 25.9 C-179 28 -179 28 -181.8 29.8 C-186 32.7 -189.4 36.1 -193 39.7 C-193.7 40.4 -194.3 41.1 -195 41.8 C-199.5 46.2 -203.4 50.9 -207 56 C-207.6 56.9 -208.3 57.8 -209 58.8 C-219 73.6 -228.2 89.6 -233 107 C-233.1 107.5 -233.1 107.5 -233.9 110 C-245.6 149.5 -241.6 194 -222.1 230.6 C-213.7 245.5 -203.7 258.7 -192 271 C-191.6 271.4 -191.6 271.4 -189.8 273.2 C-183 280.3 -175.7 286.5 -166.9 290.9 C-165 292 -165 292 -163.6 293.4 C-161.4 295.5 -159.1 296.6 -156.4 297.9 C-152.6 299.7 -148.8 301.6 -145.1 303.6 C-105.9 323 -60.2 322.4 -19.4 308.9 C-11.8 306.3 -4.8 303.2 2 299 C2.7 298.6 3.3 298.2 4 297.8 C7.9 295.3 7.9 295.3 9 293 C9.9 292.7 10.8 292.4 11.8 292.1 C26.9 287 40.8 270.4 50 258 C50.7 257.2 51.3 256.4 52 255.6 C63.7 240.6 73.6 223.2 79 205 C79.3 204.1 79.7 203.1 80 202.2 C82.9 193.2 84.6 184.3 86 175 C86.2 174.1 86.3 173.2 86.4 172.3 C89.9 144.3 84.6 114.6 73 89 C72.7 88.4 72.5 87.7 72.2 87.1 C65.5 72.6 57.1 59 46.6 47 C46 46.3 45.5 45.7 44.9 45.1 C42.7 42.6 40.4 40.3 38 38 C37.2 37.1 36.4 36.2 35.5 35.3 C30.3 29.9 25.3 25.5 18.7 21.6 C16.1 20 13.7 18.3 11.2 16.5 C5.8 12.6 -0.1 9.7 -6.1 6.9 C-7.3 6.3 -8.6 5.7 -9.9 5.1 C-40.8 -9.8 -77.5 -13.2 -110.8 -5.3 Z M60 57 C60.3 57.6 60.6 58.1 60.9 58.7 C61.9 60.8 63 62.9 64 65 C64.7 64.7 65.3 64.3 66 64 C62.3 58.1 62.3 58.1 60 57 Z M67 68 C68 71.6 69.4 74.7 71.2 77.9 C78 89.8 83.6 103.1 85.6 116.8 C86 120 86 120 87 121 C89.1 129.8 89.5 138.8 89.7 147.8 C89.7 148.5 89.8 149.1 89.8 149.8 C90.2 163 89.6 175.5 87.4 188.5 C87 191 87 191 87 193 C87.7 193 88.3 193 89 193 C92 183.3 92.8 174 93 164 C93.1 163.3 93.1 162.6 93.1 161.9 C93.8 137.4 90.7 108.9 79.2 87 C78.9 86.5 78.9 86.5 77.6 84 C77.1 83 76.6 82 76 81 C75.1 79.1 74.2 77.3 73.3 75.4 C72 72.8 70.7 70.5 69 68 C68.4 68 67.7 68 67 68 Z M-227 77 C-227.9 78.8 -228.8 80.6 -229.7 82.4 C-230.2 83.4 -230.7 84.4 -231.3 85.5 C-249.7 123.4 -251.7 168.6 -238.1 208.4 C-237.2 211 -236.2 213.5 -235 216 C-234.3 216 -233.7 216 -233 216 C-233.6 212.7 -234.4 209.6 -235.3 206.4 C-241.3 186.6 -243.4 167.6 -243 147 C-243 145.9 -243 144.7 -243 143.6 C-242.5 123.6 -236.9 101.4 -227.2 83.9 C-226 81 -226 81 -226.3 78.6 C-226.5 78.1 -226.7 77.5 -227 77 Z M86 196 C85.9 196.4 85.9 196.4 85.3 198.4 C77.4 221.6 67.5 242.8 51.1 261.3 C48.6 264 46.4 266.5 45 270 C50.8 269.2 53.6 264.3 57 260 C58.9 257.5 60.7 254.9 62.4 252.3 C63.8 250.3 65.2 248.4 66.7 246.5 C69.1 243.1 70.9 239.5 72.6 235.8 C74.2 232.7 75.8 229.8 77.5 226.8 C82.8 217.1 85.9 206.8 88 196 C87.4 196 86.7 196 86 196 Z M-234 219 C-229.5 230.4 -224.1 242.6 -216 252 C-215.3 252 -214.7 252 -214 252 C-215.5 247.7 -217.8 244.1 -220.3 240.4 C-224.7 233.6 -228.4 226.7 -231 219 C-232 219 -233 219 -234 219 Z " fill="#000000" transform="translate(255.970703125,25.01171875)"/>
<path d="M0 0 C1.6 -0.1 3.2 -0.1 4.9 -0.2 C5.8 -0.2 6.7 -0.3 7.6 -0.3 C8 -0.2 8 -0.2 10 0 C10.7 1 11.3 2 12 3 C11 3.3 10 3.7 9 4 C9.3 6.3 9.7 8.6 10 11 C12.3 11.3 14.6 11.7 17 12 C17 10.7 17.1 9.5 17.1 8.2 C17.1 7.5 17.2 6.8 17.2 6 C17 4 17 4 15 1 C15.3 0.7 15.7 0.3 16 0 C17.5 0.1 19 0.2 20.6 0.4 C21.4 0.5 22.2 0.6 23.1 0.7 C23.7 0.8 24.3 0.9 25 1 C24.7 1.6 24.4 2.2 24.1 2.8 C21.9 7.2 22 10.7 22.4 15.6 C22.5 16.8 22.6 17.9 22.6 19.1 C23 22 23 22 24 24 C26.1 25.1 26.1 25.1 28 26 C26 28 26 28 22.6 28.2 C19.9 28 17.6 27.8 15 27 C15 26.3 15 25.7 15 25 C15.7 25 16.3 25 17 25 C17 21.7 17 18.4 17 15 C14.4 15.3 11.7 15.7 9 16 C8.9 17.3 8.9 18.5 8.8 19.8 C8.8 20.5 8.7 21.2 8.7 22 C9 24 9 24 12 27 C8 27 4.1 27 0 27 C0 26 0 25 0 24 C0.7 23.7 1.3 23.3 2 23 C2 16.7 2 10.5 2 4 C1 3.7 0 3.3 -1 3 C-0.7 2 -0.3 1 0 0 Z " fill="#000000" transform="translate(166,19)"/>
<path d="M0 0 C2.1 1.8 2.1 1.8 3.7 3.6 C4.2 4 4.6 4.4 5.1 4.8 C6.9 4.6 6.9 4.6 9.1 3.8 C10.7 3.5 12.4 3.2 14.1 2.8 C13.8 -0.7 13.1 -2.2 10.8 -5 C8.1 -7.2 8.1 -7.2 5.3 -7.5 C4.5 -7.4 3.8 -7.3 3.1 -7.2 C3.1 -5.8 3.1 -4.5 3.1 -3.2 C-0.7 -3.7 -2.6 -5.2 -4.9 -8.2 C-4.9 -9.5 -4.9 -10.8 -4.9 -12.2 C-3.7 -11.9 -2.5 -11.6 -1.2 -11.3 C4.6 -10.6 8.3 -13 13.2 -15.8 C16.4 -17.3 18.6 -17.4 22.1 -17.2 C24.3 -8.6 21.2 -0.1 18.1 7.8 C17.7 9.8 17.3 11.8 17.1 13.8 C15.7 13.8 14.4 13.8 13.1 13.8 C13.1 14.5 13.1 15.2 13.1 15.8 C14.1 16.2 15 16.5 16.1 16.8 C22.5 24.1 26.8 32.8 30.9 41.5 C31.4 42.4 31.9 43.4 32.3 44.4 C35 49.9 36.9 55.3 38.4 61.2 C39 63.7 39.8 65.9 40.7 68.3 C42.5 73.6 42.9 79 43.3 84.7 C43.3 85.7 43.4 86.7 43.5 87.7 C46.1 121.8 37.7 154.5 15.1 180.8 C10.1 186.6 5.1 192.1 -0.9 196.8 C-1.6 197.6 -2.3 198.3 -3.1 199.1 C-7.3 203.2 -12.1 206.5 -16.9 209.8 C-17.3 210.1 -17.3 210.1 -19.2 211.4 C-45.1 228.3 -80 233.9 -110.2 228.7 C-112.8 228.1 -115.4 227.5 -117.9 226.8 C-118.3 226.7 -118.3 226.7 -120.1 226.3 C-137.8 221.5 -155.5 214.6 -168.9 201.8 C-170.7 200.3 -172.5 198.7 -174.2 197.1 C-175 196.4 -175.8 195.7 -176.5 195 C-178.3 193.4 -180.1 191.9 -181.9 190.5 C-185.2 187.7 -187.8 184.6 -190.4 181.2 C-190.9 180.5 -191.4 179.9 -191.9 179.3 C-214.6 149.5 -221.5 115 -217.6 78.3 C-214.7 59 -206.5 37 -193.9 21.8 C-192.2 19.6 -190.5 17.4 -188.8 15.1 C-186.7 12.5 -184.3 10.2 -181.9 7.8 C-181.2 7 -180.4 6.2 -179.6 5.4 C-174.3 0 -169 -4.8 -162.9 -9.2 C-162.5 -9.5 -162.5 -9.5 -160.6 -10.9 C-111.6 -46.7 -44.6 -37.5 0 0 Z M-119.9 -24.2 C-120.8 -23.9 -121.6 -23.7 -122.4 -23.5 C-129.6 -21.6 -136.2 -18.4 -142.9 -15.2 C-143.8 -14.8 -144.6 -14.4 -145.5 -14 C-153.3 -10.4 -160.1 -5.3 -166.9 -0.2 C-167.4 0.2 -167.4 0.2 -169.7 1.8 C-195.3 21.4 -210 53.2 -214.3 84.5 C-214.5 86.6 -214.7 88.7 -214.9 90.8 C-210.1 90 -210.1 90 -208.9 88.8 C-205.7 88.3 -205.7 88.3 -201.9 88.8 C-200.2 90.5 -198.8 92.3 -197.4 94.3 C-195.9 95.8 -195.9 95.8 -193.1 96.3 C-192.4 96.1 -191.7 96 -190.9 95.8 C-189.4 91.7 -188.7 88.3 -188.8 83.9 C-188.9 83.3 -188.9 83.3 -188.9 80.5 C-189 78.2 -189 75.9 -189.1 73.6 C-189.1 72.5 -189.1 71.4 -189.2 70.3 C-189.2 69.3 -189.2 68.3 -189.2 67.3 C-189.1 66.5 -189 65.7 -188.9 64.8 C-186 62.9 -185 62.5 -181.7 62.2 C-180.5 62.1 -179.2 62 -177.9 61.8 C-178.5 58.1 -180.2 56 -182.6 53.1 C-183.3 52.2 -184.1 51.3 -184.8 50.4 C-185.5 49.6 -186.2 48.7 -186.9 47.8 C-188.1 46.4 -189.3 44.9 -190.4 43.5 C-190.9 42.9 -191.4 42.3 -191.9 41.6 C-192.9 39.8 -192.9 39.8 -192.9 35.8 C-184.4 34.6 -175.9 34.9 -167.3 35.3 C-165.9 35.3 -164.5 35.4 -163.1 35.4 C-159.7 35.6 -156.3 35.7 -152.9 35.8 C-152.6 36.8 -152.3 37.8 -151.9 38.8 C-153.6 41.4 -153.6 41.4 -156 44.5 C-158.9 48.2 -161.8 52 -164.5 55.9 C-164.7 56.2 -164.7 56.2 -165.9 58 C-166.9 59.8 -166.9 59.8 -166.9 62.8 C-163.3 63.2 -159.7 63.5 -155.9 63.8 C-155 66.7 -154.9 68.1 -155.1 71 C-155.1 71.8 -155.2 72.6 -155.2 73.5 C-155.2 73.9 -155.2 73.9 -155.4 76 C-156.2 88.7 -156.2 88.7 -155.9 93.8 C-153.9 95.8 -153.9 95.8 -151.8 96.1 C-151.3 96.1 -151.3 96.1 -149.1 96 C-148.2 96 -147.3 96 -146.3 96 C-145.3 96 -144.3 96 -143.3 96 C-142.3 96 -141.3 95.9 -140.3 95.9 C-137.8 95.9 -135.4 95.9 -132.9 95.8 C-132.1 84.1 -131.7 72.5 -131.4 60.7 C-131.2 53.1 -131 45.5 -129.9 37.8 C-123.9 35.8 -123.9 35.8 -101.9 36.8 C-101.9 56.3 -101.9 75.8 -101.9 95.8 C-96.3 96.8 -93.3 96.7 -87.9 95.8 C-87.1 88.4 -86.7 81 -86.6 73.5 C-86.5 72.4 -86.5 71.3 -86.4 70.2 C-86.4 62.5 -86.4 62.5 -89.4 59.2 C-90.2 58.8 -91.1 58.3 -91.9 57.8 C-93.8 55.3 -93.9 54.1 -93.9 50.8 C-92.7 47 -91.5 45.8 -87.9 43.8 C-84.4 43.9 -81.8 44.5 -78.5 45.8 C-76.3 48.7 -76.4 51.1 -76.3 54.6 C-76.9 56.8 -76.9 56.8 -79.4 58.6 C-82.2 61 -82.3 61.4 -82.6 64.8 C-82.7 66.4 -82.7 68 -82.7 69.6 C-82.8 70 -82.8 70 -82.8 72.1 C-82.9 74.7 -82.9 77.3 -82.9 79.8 C-83 81.4 -83 83 -83 84.6 C-83.1 88.4 -83.1 92.1 -82.9 95.8 C-82.6 96.2 -82.3 96.5 -81.9 96.8 C-78.6 96.8 -75.3 96.8 -71.9 96.8 C-71.6 78 -71.3 59.2 -70.9 39.8 C-63.1 37.6 -63.1 37.6 -58.8 37.9 C-57.9 38 -57 38.1 -56.1 38.1 C-55.2 38.2 -54.3 38.3 -53.3 38.3 C-51.5 38.5 -49.6 38.6 -47.8 38.7 C-47.4 38.8 -47.4 38.8 -45.3 38.9 C-42.5 38.8 -40.5 37.9 -37.9 36.8 C-37.9 37.6 -37.9 38.3 -38 39.1 C-38 46 -38.1 52.9 -38.1 59.8 C-38.1 63.4 -38.1 66.9 -38.2 70.5 C-38.2 74.6 -38.2 78.7 -38.2 82.7 C-38.2 84 -38.3 85.3 -38.3 86.6 C-38.3 87.8 -38.3 89 -38.3 90.2 C-38.3 91.2 -38.3 92.3 -38.3 93.4 C-38.2 94.2 -38.1 95 -37.9 95.8 C-34.7 98 -34.3 98.1 -30.7 97.5 C-30.1 97.4 -30.1 97.4 -26.9 96.8 C-26.8 91.8 -26.7 86.8 -26.6 81.8 C-26.6 80.1 -26.5 78.4 -26.5 76.7 C-26.4 74.2 -26.4 71.8 -26.3 69.3 C-26.3 68.9 -26.3 68.9 -26.3 67 C-26.3 63.8 -26.3 61.7 -28.3 59.1 C-30 57.5 -30 57.5 -31.6 56.2 C-32.9 54.8 -32.9 54.8 -33.1 51.2 C-31.8 47.6 -31.1 46 -27.9 43.8 C-24.1 43.2 -22.4 43.6 -19 45.4 C-16.9 47.8 -16.9 47.8 -17.1 51.4 C-17.9 54.8 -17.9 54.8 -18.9 57.8 C-19.9 58.2 -20.9 58.5 -21.9 58.8 C-22.7 63.7 -23.1 68.4 -23 73.3 C-23 74 -23 74.7 -23 75.4 C-23 77.5 -23 79.6 -23 81.8 C-23 83.2 -23 84.7 -23 86.2 C-23 89.7 -23 93.3 -22.9 96.8 C-21.5 97 -20 97.2 -18.5 97.4 C-17.7 97.5 -16.8 97.6 -16 97.7 C-15.3 97.8 -14.6 97.8 -13.9 97.8 C-12.9 96.8 -12.9 96.8 -12.8 94.5 C-12.8 93.5 -12.8 92.5 -12.8 91.4 C-12.8 90.2 -12.8 89.1 -12.8 87.9 C-12.8 87.3 -12.8 87.3 -12.8 84.1 C-12.8 82.8 -12.8 81.5 -12.8 80.2 C-12.8 76.7 -12.9 73.3 -12.9 69.9 C-12.9 66.4 -12.9 62.9 -12.9 59.4 C-12.9 52.6 -12.9 45.7 -12.9 38.8 C-0.7 38.8 11.5 38.8 24.1 38.8 C23.1 34.9 21.8 32.5 19.6 29.1 C19 28.1 18.4 27.1 17.8 26.1 C17.5 25.7 17.5 25.7 16.1 23.8 C15.4 23.8 14.7 23.8 14.1 23.8 C13.8 23.2 13.5 22.7 13.2 22 C12.1 19.9 11 18.4 9.4 16.6 C7.7 14.7 6 12.8 4.4 10.9 C0.2 5.7 -4.5 1.7 -9.9 -2.2 C-10.8 -2.8 -11.7 -3.4 -12.6 -4.1 C-24 -12 -36.5 -19.2 -49.9 -23.2 C-51.1 -23.5 -52.2 -23.9 -53.4 -24.2 C-75.2 -30.4 -98.2 -30.8 -119.9 -24.2 Z M10.1 -10.2 C10.9 -9.2 10.9 -9.2 15.1 -4.2 C17.2 -6.8 18.5 -8.8 19.1 -12.2 C15.2 -13.8 13.4 -12.5 10.1 -10.2 Z M8.1 8.8 C9.4 10.2 10.7 11.5 12.1 12.8 C11.4 11.5 10.7 10.2 10.1 8.8 C9.4 8.8 8.7 8.8 8.1 8.8 Z M-185.9 38.8 C-185.4 43.2 -182.7 46.1 -180.1 49.5 C-179.7 50.1 -179.2 50.6 -178.8 51.2 C-176.5 54.2 -174.6 56.5 -170.9 57.8 C-170.4 57.1 -169.8 56.3 -169.3 55.6 C-168.6 54.6 -167.9 53.6 -167.1 52.6 C-166.8 52.1 -166.8 52.1 -165 49.6 C-163.7 48 -162.5 46.3 -161.2 44.7 C-159.9 42.8 -159.9 42.8 -159.9 39.8 C-168.6 38.8 -177.2 38.7 -185.9 38.8 Z M-125.9 41.8 C-126.1 44.1 -126.3 46.4 -126.4 48.7 C-126.4 50.3 -126.5 51.9 -126.6 53.5 C-126.7 54.5 -126.7 55.5 -126.8 56.4 C-127 60.6 -127.2 64.7 -127.5 68.8 C-127.6 71.2 -127.8 73.6 -127.9 76 C-128 77.6 -128.1 79.2 -128.2 80.8 C-128.4 83.1 -128.5 85.4 -128.6 87.7 C-128.7 88.4 -128.7 89.1 -128.8 89.9 C-128.9 91.5 -128.9 93.2 -128.9 94.8 C-127.9 95.8 -127.9 95.8 -125.8 96 C-124.9 95.9 -124 95.9 -123 95.9 C-122 95.9 -121 95.9 -120 95.9 C-119.5 95.9 -119.5 95.9 -116.9 95.9 C-115.8 95.9 -114.8 95.9 -113.7 95.9 C-111.1 95.9 -108.5 95.9 -105.9 95.8 C-105.9 88.2 -105.9 80.5 -105.9 72.8 C-105.9 70.2 -105.9 67.6 -105.9 65 C-105.8 61.2 -105.8 57.5 -105.8 53.8 C-105.8 52.6 -105.8 51.4 -105.8 50.2 C-105.8 49.1 -105.8 48 -105.8 46.9 C-105.8 46 -105.8 45 -105.8 44 C-105.9 41.8 -105.9 41.8 -106.9 40.8 C-108.3 40.7 -109.6 40.7 -110.9 40.7 C-111.7 40.7 -112.5 40.7 -113.4 40.7 C-114.2 40.7 -115.1 40.7 -115.9 40.7 C-116.8 40.7 -117.6 40.7 -118.5 40.7 C-119.3 40.7 -120.1 40.7 -120.9 40.7 C-121.3 40.7 -121.3 40.7 -123.2 40.7 C-124.9 40.8 -124.9 40.8 -125.9 41.8 Z M-66.9 42.8 C-68 48.9 -68.1 54.7 -68 60.8 C-68 61.8 -68 62.9 -68 63.9 C-68 67.2 -68 70.5 -68 73.8 C-68 76 -68 78.2 -68 80.5 C-68 85.9 -68 91.4 -67.9 96.8 C-59.4 96.8 -50.8 96.8 -41.9 96.8 C-41.9 89.3 -41.9 81.8 -41.9 74.3 C-41.9 71.7 -41.9 69.1 -41.9 66.6 C-41.8 62.9 -41.8 59.2 -41.8 55.5 C-41.8 54.4 -41.8 53.2 -41.8 52 C-41.8 51 -41.8 49.9 -41.8 48.8 C-41.8 47.9 -41.8 46.9 -41.8 46 C-41.9 43.8 -41.9 43.8 -42.9 42.8 C-44.7 42.8 -46.5 42.7 -48.3 42.7 C-49.4 42.7 -50.4 42.7 -51.6 42.8 C-52.1 42.8 -52.1 42.8 -55 42.8 C-56.1 42.8 -57.3 42.8 -58.5 42.8 C-61.3 42.8 -64.1 42.8 -66.9 42.8 Z M21.1 42.8 C16.3 47.1 16.3 47.1 16.1 50.8 C16.4 51.3 16.4 51.3 18.1 53.8 C20.9 54.3 22.4 54.2 24.9 52.7 C26.6 50.1 26.3 47.9 26.1 44.8 C25.2 44.5 25.2 44.5 21.1 42.8 Z M-7.9 43.8 C-9.2 46.3 -9.1 48 -9 50.7 C-9 51.8 -9 52.8 -9 53.8 C-9 54.9 -9 56.1 -9 57.2 C-9 58.3 -9 59.4 -9 60.6 C-9 64.2 -9 67.8 -9 71.5 C-9 73.9 -9 76.4 -9 78.8 C-9 84.8 -9 90.8 -8.9 96.8 C-6 97 -6 97 -2.9 96.8 C-1.2 94.5 -1.2 94.5 0.1 91.8 C2.1 88.8 2.1 88.8 5.9 88 C8.8 87.7 10.1 87.9 12.9 89 C15.5 91.2 16.4 92.5 17.1 95.8 C16.4 99.9 15.9 102.1 12.8 104.8 C9.4 106.1 7.6 105.9 4.1 104.8 C3.8 104.6 3.8 104.6 2.3 103.3 C-0.3 101.6 -1.5 101.7 -4.6 101.8 C-5 101.8 -5 101.8 -7 101.8 C-7.4 101.8 -7.4 101.8 -8.9 101.8 C-9.1 107.9 -9.3 114 -9.4 120.1 C-9.5 122.2 -9.5 124.2 -9.6 126.3 C-9.7 129.3 -9.7 132.3 -9.8 135.2 C-9.8 136.1 -9.9 137.1 -9.9 138 C-10 144 -9.6 149.8 -8.9 155.8 C-2.3 156.2 4.3 156.5 11.1 156.8 C11.1 152.8 11.1 152.8 10.6 149 C10.6 146.2 10.8 145.1 12.6 143 C15.8 140.4 18.3 139 22.3 138.2 C25.7 139 26.9 140.2 29.1 142.8 C29.4 143.2 29.4 143.2 31.1 144.8 C35.4 135.5 37.3 126 38.8 115.8 C38.9 114.9 39 113.9 39.2 113 C41.3 96.7 39.2 81.2 35.1 65.4 C34.8 64.4 34.5 63.4 34.3 62.3 C32.3 55.1 32.3 55.1 30.1 52.8 C29.8 53 29.8 53 28.5 54 C25.2 56.3 22.9 57.8 18.8 58 C15 56.4 13.8 54.6 12.1 50.8 C12.4 48.5 12.7 46.2 13.1 43.8 C6.1 43.8 -0.8 43.8 -7.9 43.8 Z M-30.9 49.8 C-30.9 51.2 -30.9 52.5 -30.9 53.8 C-28 55.3 -25.2 55 -21.9 54.8 C-20.9 53.8 -20.9 53.8 -20.7 51.4 C-20.8 50.6 -20.8 49.7 -20.9 48.8 C-25.2 46 -27.3 46.3 -30.9 49.8 Z M-88.7 49 C-89.9 50.8 -89.9 50.8 -89.6 54 C-89.4 55 -89.2 55.9 -88.9 56.8 C-82.8 56.9 -82.8 56.9 -80.9 56.8 C-79.9 55.8 -79.9 55.8 -79.7 52.9 C-79.8 51.9 -79.8 50.9 -79.9 49.8 C-83.2 47.7 -85.2 46.8 -88.7 49 Z M-184.9 68.8 C-184.9 69.9 -184.9 70.9 -184.9 72 C-184.9 75.8 -184.9 75.8 -185.4 78.7 C-186 82 -186.1 85.2 -186.1 88.7 C-186.1 89.8 -186.1 90.9 -186.1 92.1 C-185.9 94.8 -185.9 94.8 -184.9 95.8 C-183.2 95.9 -181.4 96 -179.6 96 C-178.5 96 -177.5 96 -176.4 96 C-175.2 96 -174.1 96 -172.9 96 C-171.8 96 -170.7 96 -169.5 96 C-168.4 96 -167.4 96 -166.2 96 C-165.3 96 -164.3 96 -163.2 96 C-160.9 95.8 -160.9 95.8 -159.9 94.8 C-159.8 92.9 -159.8 91 -159.8 89.1 C-159.8 88.5 -159.8 88.5 -159.8 85.5 C-159.9 84.3 -159.9 83 -159.9 81.8 C-159.9 80.5 -159.9 79.3 -159.9 78 C-159.9 75 -159.9 71.9 -159.9 68.8 C-162.4 67.6 -164.1 67.7 -166.9 67.7 C-167.9 67.7 -168.9 67.7 -169.9 67.7 C-170.4 67.7 -170.4 67.7 -173 67.7 C-173.5 67.7 -173.5 67.7 -176.1 67.7 C-177.1 67.7 -178.1 67.7 -179.1 67.7 C-179.5 67.7 -179.5 67.7 -181.8 67.7 C-183.9 67.8 -183.9 67.8 -184.9 68.8 Z M5.1 90.8 C3.1 93.6 2 95.1 2.2 98.5 C3.1 100.8 3.1 100.8 6.1 102.8 C8.6 102.7 8.6 102.7 11.1 101.8 C12.4 100.2 12.4 100.2 13.1 97.8 C12.7 94.6 12.7 94.6 12.1 91.8 C9.8 91.5 7.4 91.2 5.1 90.8 Z M-212.9 96.8 C-212.3 98.8 -211.6 100.8 -210.9 102.8 C-208.2 103.6 -206.5 104 -203.8 103.1 C-201.9 101.8 -201.9 101.8 -201.3 99.7 C-201.3 99.3 -201.3 99.3 -201.1 97.3 C-201.1 96.5 -201 95.7 -200.9 94.8 C-200.9 92.8 -200.9 92.8 -201.9 91.8 C-207.5 91.1 -209.4 92.7 -212.9 96.8 Z M-183.9 99.8 C-186.1 103.1 -186.2 104.1 -186.2 107.9 C-186.2 109 -186.2 110 -186.2 111.1 C-186.2 112.2 -186.2 113.3 -186.2 114.4 C-186.2 115.6 -186.2 116.7 -186.2 117.9 C-186.2 120.3 -186.2 122.8 -186.2 125.2 C-186.2 128.9 -186.2 132.6 -186.2 136.3 C-186.2 138.7 -186.2 141 -186.2 143.4 C-186.2 144.5 -186.2 145.6 -186.2 146.8 C-186.2 147.8 -186.2 148.8 -186.2 149.9 C-186.2 150.8 -186.2 151.7 -186.2 152.6 C-185.9 154.8 -185.9 154.8 -183.9 156.8 C-181.9 157 -181.9 157 -179.3 157 C-178.4 157 -177.4 157 -176.4 156.9 C-175.4 156.9 -174.3 156.9 -173.3 156.9 C-172.7 156.8 -172.7 156.8 -170.1 156.8 C-167.8 156.7 -165.6 156.7 -163.3 156.6 C-159.9 156.5 -156.4 156.5 -153 156.4 C-150.8 156.3 -148.6 156.3 -146.5 156.2 C-145.4 156.2 -144.4 156.2 -143.3 156.2 C-142.8 156.1 -142.8 156.1 -140.4 156.1 C-140 156.1 -140 156.1 -137.9 156 C-135.9 155.8 -135.9 155.8 -134.9 154.8 C-134.7 152 -134.5 149.2 -134.4 146.3 C-134.3 146 -134.3 146 -134.2 144 C-134 140 -133.9 136.1 -134 132.1 C-134 129.6 -133.9 127.5 -133.4 125 C-132.7 120.3 -132.8 115.7 -132.8 111 C-132.8 110.1 -132.8 109.1 -132.8 108.1 C-132.8 107.6 -132.8 107.6 -132.8 105.3 C-132.8 104.9 -132.8 104.9 -132.8 102.8 C-132.9 100.8 -132.9 100.8 -133.9 99.8 C-135.5 99.7 -137 99.7 -138.6 99.7 C-139.1 99.7 -139.1 99.7 -141.6 99.6 C-142.7 99.6 -143.8 99.6 -144.9 99.6 C-146 99.6 -147.1 99.6 -148.2 99.6 C-150.6 99.6 -152.9 99.6 -155.3 99.6 C-158.9 99.6 -162.4 99.6 -166 99.5 C-168.3 99.5 -170.6 99.5 -172.8 99.5 C-173.9 99.5 -175 99.5 -176.1 99.5 C-177.1 99.5 -178.1 99.5 -179.1 99.5 C-180 99.5 -180.9 99.5 -181.8 99.5 C-182.5 99.6 -183.2 99.7 -183.9 99.8 Z M-101.9 100.8 C-101.9 101.6 -101.9 102.3 -101.9 103.1 C-101.9 106.5 -101.9 109.9 -101.9 113.3 C-101.9 114.4 -101.9 115.6 -101.8 116.8 C-101.8 122.5 -102 128 -102.7 133.7 C-103.1 137.7 -103.1 141.8 -103.1 145.8 C-103.1 146.7 -103.1 147.6 -103.1 148.4 C-103.1 154.7 -103.1 154.7 -101.9 155.8 C-99.9 155.9 -98 156 -96 156 C-95.4 156 -95.4 156 -92.3 156 C-91.7 156 -91.7 156 -88.4 156 C-87.2 156 -85.9 156 -84.6 156 C-83.4 156 -82.1 156 -80.9 156 C-79.8 156 -78.7 156 -77.5 156 C-74.9 155.8 -74.9 155.8 -73.9 154.8 C-73.8 153.3 -73.7 151.8 -73.6 150.3 C-73.6 149.3 -73.5 148.4 -73.5 147.4 C-73.5 146.4 -73.4 145.4 -73.4 144.4 C-73.3 143.4 -73.3 142.5 -73.2 141.5 C-73 136.8 -72.9 132.2 -73 127.5 C-73 123.8 -72.6 120.5 -71.9 116.8 C-71.9 114.2 -71.8 111.6 -71.9 109 C-71.9 108.3 -71.9 107.6 -71.9 106.9 C-71.9 105.2 -71.9 103.5 -71.9 101.8 C-77.9 100.9 -83.7 100.5 -89.7 100.2 C-90.7 100.2 -91.7 100.1 -92.6 100.1 C-93.1 100 -93.1 100 -95.4 99.9 C-96.2 99.9 -97 99.8 -97.9 99.8 C-99.9 99.8 -99.9 99.8 -101.9 100.8 Z M-196.9 99.8 C-197.2 100.5 -197.4 101.1 -197.6 101.7 C-199.4 104.5 -200.8 104.9 -203.9 105.8 C-208 106.8 -210.9 106.9 -214.9 105.8 C-212.9 129.2 -206.3 154.5 -190.9 172.8 C-190.1 173.9 -189.3 175.1 -188.4 176.2 C-188 176.7 -187.6 177.3 -187.1 177.9 C-186.2 179.1 -185.3 180.3 -184.5 181.5 C-183.3 183 -182.1 184.4 -180.9 185.8 C-180.3 185.8 -179.6 185.8 -178.9 185.8 C-178.7 186.4 -178.4 187 -178.2 187.6 C-176.8 190.1 -175.3 191.5 -173.2 193.3 C-172.8 193.6 -172.8 193.6 -171 195.1 C-170.3 195.7 -169.6 196.2 -168.9 196.8 C-168.7 197.1 -168.7 197.1 -167.2 198.3 C-163.6 201.4 -160 203.9 -155.7 205.8 C-153.9 206.8 -153.9 206.8 -152.9 209.8 C-152.3 209.9 -151.6 210 -150.9 210.1 C-147.3 211 -144.2 212.5 -141 214.1 C-129.7 219.5 -118.2 223.4 -105.9 225.8 C-105 226 -104.2 226.2 -103.3 226.4 C-74.7 230.2 -45.5 222.4 -20.9 207.8 C-20.1 207.4 -19.3 206.9 -18.5 206.4 C-14.3 204 -14.3 204 -12.9 202.8 C-12.9 202.2 -12.9 201.5 -12.9 200.8 C-13.2 200.8 -13.2 200.8 -14.8 200.5 C-15.2 200.4 -15.2 200.4 -17.3 200 C-17.7 200 -17.7 200 -19.8 199.6 C-21.9 198.8 -21.9 198.8 -23.9 195.8 C-24.3 193.3 -24.3 193.3 -23.9 190.8 C-22 189.4 -22 189.4 -19.4 188.2 C-15.1 185.5 -15.1 185.5 -14.3 182.6 C-14.3 179.9 -14.6 177.5 -14.9 174.8 C-15.1 173 -15.3 171.1 -15.4 169.2 C-15.6 167.8 -15.8 166.3 -15.9 164.8 C-15.3 164.5 -14.6 164.2 -13.9 163.8 C-13.9 162.8 -13.9 161.9 -13.9 160.8 C-16.2 159.7 -17.5 159.7 -20.1 159.7 C-20.5 159.7 -20.5 159.7 -22.6 159.7 C-23.4 159.7 -24.3 159.7 -25.2 159.7 C-26 159.7 -26.9 159.7 -27.8 159.7 C-28.6 159.7 -29.4 159.7 -30.3 159.7 C-31 159.7 -31.8 159.7 -32.5 159.7 C-35.4 159.9 -38.1 160.4 -40.9 160.8 C-40.9 160.1 -40.9 159.4 -40.9 158.7 C-40.9 152 -40.9 145.3 -40.9 138.6 C-40.9 135.2 -40.9 131.8 -40.9 128.3 C-40.8 124.4 -40.8 120.5 -40.8 116.5 C-40.8 115.3 -40.8 114 -40.8 112.8 C-40.8 111.6 -40.8 110.5 -40.8 109.3 C-40.8 108.3 -40.8 107.3 -40.8 106.2 C-40.9 103.8 -40.9 103.8 -41.9 101.8 C-45.4 101.2 -45.4 101.2 -48.9 100.8 C-50.7 102.6 -50.1 105 -50.1 107.3 C-50.2 108.5 -50.2 109.7 -50.2 110.9 C-50.2 112.2 -50.2 113.5 -50.2 114.8 C-50.3 116.1 -50.3 117.5 -50.3 118.8 C-50.4 121.6 -50.4 124.5 -50.4 127.3 C-50.5 130.9 -50.5 134.4 -50.6 138 C-50.8 153.3 -51 168.6 -50.9 183.8 C-49 184.4 -49 184.4 -46.9 184.8 C-42.9 182.6 -40.3 179.7 -38.5 175.5 C-38.3 174.6 -38.1 173.7 -37.9 172.8 C-37.6 172.8 -37.3 172.8 -36.9 172.8 C-36.9 181.4 -36.9 190 -36.9 198.8 C-38.9 197.8 -38.9 197.8 -40.2 195 C-42.1 191.6 -43.6 189.9 -46.9 187.8 C-49.2 188.1 -49.2 188.1 -50.9 188.8 C-51.9 191.3 -51.9 191.3 -51.9 194.8 C-49.9 198.1 -47.4 200.9 -44.9 203.8 C-44.6 204.3 -44.6 204.3 -42.9 206.8 C-44.6 208.5 -46.6 208.1 -48.8 208.2 C-49.8 208.2 -50.8 208.2 -51.8 208.3 C-52.9 208.3 -53.9 208.4 -55 208.4 C-56 208.4 -57.1 208.5 -58.2 208.5 C-60.8 208.6 -63.3 208.7 -65.9 208.8 C-64.2 205 -62.6 203.9 -58.9 201.8 C-56.5 199.8 -56 198.9 -54.9 195.8 C-54.9 193.5 -54.9 191.2 -54.9 188.8 C-57.9 187.9 -59.4 187.6 -62.4 188.8 C-65.2 191.1 -67.4 193.6 -69.6 196.4 C-70 196.9 -70.5 197.4 -70.9 197.8 C-71.6 197.8 -72.3 197.8 -72.9 197.8 C-72.9 189.3 -72.9 180.7 -72.9 171.8 C-70.9 172.8 -70.9 172.8 -69.7 176.2 C-68 180.2 -65.9 181.9 -61.9 183.8 C-58.6 184.2 -58.6 184.2 -55.9 183.8 C-53.5 181.4 -54.5 175.3 -54.4 172.1 C-54.3 170.9 -54.3 169.7 -54.2 168.5 C-53.6 146.3 -53.9 124.1 -53.9 101.8 C-58.7 101.1 -63.1 100.7 -67.9 100.8 C-69.2 104.6 -69 108.3 -68.9 112.3 C-68.9 117.3 -69 122.1 -69.4 127.1 C-70 133.7 -70 140.3 -69.9 147 C-69.9 147.8 -69.9 148.6 -69.9 149.4 C-69.9 150.2 -69.8 150.9 -69.8 151.6 C-69.9 154.1 -70.4 156.4 -70.9 158.8 C-74.5 159 -78.1 159.2 -81.7 159.4 C-82.7 159.5 -83.7 159.5 -84.7 159.6 C-85.7 159.6 -86.7 159.7 -87.7 159.7 C-88.6 159.8 -89.5 159.8 -90.5 159.9 C-95.6 159.8 -100.8 159.3 -105.9 158.8 C-105.9 158.1 -105.9 157.4 -105.9 156.7 C-105.9 150 -105.8 143.3 -105.8 136.6 C-105.8 133.2 -105.7 129.8 -105.7 126.3 C-105.7 122.4 -105.7 118.5 -105.6 114.5 C-105.6 113.3 -105.6 112 -105.6 110.8 C-105.6 109.6 -105.6 108.5 -105.6 107.3 C-105.6 106.3 -105.6 105.3 -105.6 104.2 C-105.7 103.5 -105.8 102.7 -105.9 101.8 C-108.9 99.8 -108.9 99.8 -111.6 100.2 C-112.4 100.4 -113.1 100.6 -113.9 100.8 C-115.2 107.8 -115.1 114.8 -115.2 121.9 C-115.2 123.3 -115.3 124.6 -115.3 126 C-115.3 130.3 -115.4 134.7 -115.4 139 C-115.5 144 -115.6 149.1 -115.6 154.1 C-115.7 156.1 -115.7 158.1 -115.7 160.1 C-115.8 167 -116.1 173.8 -116.8 180.6 C-116.8 181 -116.8 181 -116.9 182.8 C-115.9 183.8 -115.9 183.8 -113 184 C-109.9 183.8 -109.9 183.8 -107.9 182.8 C-107.9 182.2 -107.9 181.5 -107.9 180.8 C-107.6 180.7 -107.6 180.7 -106.1 180.1 C-103.6 178.6 -103.1 177.4 -101.9 174.8 C-101.3 174.5 -100.6 174.2 -99.9 173.8 C-99.9 181.8 -99.9 189.7 -99.9 197.8 C-102.5 195.3 -105 192.7 -107.4 190 C-109.9 187.8 -109.9 187.8 -113.2 188 C-113.7 188.2 -113.7 188.2 -115.9 188.8 C-116.7 193.4 -116.8 195.6 -114.1 199.6 C-107.3 207.3 -107.3 207.3 -102.9 207.8 C-103.1 208.3 -103.1 208.3 -103.9 210.8 C-107.1 210.7 -110.3 210.6 -113.4 210.4 C-114.3 210.4 -115.2 210.3 -116.1 210.3 C-121.4 210 -126.7 209.7 -131.9 208.8 C-132.3 208.2 -132.6 207.5 -132.9 206.8 C-132.1 206.6 -131.2 206.4 -130.3 206.2 C-126.2 204.6 -124.1 202.8 -120.9 199.8 C-119.6 196 -119.8 192.9 -119.9 188.8 C-120.9 187.8 -120.9 187.8 -124.7 187.5 C-127.7 187.6 -128.7 187.7 -131.2 189.4 C-133.3 192.4 -134.6 195.4 -135.9 198.8 C-136.6 198.8 -137.3 198.8 -137.9 198.8 C-137.6 190.6 -137.3 182.3 -136.9 173.8 C-134.9 174.8 -134.9 174.8 -133.6 177.2 C-131.9 180 -130.6 181.9 -127.9 183.8 C-124.2 184.2 -124.2 184.2 -120.9 183.8 C-118.9 181.9 -119.5 178 -119.4 175.3 C-119.3 174.5 -119.3 173.6 -119.3 172.8 C-118.7 160.5 -118.7 148.3 -118.7 136 C-118.7 132.4 -118.7 128.9 -118.7 125.3 C-118.7 122.5 -118.7 119.7 -118.7 116.9 C-118.7 115 -118.7 113 -118.7 111 C-118.7 110.4 -118.7 110.4 -118.7 107.5 C-118.7 106.4 -118.7 105.4 -118.7 104.3 C-118.9 101.8 -118.9 101.8 -120.9 99.8 C-124.5 99.7 -124.5 99.7 -127.9 99.8 C-130 101.9 -129.2 106.5 -129.2 109.4 C-129.2 110.3 -129.3 111.2 -129.3 112.1 C-129.3 114.9 -129.4 117.7 -129.4 120.5 C-130.1 154.5 -130.1 154.5 -132.9 158.8 C-134.8 159.3 -134.8 159.3 -137 159.5 C-137.8 159.6 -138.6 159.6 -139.4 159.7 C-143.4 159.9 -147.3 160 -151.3 160 C-151.7 160 -151.7 160 -153.9 160 C-155.7 160 -157.5 160 -159.3 160 C-162.1 160 -164.8 160 -167.5 160.1 C-169.3 160.1 -171.1 160.1 -172.8 160.1 C-173.2 160.1 -173.2 160.1 -175.3 160.1 C-180.2 160.1 -184.3 159.4 -188.9 157.8 C-188.9 157.5 -188.9 157.5 -188.9 156 C-188.9 149.8 -188.9 143.6 -188.9 137.3 C-188.9 135 -188.9 132.7 -188.9 130.4 C-188.8 127 -188.8 123.7 -188.8 120.3 C-188.8 119.3 -188.8 118.3 -188.8 117.2 C-188.8 111.7 -189 106.3 -189.9 100.8 C-190.9 99.8 -190.9 99.8 -194 99.8 C-194.5 99.8 -194.5 99.8 -196.9 99.8 Z M-36.9 101.8 C-37.9 111.5 -37.8 120.7 -37.2 130.3 C-36.8 137.4 -36.5 144.5 -37.5 151.5 C-37.6 152.6 -37.8 153.7 -37.9 154.8 C-36.9 155.8 -36.9 155.8 -34.8 156 C-33.9 155.9 -33 155.9 -32 155.9 C-31 155.9 -30 155.9 -29 155.9 C-28.5 155.9 -28.5 155.9 -25.9 155.9 C-24.8 155.9 -23.8 155.9 -22.7 155.9 C-20.1 155.9 -17.5 155.9 -14.9 155.8 C-14 152.5 -13.9 149.6 -13.9 146.1 C-14 138.3 -13.7 130.5 -13.3 122.7 C-13 115.7 -12.9 108.9 -12.9 101.8 C-20.9 101.8 -28.8 101.8 -36.9 101.8 Z M15.1 143.8 C13.7 146.6 13.9 149 14.4 152 C15.1 153.8 15.1 153.8 17.4 156 C20.1 156.8 20.1 156.8 22.2 156.2 C24.1 154.8 24.1 154.8 24.7 152.8 C24.8 152 24.8 151.2 24.9 150.4 C24.9 149.6 25 148.8 25.1 148 C25.1 145.8 25.1 145.8 24.1 142.8 C17.8 142.5 17.8 142.5 15.1 143.8 Z M13.7 159.3 C11.1 159.8 8.8 160 6.2 159.9 C5.8 159.9 5.8 159.9 3.5 159.9 C2.6 159.9 1.7 159.9 0.8 159.9 C-0.2 159.9 -1.1 159.9 -2.1 159.9 C-4.4 159.9 -6.6 159.9 -8.9 159.8 C-10.1 164 -10.3 168.1 -10.6 172.3 C-10.6 173.1 -10.7 173.9 -10.7 174.6 C-10.9 178.2 -11.1 181.4 -9.9 184.8 C-9.3 185.5 -8.7 186.1 -8 186.8 C-5.8 189 -4.9 190.9 -3.9 193.8 C9.1 188.3 19.2 171.1 25.1 158.8 C23.7 158.8 22.3 158.8 20.9 158.8 C20.5 158.8 20.5 158.8 18.5 158.7 C16.1 158.8 16.1 158.8 13.7 159.3 Z M-20.9 190.8 C-20.2 195.6 -20.2 195.6 -17.9 197.8 C-14.8 198.2 -12.8 198.3 -10.1 196.7 C-8.5 194.1 -8.7 191.9 -8.9 188.8 C-13.5 186.6 -17.3 187.5 -20.9 190.8 Z " fill="#000000" transform="translate(266.93359375,81.16015625)"/>
<path d="M0 0 C1.3 0.3 2.6 0.7 4 1 C3.3 3.3 2.7 5.6 2 8 C4.8 10.9 7.7 13.6 11 16 C14.6 16 14.6 16 17 15 C17 19 17 19 15.1 21.3 C14.3 22.1 13.5 22.9 12.7 23.7 C11.9 24.5 11.1 25.3 10.3 26.1 C8 28 8 28 5 29 C5.6 26.6 6.2 24.3 7 22 C3.8 18.5 0.3 14.9 -4 13 C-7.9 13.7 -7.9 13.7 -11 15 C-11.3 14 -11.7 13 -12 12 C-10.7 10 -10.7 10 -8.8 7.9 C-8.2 7.2 -7.6 6.5 -7 5.7 C-4.9 3.9 -3.6 3.6 -1 3 C-0.7 2 -0.3 1 0 0 Z " fill="#000000" transform="translate(72,61)"/>
<path d="M0 0 C3 1 3 1 4.3 3.4 C6.5 6.8 8.6 7.6 12.2 9.1 C13.4 9.6 14.6 10.1 15.7 10.6 C16.3 10.9 16.3 10.9 19 12 C20.4 12.6 21.9 13.2 23.3 13.9 C24.2 14.2 25.1 14.6 26 15 C24.7 18.8 23.5 19.1 20 20.9 C19 21.5 18 22 17 22.5 C14.3 23.8 11.7 25 8.9 26.1 C5.8 27.4 5.2 27.7 3.4 30.8 C3.3 31.5 3.1 32.2 3 33 C2 32.7 1 32.3 0 32 C0 28 0 24.1 0 20 C1.6 20.3 3.3 20.7 5 21 C5.7 20.3 6.3 19.7 7 19 C7 16.6 7 16.6 6.6 13.9 C6.5 13 6.4 12.1 6.3 11.1 C6.2 10.4 6.1 9.7 6 9 C5 9 4 9 3 9 C2.7 10 2.3 11 2 12 C1.3 12 0.7 12 0 12 C0 8 0 4.1 0 0 Z M10 12 C10 14.3 10 16.6 10 19 C12.6 18.7 15.3 18.3 18 18 C17.4 16.1 17.4 16.1 16 14 C12.9 12.8 12.9 12.8 10 12 Z " fill="#000000" transform="translate(315,164)"/>
<path d="M0 0 C0.5 0.4 1 0.7 1.5 1.1 C0.5 3.1 0.5 3.1 -2.9 4.5 C-6.5 6.1 -6.5 6.1 -8.5 10.1 C-2.9 10.1 2.7 10.1 8.5 10.1 C8.8 8.5 9.2 6.8 9.5 5.1 C10.5 5.1 11.5 5.1 12.5 5.1 C12.5 9.7 12.5 14.4 12.5 19.1 C11.5 19.1 10.5 19.1 9.5 19.1 C9.2 18.1 8.8 17.1 8.5 16.1 C2.9 15.5 -2.7 14.8 -8.5 14.1 C-2.9 19.8 -2.9 19.8 1.5 21.1 C1.2 22.1 0.8 23.1 0.5 24.1 C-1.1 24 -2.8 23.8 -4.4 23.7 C-4.9 23.6 -4.9 23.6 -7.2 23.4 C-9.5 23.1 -9.5 23.1 -10.5 22.1 C-10.6 20.6 -10.6 19 -10.6 17.4 C-10.6 16.5 -10.6 15.5 -10.6 14.6 C-10.6 13.6 -10.6 12.6 -10.6 11.6 C-10.6 10.6 -10.6 9.6 -10.5 8.5 C-10.5 6.1 -10.5 3.6 -10.5 1.1 C-2.8 -1 -2.8 -1 0 0 Z " fill="#000000" transform="translate(31.5,167.875)"/>
<path d="M0 0 C0.6 0.2 1.1 0.5 1.7 0.8 C1.6 1.4 1.4 2.1 1.3 2.8 C1.1 3.6 0.9 4.5 0.7 5.4 C0.5 6.3 0.3 7.2 0.1 8.1 C-0.3 10.7 -0.4 13.1 -0.3 15.8 C2.7 13.7 4.3 12.1 5.7 8.8 C8.9 9.3 10.6 10.2 12.7 12.8 C12.7 13.4 12.7 14.1 12.7 14.8 C10.4 14.4 8.1 14.1 5.7 13.8 C5.7 14.4 5.7 15.1 5.7 15.8 C5 15.8 4.4 15.8 3.7 15.8 C3.4 16.3 3.2 16.9 2.9 17.4 C1.7 19.8 1.7 19.8 0 22.2 C-1.3 24.8 -1.3 24.8 -1 27.1 C-0.8 27.6 -0.5 28.2 -0.3 28.8 C-3.3 27.4 -3.3 27.4 -6.3 24.8 C-7.4 19.2 -6.3 13.3 -5.3 7.8 C-6 8.3 -6.8 8.8 -7.6 9.4 C-8.6 10 -9.5 10.7 -10.6 11.4 C-11.5 12 -12.5 12.7 -13.5 13.4 C-16.3 14.8 -16.3 14.8 -18.6 14.1 C-20.9 12.3 -21.4 10.5 -22.3 7.8 C-19.3 6.8 -19.3 6.8 -16.2 7.7 C-10.7 7.8 -8.6 5.1 -4.6 1.4 C-2.3 -0.2 -2.3 -0.2 0 0 Z " fill="#000000" transform="translate(78.30078125,272.25)"/>
<path d="M0 0 C4.4 1.2 6 2.2 8.6 6 C10 11.1 10.2 14.7 7.8 19.4 C7.1 20.3 6.3 21.1 5.6 22 C5.3 22.3 5.3 22.3 4.1 23.9 C2.6 25 2.6 25 0.6 24.9 C-1.9 23.8 -3 22.3 -4.4 20 C-1.2 18.9 1.2 19 4.6 19 C4.9 18.7 5.2 18.3 5.6 18 C5.2 12.6 4.1 9.1 0.6 5 C-2 4.2 -3.8 4 -6.4 4 C-6.8 6.3 -7.1 8.6 -7.4 11 C-5.8 11 -4.1 11 -2.4 11 C-2.4 13 -2.4 13 -3.9 14.5 C-4.2 14.8 -4.2 14.8 -5.8 16.1 C-6.4 16.7 -7.1 17.2 -7.7 17.8 C-9.4 19 -9.4 19 -11.4 19 C-11.2 17.9 -11 16.8 -10.8 15.6 C-10.7 14.4 -10.6 13.2 -10.4 12 C-11.1 11.3 -11.8 10.7 -12.4 10 C-12.4 8.7 -12.4 7.4 -12.4 6 C-10.2 4.4 -10.2 4.4 -7.4 3 C-6.8 2.4 -6.2 1.8 -5.6 1.2 C-3.4 0 -3.4 0 0 0 Z " fill="#000000" transform="translate(285.4375,274)"/>
<path d="M0 0 C0 0.7 0 1.3 0 2 C-1 2.3 -2 2.7 -3 3 C-3 4.2 -3 5.4 -3 6.6 C-3 12.1 -3 17.5 -3 23 C-9.3 24.1 -15.9 25 -22 23 C-22.3 20.7 -22.7 18.4 -23 16 C-19.8 17.4 -19 18 -17 21 C-15.1 21.3 -15.1 21.3 -12.9 21.2 C-11.6 21.1 -10.3 21.1 -9 21 C-8 16.2 -8 16.2 -8 14 C-9.9 14.4 -9.9 14.4 -12 15 C-12.3 15.7 -12.7 16.3 -13 17 C-14 16.7 -15 16.3 -16 16 C-15.3 13.7 -14.7 11.4 -14 9 C-13.3 9.7 -12.7 10.3 -12 11 C-9.9 11.6 -9.9 11.6 -8 12 C-8 9.4 -8 6.7 -8 4 C-11.6 4 -15.3 4 -19 4 C-19.7 5.6 -20.3 7.3 -21 9 C-22 9 -23 9 -24 9 C-24 6.7 -24 4.3 -24 2 C-23 1 -23 1 -19.8 0.9 C-17.7 1 -15.7 1 -13.6 1 C-8.9 1.1 -4.7 0 0 0 Z " fill="#000000" transform="translate(193,316)"/>
</svg>
